<svg width="1440" height="1024" viewBox="0 0 1440 1024" fill="none" xmlns="http://www.w3.org/2000/svg">
<g clip-path="url(#clip0_1092_6817)">
<rect width="1440" height="1024" fill="url(#paint0_radial_1092_6817)"/>
<g clip-path="url(#clip1_1092_6817)">
<g opacity="0.06">
<path d="M1041.39 -567H1013.8L1041.39 463.156L1068.98 -567H1041.39Z" fill="#360001"/>
<path d="M854.055 -551.122L826.894 -546.314L1032.95 463.397L881.243 -555.905L854.055 -551.122Z" fill="#360001"/>
<path d="M672.337 -502.953L646.412 -493.523L1024.68 465.09L698.262 -512.383L672.337 -502.953Z" fill="#360001"/>
<path d="M501.742 -423.941L477.858 -410.159L1016.83 468.206L525.652 -437.75L501.742 -423.941Z" fill="#360001"/>
<path d="M347.453 -316.533L326.337 -298.802L1009.63 472.612L368.597 -334.265L347.453 -316.533Z" fill="#360001"/>
<path d="M214.174 -183.952L196.443 -162.836L1003.32 478.227L231.905 -205.096L214.174 -183.952Z" fill="#360001"/>
<path d="M105.933 -30.2552L92.1511 -6.37185L998.081 484.836L119.742 -54.1386L105.933 -30.2552Z" fill="#360001"/>
<path d="M26.0353 139.911L16.6055 165.836L994.078 492.251L35.465 113.985L26.0353 139.911Z" fill="#360001"/>
<path d="M-23.1016 321.36L-27.9105 348.548L991.391 500.257L-18.3196 294.199L-23.1016 321.36Z" fill="#360001"/>
<path d="M-40 508.612V536.203L990.156 508.612L-40 481.021V508.612Z" fill="#360001"/>
<path d="M-24.1225 695.918L-19.3405 723.106L990.397 517.048L-28.9046 668.757L-24.1225 695.918Z" fill="#360001"/>
<path d="M24.0472 877.636L33.477 903.561L992.09 525.322L14.6175 851.711L24.0472 877.636Z" fill="#360001"/>
<path d="M103.059 1048.23L116.84 1072.14L995.206 533.167L89.2497 1024.35L103.059 1048.23Z" fill="#360001"/>
<path d="M210.467 1202.52L228.198 1223.66L999.612 540.34L192.735 1181.38L210.467 1202.52Z" fill="#360001"/>
<path d="M343.048 1335.83L364.164 1353.56L1005.23 546.653L321.904 1318.07L343.048 1335.83Z" fill="#360001"/>
<path d="M496.745 1444.07L520.628 1457.85L1011.84 551.892L472.861 1430.26L496.745 1444.07Z" fill="#360001"/>
<path d="M666.911 1523.96L692.836 1533.39L1019.25 555.922L640.985 1514.54L666.911 1523.96Z" fill="#360001"/>
<path d="M848.36 1573.1L875.548 1577.88L1027.26 558.582L821.199 1568.32L848.36 1573.1Z" fill="#360001"/>
<path d="M1035.61 1590H1063.2L1035.61 559.818L1008.02 1590H1035.61Z" fill="#360001"/>
<path d="M1222.92 1574.1L1250.11 1569.31L1044.05 559.603L1195.76 1578.9L1222.92 1574.1Z" fill="#360001"/>
<path d="M1404.64 1525.93L1430.56 1516.5L1052.32 557.883L1378.71 1535.38L1404.64 1525.93Z" fill="#360001"/>
<path d="M1575.23 1446.94L1599.14 1433.16L1060.17 554.794L1551.35 1460.75L1575.23 1446.94Z" fill="#360001"/>
<path d="M1729.52 1339.53L1750.66 1321.8L1067.34 550.388L1708.4 1357.26L1729.52 1339.53Z" fill="#360001"/>
<path d="M1862.8 1206.95L1880.56 1185.81L1073.65 544.773L1845.07 1228.1L1862.8 1206.95Z" fill="#360001"/>
<path d="M1971.04 1053.26L1984.85 1029.34L1078.89 538.164L1957.26 1077.14L1971.04 1053.26Z" fill="#360001"/>
<path d="M2050.96 883.062L2060.39 857.137L1082.92 530.749L2041.54 909.014L2050.96 883.062Z" fill="#360001"/>
<path d="M2100.1 701.613L2104.88 674.452L1085.58 522.743L2095.32 728.801L2100.1 701.613Z" fill="#360001"/>
<path d="M2117 514.388V486.797L1086.82 514.388L2117 541.979V514.388Z" fill="#360001"/>
<path d="M2101.1 327.055L2096.31 299.894L1086.6 505.952L2105.9 354.243L2101.1 327.055Z" fill="#360001"/>
<path d="M2052.93 145.337L2043.5 119.412L1084.88 497.678L2062.38 171.262L2052.93 145.337Z" fill="#360001"/>
<path d="M1973.94 -25.2583L1960.16 -49.1417L1081.79 489.833L1987.72 -1.34801L1973.94 -25.2583Z" fill="#360001"/>
<path d="M1866.53 -179.547L1848.8 -200.663L1077.36 482.633L1884.26 -158.403L1866.53 -179.547Z" fill="#360001"/>
<path d="M1733.95 -312.826L1712.81 -330.557L1071.77 476.32L1755.1 -295.095L1733.95 -312.826Z" fill="#360001"/>
<path d="M1580.26 -421.067L1556.34 -434.849L1065.16 471.081L1604.14 -407.258L1580.26 -421.067Z" fill="#360001"/>
<path d="M1410.06 -500.965L1384.14 -510.395L1057.75 467.078L1435.99 -491.535L1410.06 -500.965Z" fill="#360001"/>
<path d="M1228.61 -550.102L1201.45 -554.911L1049.74 464.391L1255.77 -545.32L1228.61 -550.102Z" fill="#360001"/>
</g>
</g>
</g>
<defs>
<radialGradient id="paint0_radial_1092_6817" cx="0" cy="0" r="1" gradientUnits="userSpaceOnUse" gradientTransform="translate(1044.5 512) rotate(110.892) scale(538.399 757.123)">
<stop stop-color="#A30041"/>
<stop offset="1" stop-color="#590024"/>
</radialGradient>
<clipPath id="clip0_1092_6817">
<rect width="1440" height="1024" fill="white"/>
</clipPath>
<clipPath id="clip1_1092_6817">
<rect width="2157" height="2157" fill="white" transform="translate(-40 -567)"/>
</clipPath>
</defs>
</svg>
