<svg width="697" height="564" viewBox="0 0 697 564" fill="none" xmlns="http://www.w3.org/2000/svg">
<g clip-path="url(#clip0_1092_6856)">
<g filter="url(#filter0_d_1092_6856)">
<path d="M339.401 312.548C339.401 312.548 339.555 312.202 339.907 311.647L339.401 312.548Z" fill="#E1A82E"/>
<path d="M469.109 129.14C461.688 134.552 447.324 144.369 436.009 148.026C436.009 148.026 453.781 142.593 468.455 134.796C466.176 149.77 458.963 168.102 449.573 186.986C440.546 190.849 421.457 198.547 408.138 200.844C408.138 200.844 430.801 200.532 443.948 197.868C442.109 201.334 440.198 204.784 438.262 208.229C430.87 210.785 414.189 215.878 399.783 215.55C399.783 215.55 419.435 220.775 431.724 219.566C407.221 261.049 379.726 297.303 379.726 297.303L356.504 298.756C364.369 298.282 373.091 303.626 373.091 303.626C350.03 298.907 341.829 308.605 339.877 311.666L458.323 103.064C466.876 107.913 469.879 117.174 469.055 129.153L469.109 129.14Z" fill="#00B290"/>
<path d="M339.377 312.543L339.883 311.642C339.598 312.237 339.377 312.543 339.377 312.543Z" fill="#D38130"/>
<path d="M421.195 160.656C421.195 160.656 413.373 142.084 411.702 125.493C428.141 106.156 444.592 95.2841 458.347 103.069L339.853 311.661C341.493 308.403 345.619 296.401 329.746 279.021C329.746 279.021 338.801 283.78 342.438 290.775L331.794 270.078C331.794 270.078 369.116 178.801 407.836 130.205C409.751 137.981 414.065 152.501 421.195 160.656Z" fill="#1E796A"/>
<path d="M433.42 146.561L403.215 198.021L373.187 249.597L358.106 275.345L350.654 288.277C348.194 292.592 345.777 296.943 343.36 301.294L336.2 314.393C333.85 318.784 331.482 323.145 329.156 327.542C324.504 336.335 319.92 345.169 315.537 354.123L315.896 354.33C321.334 345.991 326.576 337.507 331.745 329.007C334.339 324.772 336.871 320.472 339.441 316.231L347.027 303.38C349.535 299.075 352.02 294.764 354.479 290.449L361.749 277.425L376.13 251.293L405.056 199.091L433.799 146.797L433.439 146.59L433.42 146.561Z" fill="#006472"/>
<path d="M344.087 313.594C344.087 313.594 344.096 313.216 344.013 312.564L344.087 313.594Z" fill="#E1A82E"/>
<path d="M304.723 92.4311C309.136 100.487 317.96 115.481 326.644 123.604C326.644 123.604 312.872 111.127 302.909 97.8289C298.601 112.35 297.33 132.008 297.795 153.093C304.322 160.43 318.323 175.517 329.399 183.261C329.399 183.261 309.021 173.338 298.256 165.334C298.446 169.254 298.708 173.189 298.995 177.13C304.597 182.588 317.528 194.293 330.705 200.124C330.705 200.124 310.697 196.493 300.089 190.171C304.618 238.137 314.078 282.643 314.078 282.643L334.476 293.837C327.56 290.063 317.394 291.188 317.394 291.188C340.272 296.728 343.568 308.993 344.032 312.594L325.553 73.4152C315.749 74.1655 309.092 81.269 304.741 92.4606L304.723 92.4311Z" fill="#00B290"/>
<path d="M344.111 313.6L344.037 312.57C344.042 313.229 344.111 313.6 344.111 313.6Z" fill="#D38130"/>
<path d="M334.678 141.336C334.678 141.336 349.657 127.856 358.227 113.552C351.576 89.0582 341.313 72.2213 325.553 73.4152L344.056 312.599C343.957 308.953 345.329 296.337 367.087 287.36C367.087 287.36 356.868 287.814 350.602 292.598L369.039 278.394C369.039 278.394 374.091 179.912 359.723 119.461C354.681 125.683 344.6 136.989 334.678 141.336Z" fill="#1E796A"/>
<path d="M329.61 123.379L335.055 182.801L340.29 242.251L342.986 271.969L344.229 286.842C344.619 291.794 344.956 296.76 345.292 301.726L346.2 316.625C346.458 321.599 346.747 326.554 346.981 331.522C347.45 341.459 347.841 351.403 347.999 361.372L347.585 361.406C346.212 351.546 345.077 341.639 344.015 331.747C343.469 326.81 343.006 321.842 342.484 316.911L341.086 302.053C340.647 297.09 340.233 292.132 339.843 287.18L338.804 272.302L336.905 242.534L332.934 182.986L329.167 123.432L329.581 123.398L329.61 123.379Z" fill="#006472"/>
<path d="M334.813 328.552C334.813 328.552 334.875 328.16 335.045 327.514L334.813 328.552Z" fill="#E1A82E"/>
<path d="M411.845 107.255C405.895 114.821 394.206 128.783 383.737 135.694C383.737 135.694 400.263 125.169 412.919 113.12C415.119 128.816 413.311 149.292 409.418 170.924C401.357 177.385 384.191 190.555 371.258 196.688C371.258 196.688 394.332 189.88 406.975 183.454C406.134 187.447 405.24 191.454 404.291 195.474C397.517 200.144 381.997 210.032 367.15 213.838C367.15 213.838 388.838 213.461 401.026 208.732C388.534 257.408 371.396 301.676 371.396 301.676L348.085 309.774C355.971 307.05 366.539 309.916 366.539 309.916C341.531 311.756 336.093 323.846 335.002 327.479L392.907 84.0719C403.115 86.5036 409.01 94.9658 411.807 107.196L411.845 107.255Z" fill="#BC1545"/>
<path d="M334.765 328.541L334.997 327.503C334.894 328.19 334.765 328.541 334.765 328.541Z" fill="#D38130"/>
<path d="M372.411 152.575C372.411 152.575 358.784 136.153 352.056 119.953C362.994 95.8395 376.531 80.187 392.974 84.1121L335.045 327.514C335.725 323.789 336.324 310.543 314.814 297.631C314.814 297.631 325.533 299.822 331.347 305.808L314.186 288.064C314.186 288.064 324.694 185.707 349.528 125.825C353.837 133.097 362.649 146.442 372.43 152.605L372.411 152.575Z" fill="#FF4067"/>
<path d="M331.976 347.278C333.349 342.263 334.645 337.256 335.97 332.231L339.819 317.152C341.071 312.11 342.319 307.093 343.499 302.035L346.986 286.875L353.766 256.511L367.525 195.803L381.043 135.042L380.608 134.945L365.308 195.283L350.25 255.675L342.625 285.85L338.921 300.962C337.716 306.014 336.566 311.053 335.41 316.116L332.068 331.309C331.008 336.394 329.877 341.462 328.871 346.534C327.952 350.991 327.062 355.43 326.191 359.898L328.341 360.378C329.568 356.015 330.772 351.646 331.952 347.272L331.976 347.278Z" fill="#631719"/>
<path d="M326.215 359.903C325.088 365.631 324.009 371.371 323.027 377.132L323.462 377.229C325.169 371.63 326.779 366.009 328.365 360.383L326.215 359.903Z" fill="#631719"/>
<path d="M270.53 196.266C267.407 179.933 260.793 167.763 256.019 160.641C250.978 157.665 245.615 154.77 239.816 152.005C215.416 140.45 192.049 138.805 171.151 143.134C186.53 148.19 194.664 162.296 194.664 162.296C181.828 147.672 161.169 145.821 160.796 145.788C148.531 149.612 137.308 155.468 127.465 162.418C135.071 163.331 141.287 167.405 141.287 167.405C132.823 164.881 124.151 167.151 118.445 169.425C102.354 183.113 91.1118 199.506 86.8477 213.378C86.8477 213.378 130.59 161.367 196.892 171.054C263.189 180.765 315.658 229.123 317.974 283.817C317.974 283.817 326.143 283.006 325.143 263.98C324.274 247.544 317.356 202.44 266.814 167.486C269.58 180.875 270.589 196.228 270.589 196.228L270.53 196.266Z" fill="#BC1545"/>
<path d="M227.271 179.004C134.956 145.111 86.7997 213.367 86.7997 213.367C109.402 199.587 130.491 191.905 149.976 188.679C153.697 185.076 158.165 180.397 161.809 175.662C161.809 175.662 158.327 182.055 154.403 188.046C208.023 180.939 249.151 207.633 275.783 233.953C284.88 239.431 295.137 244.711 298.563 243.221C298.563 243.221 293.505 244.98 286.34 245.154C300.437 261.175 308.706 275.134 310.641 278.505C313.38 283.273 315.915 284.295 317.945 283.836C320.853 283.193 319.61 212.902 227.295 179.009L227.271 179.004Z" fill="#FF4067"/>
<path d="M314.44 344.274C317.372 336.82 319.322 328.995 320.513 321.051C322.871 305.157 322.01 288.798 318.338 273.104L316.803 267.262C316.249 265.314 315.582 263.417 314.969 261.506C314.651 260.548 314.362 259.571 314.013 258.632L312.891 255.822L311.769 253.012L311.223 251.598C311.025 251.123 310.791 250.69 310.593 250.215C309.76 248.382 308.873 246.562 307.986 244.743C307.094 242.947 306.041 241.191 305.089 239.433L303.623 236.8L301.986 234.255C300.892 232.566 299.833 230.835 298.68 229.184C296.257 225.957 293.927 222.649 291.221 219.663L289.248 217.372L288.264 216.215L287.21 215.143L282.975 210.828C282.278 210.089 281.54 209.418 280.779 208.741L278.542 206.721C277.037 205.397 275.608 203.962 273.969 202.786L269.221 199.065L268.033 198.14L266.774 197.302L264.288 195.606C257.715 190.971 250.589 187.226 243.415 183.698C241.604 182.838 239.736 182.117 237.909 181.329C236.047 180.583 234.236 179.723 232.357 179.05C228.595 177.728 224.86 176.286 220.99 175.219C213.359 172.831 205.517 171.156 197.61 169.998C195.635 169.76 193.657 169.42 191.66 169.278L185.675 168.828C183.686 168.764 181.667 168.719 179.673 168.679L178.183 168.65L176.677 168.694L173.69 168.787C141.703 170.082 110.508 184.757 89.8019 208.893L90.2123 209.213C95.3498 203.24 101.415 198.107 107.776 193.471C114.192 188.924 121 184.895 128.208 181.69C142.536 175.21 158.148 171.728 173.792 171.395L176.72 171.339L178.197 171.314L179.657 171.361C181.616 171.444 183.581 171.503 185.535 171.61L191.373 172.153C193.311 172.332 195.259 172.691 197.175 172.967C204.91 174.213 212.556 175.971 219.992 178.442C223.754 179.536 227.376 181.029 231.055 182.383C232.88 183.069 234.637 183.943 236.446 184.701C238.219 185.503 240.033 186.237 241.791 187.111C248.756 190.668 255.629 194.408 261.925 199.032L264.315 200.706L265.496 201.552L266.636 202.466L271.166 206.138C272.727 207.323 274.06 208.735 275.522 210.025L277.662 212.023C278.375 212.689 279.089 213.355 279.738 214.083L283.707 218.34L284.712 219.4L285.629 220.517L287.458 222.775C290 225.7 292.166 228.945 294.431 232.087C303.039 244.981 309.479 259.292 313.291 274.358C313.567 275.282 313.783 276.242 313.981 277.173L314.612 280.026L315.243 282.878L315.718 285.746L316.193 288.614L316.537 291.504L316.881 294.393L317.117 297.309C317.746 305.052 317.651 312.86 316.882 320.62C316.064 328.369 314.621 336.079 312.199 343.52C310.888 347.687 309.245 351.755 307.346 355.715L308.771 356.033C310.908 352.253 312.796 348.342 314.41 344.293L314.44 344.274Z" fill="#7F1A1E"/>
<path d="M307.376 355.696C305.894 358.811 304.248 361.865 302.396 364.821L302.812 365.117C305.051 362.247 307.002 359.185 308.801 356.014L307.376 355.696Z" fill="#7F1A1E"/>
<path d="M455.882 237.656C465.657 224.204 476.819 216.003 484.17 211.588C489.998 211.04 496.083 210.701 502.507 210.666C529.505 210.588 551.352 219.039 568.423 231.847C552.354 229.88 538.992 239.186 538.992 239.186C556.83 231.412 576.314 238.525 576.666 238.654C586.139 247.332 593.804 257.406 599.756 267.883C592.484 265.474 585.126 266.517 585.126 266.517C593.859 267.833 600.742 273.577 604.939 278.061C613.678 297.295 616.879 316.913 614.837 331.281C614.837 331.281 597.375 265.603 533.25 246.165C469.12 226.751 401.064 248.195 375.701 296.708C375.701 296.708 368.653 292.499 377.652 275.706C385.43 261.2 410.878 223.324 471.488 213.191C463.289 224.131 455.845 237.597 455.845 237.597L455.882 237.656Z" fill="#BC1545"/>
<path d="M502.376 240.436C600.339 249.034 614.885 331.291 614.885 331.291C600.292 309.205 584.474 293.282 568.212 282.074C566.378 277.23 564.325 271.095 563.041 265.259C563.041 265.259 563.472 272.527 564.475 279.618C518.972 250.376 470.395 257.038 435.097 269.529C424.534 270.616 413.005 271.032 410.538 268.226C410.538 268.226 414.367 271.97 420.777 275.175C401.204 283.677 387.783 292.792 384.598 295.02C380.091 298.169 377.361 298.016 375.72 296.737C373.362 294.918 404.388 231.833 502.352 240.431L502.376 240.436Z" fill="#FF4067"/>
<path d="M354.838 376.735L355.34 376.644C354.922 373.18 354.732 369.717 354.716 366.267L353.291 365.949C353.569 369.584 354.057 373.19 354.838 376.735Z" fill="#7F1A1E"/>
<path d="M555.219 253.959L552.554 252.604L551.21 251.924L549.85 251.316C548.028 250.504 546.212 249.667 544.355 248.898L538.747 246.759C536.879 246.038 534.944 245.504 533.055 244.88C525.412 242.54 517.603 240.72 509.675 239.659C505.719 238.978 501.744 238.724 497.758 238.29C495.772 238.1 493.772 238.084 491.764 237.99C489.776 237.926 487.754 237.779 485.773 237.793C477.761 237.904 469.719 238.262 461.818 239.691L458.846 240.167L457.351 240.391L455.882 240.722L450.003 242.07C448.013 242.462 446.134 243.157 444.19 243.686L441.306 244.562C440.329 244.851 439.376 245.145 438.43 245.516L432.762 247.621L431.353 248.142L429.97 248.771L427.209 250.004C423.49 251.556 419.975 253.558 416.408 255.448C414.663 256.452 412.968 257.568 411.26 258.631L408.695 260.238L406.248 261.997C404.615 263.178 402.939 264.324 401.368 265.57C399.815 266.845 398.239 268.115 396.681 269.414C396.304 269.735 395.904 270.051 395.523 270.397L394.427 271.445L392.216 273.51L390.029 275.581C389.29 276.278 388.637 277.044 387.941 277.776C386.574 279.244 385.158 280.702 383.833 282.205L379.959 286.838C369.959 299.48 362.222 313.919 357.594 329.306C355.268 336.996 353.728 344.913 353.211 352.907C352.95 357.257 352.994 361.6 353.32 365.93L354.745 366.249C354.712 361.857 354.954 357.477 355.541 353.148C356.514 345.383 358.488 337.792 361.045 330.431C363.649 323.081 366.885 315.974 370.748 309.235L372.202 306.696L373.743 304.227L375.283 301.758L376.933 299.365L378.583 296.971L380.368 294.658L382.152 292.346C382.733 291.563 383.332 290.81 383.974 290.092C393.828 278.102 405.749 267.866 419.024 259.858C422.411 257.979 425.728 255.958 429.296 254.398L431.912 253.132L433.217 252.512L434.578 251.979L440.005 249.821C440.902 249.438 441.831 249.139 442.76 248.84L445.547 247.942C447.4 247.367 449.231 246.661 451.142 246.277L456.805 244.881L458.225 244.539L459.653 244.275L462.528 243.777C470.188 242.295 478.004 241.81 485.821 241.554C487.778 241.535 489.737 241.618 491.683 241.647C493.643 241.729 495.605 241.686 497.548 241.841C501.453 242.181 505.367 242.371 509.237 242.982C517.018 243.908 524.709 245.575 532.215 247.733C534.085 248.328 535.983 248.802 537.813 249.464L543.327 251.456C545.141 252.19 546.944 252.973 548.728 253.726L550.07 254.305L551.395 254.955L554.022 256.251C568.038 263.208 580.686 273 590.897 284.96C596.032 290.922 600.484 297.44 604.376 304.314C608.16 311.216 611.466 318.441 613.574 326.032L614.082 325.917C605.611 295.265 583.621 268.714 555.224 253.935L555.219 253.959Z" fill="#7F1A1E"/>
<path d="M534.015 227.863C530.931 230.316 524.825 236.2 521.95 245.897C521.95 245.897 522.568 235.519 527.183 228.137C524 228.312 520.859 228.523 517.775 228.823C514.116 232.491 509.068 239.65 508.295 251.742C508.295 251.742 505.218 240.995 510.417 229.638C480.796 233.286 456.174 242.029 437.519 250.963C431.533 259.712 422.347 275.525 424.766 287.291C424.766 287.291 419.234 275.16 427.768 255.907C408.021 266.549 397.284 276.137 397.284 276.137L393.869 295.291C395.013 288.806 391.393 281.055 391.393 281.055C377.587 300.753 380.767 308.203 380.767 308.203L566.208 229.274C560.519 224.431 544.277 227.671 534.034 227.892L534.015 227.863Z" fill="#FFD327"/>
<path d="M441.692 288.03C451.619 296.151 466.135 299.164 477.462 300.224C494.393 292.424 513.154 281.309 531.63 265.568C526.889 263.749 522.402 259.656 522.402 259.656C526.801 262.893 531.818 263.025 534.996 262.646C545.677 253.197 564.54 236.631 566.165 229.239L380.748 308.173C380.748 308.173 383.927 315.624 407.695 319.335C407.695 319.335 404.581 311.367 399.138 307.693L415.335 318.507C415.335 318.507 438.789 316.7 470.279 303.434C452.03 298.625 441.681 288.078 441.681 288.078L441.692 288.03Z" fill="#E5B620"/>
<path d="M527.67 245.831L482.001 266.041L436.269 286.084L413.428 296.162L401.973 301.13C398.16 302.762 394.304 304.359 390.448 305.956L378.877 310.644C375.008 312.188 371.163 313.736 367.275 315.25C359.523 318.283 351.733 321.257 343.885 324.04L343.756 323.707C351.208 319.974 358.743 316.436 366.292 312.953C370.059 311.184 373.859 309.498 377.64 307.783L389.044 302.703C392.863 301.047 396.662 299.361 400.494 297.759L412.014 292.958L435.122 283.497L481.27 264.433L527.482 245.536L527.611 245.868L527.67 245.831Z" fill="#846D39"/>
<path d="M203.527 154.063C205.274 157.595 208.297 165.518 206.775 175.516C206.775 175.516 210.606 165.856 209.593 157.217C212.4 158.73 215.152 160.257 217.816 161.84C219.567 166.717 221.09 175.343 216.645 186.615C216.645 186.615 224.002 178.198 224.129 165.708C249.384 181.61 267.948 199.997 281.03 216.019C282.725 226.482 284.312 244.701 277.117 254.32C277.117 254.32 287.285 245.695 287.752 224.64C301.095 242.672 306.734 255.917 306.734 255.917L301.676 274.704C303.4 268.349 309.973 262.873 309.973 262.873C314.088 286.573 308.041 291.963 308.041 291.963L173.797 141.621C186.435 141.124 194.327 149.5 203.503 154.058L203.527 154.063Z" fill="#FFD327"/>
<path d="M261.485 247.789C249.046 250.915 234.627 247.467 223.926 243.608C211.921 229.347 199.67 211.306 189.645 189.201C194.71 189.572 200.512 187.776 200.512 187.776C195.154 188.835 190.557 186.82 187.842 185.124C182.196 172.03 170.556 152.047 173.845 141.632L308.071 291.944C308.071 291.944 302.024 297.334 278.935 290.582C278.935 290.582 285.143 284.696 291.632 283.687L272.373 286.583C272.373 286.583 251.916 274.97 229.061 249.569C247.622 252.979 261.474 247.837 261.474 247.837L261.485 247.789Z" fill="#E5B620"/>
<path d="M201.626 173.024L234.359 210.741L267.221 248.335L283.605 267.172L291.858 276.541C294.639 279.645 297.425 282.725 300.236 285.811L308.712 294.976C311.558 298.019 314.379 301.056 317.253 304.08C322.979 310.122 328.763 316.127 334.682 321.985L334.94 321.738C329.784 315.19 324.47 308.783 319.12 302.419C316.463 299.216 313.742 296.074 311.049 292.913L302.89 283.464C300.138 280.341 297.417 277.199 294.631 274.119L286.248 264.873L269.359 246.481L235.705 209.597L201.921 172.836L201.663 173.083L201.626 173.024Z" fill="#846D39"/>
<path d="M503.896 163.565C501.364 167.637 496.766 176.873 497.474 189.143C497.474 189.143 493.947 177.003 496.181 166.657C492.605 168.139 489.114 169.691 485.69 171.283C483.001 176.966 480.146 187.25 484.217 201.387C484.217 201.387 476.286 190.342 477.588 175.2C445.191 191.507 420.576 211.578 402.903 229.398C399.641 241.846 395.599 263.699 403.2 276.216C403.2 276.216 391.899 264.596 393.795 239.071C375.554 259.324 367.179 274.685 367.179 274.685L371.099 298.011C369.74 290.131 362.442 282.724 362.442 282.724C354.7 310.922 361.405 318.146 361.405 318.146L541.324 151.981C528.01 155.165 515.568 159.102 503.92 163.57L503.896 163.565Z" fill="#1E796A"/>
<path d="M422.878 270.196C437.577 275.455 455.405 272.949 468.797 269.528C484.97 253.654 501.918 233.289 516.607 207.707C510.449 207.574 503.634 204.709 503.634 204.709C509.98 206.608 515.78 204.71 519.26 202.979C527.622 187.792 535.139 170.821 541.27 151.994L361.37 318.188C361.37 318.188 368.068 325.436 396.784 319.939C396.784 319.939 389.967 312.082 382.22 310.098L405.181 315.834C405.181 315.834 431.29 304.18 461.88 276.092C439.025 278.059 422.872 270.22 422.872 270.22L422.878 270.196Z" fill="#00B290"/>
<path d="M503.98 186.694L460.008 228.492L415.869 270.126L393.862 291.007L382.796 301.384C379.089 304.813 375.339 308.207 371.589 311.602L360.282 321.696C356.494 325.031 352.701 328.391 348.871 331.691C341.252 338.326 333.543 344.916 325.696 351.324L325.412 351.007C332.419 343.703 339.592 336.562 346.803 329.481C350.411 325.928 354.057 322.434 357.683 318.911L368.644 308.435C372.333 304.977 375.997 301.512 379.728 298.089L390.936 287.871L413.493 267.593L458.485 226.91L503.642 186.39L503.926 186.707L503.98 186.694Z" fill="#006472"/>
<path d="M258.596 108.788C259.156 113.55 259.388 123.865 253.527 134.669C253.527 134.669 261.883 125.182 264.262 114.868C266.869 117.731 269.368 120.62 271.789 123.517C271.781 129.8 270.014 140.327 260.317 151.389C260.317 151.389 272.192 144.766 277.455 130.509C299.838 159.048 313.577 187.684 321.99 211.33C319.646 223.983 314.009 245.479 301.805 253.574C301.805 253.574 316.976 247.865 326.118 223.958C334.01 250.047 335.055 267.512 335.055 267.512L321.585 286.955C326.167 280.401 335.922 276.802 335.922 276.802C330.934 305.614 321.793 309.3 321.793 309.3L229.675 82.3877C240.37 90.9334 249.955 99.789 258.596 108.788Z" fill="#1E796A"/>
<path d="M286.557 239.755C271.017 238.261 255.948 228.409 245.284 219.617C237.4 198.37 230.726 172.731 228.314 143.33C233.944 145.829 241.33 146.135 241.33 146.135C234.779 145.154 230.338 140.969 227.925 137.922C226.818 120.621 227.234 102.064 229.694 82.4173L321.807 309.354C321.807 309.354 312.661 313.064 289.012 295.873C289.012 295.873 298.523 291.662 306.379 293.163L283.159 288.586C283.159 288.586 264.488 266.932 248.752 228.5C268.6 240.002 286.552 239.779 286.552 239.779L286.557 239.755Z" fill="#00B290"/>
<path d="M248.681 129.684L270.695 186.217L292.93 242.673L303.964 270.933L309.564 285.03C311.46 289.711 313.41 294.378 315.36 299.045L321.299 312.991C323.332 317.626 325.311 322.274 327.374 326.891C331.446 336.137 335.62 345.38 339.995 354.517L340.387 354.351C337.153 344.76 333.699 335.246 330.186 325.77C328.432 321.02 326.619 316.307 324.835 311.576L319.372 297.433C317.505 292.733 315.662 288.039 313.742 283.353L307.946 269.339L296.157 241.392L272.747 185.434L249.116 129.553L248.724 129.719L248.681 129.684Z" fill="#006472"/>
<path d="M441.754 284.344C450.362 272.482 460.217 265.256 466.716 261.36C471.873 260.865 477.239 260.568 482.895 260.564C506.698 260.482 525.975 267.954 541.026 279.247C526.855 277.527 515.056 285.737 515.056 285.737C530.786 278.886 547.973 285.156 548.276 285.275C556.631 292.943 563.377 301.798 568.638 311.056C562.213 308.938 555.746 309.85 555.746 309.85C563.449 311.013 569.522 316.068 573.225 320.037C580.922 337.011 583.757 354.292 581.966 366.968C581.966 366.968 566.575 309.05 510.002 291.906C453.452 274.768 393.414 293.695 371.051 336.492C371.051 336.492 364.833 332.772 372.778 317.974C379.644 305.165 402.084 271.786 455.532 262.841C448.303 272.503 441.749 284.368 441.749 284.368L441.754 284.344Z" fill="#00B290"/>
<path d="M482.74 286.807C569.138 294.393 581.972 366.943 581.972 366.943C569.102 347.472 555.146 333.434 540.797 323.54C539.187 319.278 537.356 313.852 536.246 308.714C536.246 308.714 536.638 315.136 537.529 321.366C497.415 295.583 454.57 301.447 423.426 312.484C414.108 313.444 403.958 313.813 401.746 311.342C401.746 311.342 405.12 314.629 410.776 317.464C393.507 324.96 381.673 332.985 378.872 334.969C374.902 337.757 372.503 337.602 371.027 336.487C368.951 334.883 396.312 279.239 482.71 286.826L482.74 286.807Z" fill="#1E796A"/>
<path d="M529.346 298.735L527.004 297.528L525.818 296.933L524.621 296.387C523.006 295.672 521.396 294.932 519.77 294.265L514.817 292.373C513.156 291.749 511.462 291.27 509.785 290.718C503.044 288.655 496.153 287.04 489.158 286.112C485.691 285.515 482.167 285.285 478.651 284.906C476.887 284.74 475.14 284.73 473.36 284.636C471.6 284.573 469.826 284.455 468.073 284.469C461.021 284.592 453.926 284.909 446.933 286.134L444.302 286.56L442.987 286.773L441.679 287.064L436.498 288.238C434.747 288.582 433.088 289.2 431.383 289.681L428.827 290.453C427.986 290.696 427.117 290.958 426.308 291.284L421.325 293.162L420.082 293.619L418.871 294.159L416.443 295.264C413.17 296.637 410.063 298.401 406.929 300.058C405.39 300.93 403.902 301.916 402.395 302.872L400.126 304.291L397.95 305.857C396.524 306.907 395.036 307.893 393.647 309.001C392.277 310.14 390.889 311.249 389.519 312.387C389.177 312.666 388.836 312.944 388.49 313.247L387.523 314.171L385.594 315.996L383.665 317.82C383.02 318.437 382.437 319.117 381.816 319.739C380.613 321.041 379.366 322.309 378.181 323.64L374.755 327.741C365.949 338.9 359.104 351.613 355.031 365.197C354.926 365.554 354.845 365.916 354.74 366.273L357.832 366.963C357.915 366.703 357.998 366.443 358.082 366.183C360.391 359.705 363.233 353.447 366.642 347.493L367.925 345.271L369.298 343.094L370.672 340.918L372.131 338.811L373.59 336.704L375.16 334.673L376.729 332.641C377.234 331.969 377.769 331.277 378.342 330.645C387.018 320.064 397.53 311.034 409.244 303.996C412.228 302.331 415.161 300.553 418.308 299.178L420.633 298.075L421.796 297.524L422.991 297.056L427.776 295.16C428.56 294.828 429.382 294.555 430.198 294.307L432.657 293.513C434.29 293.016 435.901 292.388 437.579 292.027L442.572 290.786L443.832 290.484L445.099 290.26L447.633 289.813C454.396 288.485 461.284 288.072 468.177 287.863C469.906 287.843 471.637 287.926 473.355 287.955C475.091 288.013 476.796 287.988 478.541 288.124C481.971 288.434 485.433 288.599 488.863 289.137C495.729 289.961 502.502 291.423 509.125 293.332C510.76 293.849 512.44 294.275 514.082 294.87L518.965 296.619C520.573 297.257 522.14 297.962 523.742 298.624L524.92 299.14L526.087 299.705L528.416 300.858C540.79 306.992 551.943 315.64 560.947 326.19C565.482 331.434 569.417 337.204 572.831 343.262C576.162 349.353 579.075 355.73 580.926 362.428L581.38 362.326C573.901 335.291 554.507 311.879 529.475 298.84L529.346 298.735Z" fill="#006472"/>
<path d="M263.455 244.529C260.711 230.132 254.867 219.4 250.642 213.11C246.186 210.468 241.456 207.916 236.339 205.507C214.831 195.307 194.207 193.869 175.782 197.685C189.339 202.157 196.524 214.607 196.524 214.607C185.203 201.715 166.981 200.079 166.656 200.057C155.833 203.443 145.961 208.587 137.262 214.728C143.977 215.543 149.442 219.12 149.442 219.12C141.976 216.895 134.33 218.887 129.29 220.904C115.104 232.991 105.186 247.424 101.415 259.658C101.415 259.658 139.982 213.789 198.474 222.34C256.942 230.886 303.226 273.555 305.258 321.8C305.258 321.8 312.469 321.079 311.573 304.307C310.808 289.793 304.699 250.039 260.133 219.208C262.565 231.027 263.45 244.553 263.45 244.553L263.455 244.529Z" fill="#00B290"/>
<path d="M225.315 229.323C143.897 199.434 101.42 259.633 101.42 259.633C121.35 247.486 139.953 240.719 157.147 237.869C160.417 234.697 164.383 230.565 167.572 226.387C167.572 226.387 164.486 232.032 161.029 237.291C208.301 231.022 244.582 254.556 268.072 277.792C276.097 282.625 285.125 287.276 288.178 285.982C288.178 285.982 283.726 287.522 277.402 287.68C289.842 301.81 297.137 314.108 298.828 317.095C301.235 321.307 303.473 322.187 305.282 321.805C307.844 321.237 306.752 259.24 225.334 229.352L225.315 229.323Z" fill="#1E796A"/>
<path d="M307.546 354.594C309.638 340.567 308.851 326.15 305.629 312.304L304.273 307.136C303.791 305.432 303.178 303.75 302.642 302.059C302.351 301.208 302.107 300.368 301.786 299.536L300.816 297.065L299.847 294.593L299.365 293.345C299.204 292.929 298.99 292.526 298.799 292.129C298.044 290.516 297.288 288.903 296.503 287.309C295.718 285.714 294.791 284.19 293.947 282.633L292.644 280.289L291.194 278.04C290.207 276.552 289.304 275.033 288.288 273.564C286.133 270.726 284.095 267.814 281.717 265.179L279.99 263.147L279.124 262.142L278.193 261.2L274.481 257.381C273.865 256.736 273.213 256.134 272.556 255.557L270.571 253.771C269.233 252.61 267.97 251.34 266.556 250.289L262.366 247.023L261.306 246.203L260.207 245.451L258.007 243.946C252.223 239.867 245.937 236.563 239.584 233.446C237.979 232.683 236.342 232.064 234.727 231.348C233.101 230.681 231.491 229.941 229.825 229.341C226.481 228.189 223.218 226.903 219.802 225.963C213.072 223.852 206.153 222.358 199.175 221.357C197.423 221.143 195.686 220.856 193.918 220.715L188.63 220.32C186.869 220.256 185.098 220.24 183.337 220.177L182.022 220.162L180.696 220.195L178.038 220.286C149.842 221.414 122.326 234.375 104.057 255.661L104.424 255.946C108.949 250.672 114.297 246.14 119.903 242.045C125.565 238.038 131.581 234.491 137.921 231.65C150.558 225.932 164.33 222.85 178.138 222.563L180.737 222.51L182.033 222.495L183.319 222.529C185.05 222.612 186.768 222.64 188.494 222.747L193.658 223.241C195.373 223.396 197.074 223.726 198.797 223.958C205.604 225.047 212.356 226.606 218.919 228.781C222.228 229.748 225.432 231.072 228.692 232.256C230.305 232.869 231.861 233.622 233.458 234.308C235.024 235.013 236.626 235.675 238.183 236.428C244.332 239.549 250.385 242.877 255.945 246.932L258.049 248.415L259.1 249.157L260.111 249.965L264.103 253.213C265.468 254.253 266.659 255.507 267.925 256.651L269.813 258.416C270.446 258.988 271.073 259.584 271.642 260.218L275.165 263.97L276.048 264.902L276.866 265.895L278.501 267.882C280.74 270.46 282.633 273.34 284.654 276.098C292.257 287.475 297.933 300.095 301.285 313.361C301.534 314.177 301.729 315.006 301.895 315.854L302.451 318.36L303.007 320.866L303.431 323.394L303.856 325.921L304.173 328.475L304.49 331.03L304.706 333.586C305.258 340.425 305.169 347.297 304.502 354.142C304.467 354.413 304.432 354.684 304.397 354.955L307.488 355.645C307.569 355.283 307.626 354.916 307.683 354.548L307.546 354.594Z" fill="#006472"/>
<path d="M494.999 122.327C494.999 122.327 454.567 155.312 415.702 194.905C414.313 199.536 412.635 208.867 415.221 222.722C415.221 222.722 409.666 212.512 406.938 203.946C376.299 236.229 348.682 271.441 345.474 296.141C345.474 296.141 354.038 303.78 355.723 313.38L341.766 304.232C341.766 304.232 362.739 324.094 353.941 337.486L494.999 122.327Z" fill="#FF4067"/>
<path d="M395.104 328.712C405.479 318.815 414.759 308.825 423.078 298.824C418.893 299.283 403.549 300.772 394.671 298.283C394.671 298.283 417.634 299.129 426.665 294.456C453.061 261.757 469.284 229.423 479.272 201.727C475.622 201.495 465.847 200.528 457.054 196.867C457.054 196.867 471.195 199.062 481.678 194.814C483.155 190.355 484.499 186.043 485.654 181.892C476.24 185.212 464.776 185.11 464.776 185.11C474.546 182.807 482.546 177.98 487.738 174.147C495.649 142.921 495.182 122.418 495.182 122.418L353.813 337.381C362.604 324.014 389.166 335.317 389.166 335.317L375.208 326.169C384.696 323.879 395.104 328.712 395.104 328.712Z" fill="#BC1545"/>
<path d="M340.753 360.21C343.9 355.769 346.961 351.258 350.065 346.781L359.268 333.278C362.305 328.761 365.318 324.24 368.312 319.688L377.18 305.983L394.743 278.433L430.022 223.443L465.099 168.332L464.702 168.066L428.074 222.172L391.647 276.398L373.357 303.457L364.288 317.041C361.294 321.592 358.348 326.155 355.397 330.741L346.658 344.551C343.774 349.178 340.871 353.775 338.03 358.436C337.28 359.637 336.578 360.849 335.828 362.05L338.968 362.751C339.565 361.896 340.156 361.065 340.753 360.21Z" fill="#46652F"/>
<path d="M335.828 362.05C330.876 370.142 325.997 378.251 321.266 386.494L321.663 386.76C327.562 378.854 333.308 370.837 338.968 362.751L335.828 362.05Z" fill="#46652F"/>
<path d="M284.19 75.2522C284.19 75.2522 306.75 122.303 325.08 174.669C324.367 179.451 321.916 188.609 313.681 200.048C313.681 200.048 323.053 193.17 329.165 186.579C343.161 228.829 353.175 272.445 345.571 296.162C345.571 296.162 334.571 299.433 328.962 307.404L345.485 305.063C345.485 305.063 318.055 314.116 320.32 329.978L284.19 75.2522Z" fill="#FF4067"/>
<path d="M286.801 304.527C281.621 291.156 277.472 278.168 274.198 265.578C277.79 267.774 291.043 275.649 300.136 277.173C300.136 277.173 278.995 268.169 272.81 260.098C262.831 219.278 261.904 183.114 264.647 153.8C268.049 155.142 277.307 158.426 286.822 158.853C286.822 158.853 273.09 154.824 265.41 146.52C265.97 141.856 266.589 137.382 267.309 133.134C274.416 140.144 284.835 144.928 284.835 144.928C276.973 138.688 271.786 130.916 268.717 125.238C274.841 93.6134 283.986 75.2571 283.986 75.2571L320.481 329.938C318.211 314.1 289.365 313.031 289.365 313.031L305.888 310.689C298.276 304.58 286.801 304.527 286.801 304.527Z" fill="#BC1545"/>
<path d="M325.808 355.707C325.22 350.28 324.548 344.884 323.906 339.47L321.872 323.255C321.152 317.849 320.427 312.467 319.653 307.074L317.225 290.922L312.183 258.654L302.284 194.082L292.152 129.534L291.679 129.606L299.981 194.404L308.516 259.178L312.691 291.582L314.885 307.758C315.659 313.15 316.462 318.524 317.29 323.904L319.874 340.039C320.779 345.411 321.63 350.796 322.589 356.154C322.766 357.181 322.947 358.185 323.123 359.213L326.263 359.914C326.12 358.513 325.976 357.113 325.808 355.707Z" fill="#46652F"/>
<path d="M323.123 359.213C324.811 368.915 326.572 378.633 328.571 388.303L329.019 388.226C328.268 378.758 327.278 369.339 326.239 359.908L323.099 359.207L323.123 359.213Z" fill="#46652F"/>
<path d="M328.345 319.024C328.345 319.024 328.597 319.03 329.011 318.995L328.345 319.024Z" fill="#D7A233"/>
<path d="M472.551 298.595C467.239 301.261 457.319 306.622 451.868 312.069C451.868 312.069 460.258 303.452 469.114 297.295C459.794 294.175 447.094 292.91 433.418 292.72C428.531 296.773 418.444 305.492 413.158 312.471C413.158 312.471 420.058 299.518 425.48 292.721C422.936 292.761 420.386 292.825 417.825 292.938C414.15 296.45 406.28 304.55 402.201 312.939C402.201 312.939 404.996 300.082 409.34 293.349C378.142 295.2 349.086 300.292 349.086 300.292L341.376 313.242C343.979 308.857 343.48 302.233 343.48 302.233C339.387 316.928 331.346 318.757 329.011 318.995L484.438 312.475C484.162 306.104 479.707 301.638 472.556 298.571L472.551 298.595Z" fill="#FFD327"/>
<path d="M328.339 319.048L329.005 319.019C328.573 319.024 328.339 319.048 328.339 319.048Z" fill="#C97D33"/>
<path d="M440.198 316.862C440.198 316.862 448.588 326.87 457.677 332.726C473.702 328.981 484.837 322.726 484.408 312.494L328.981 319.014C331.335 319.033 339.494 320.196 344.823 334.487C344.823 334.487 344.756 327.858 341.805 323.702L350.582 335.95C350.582 335.95 414.292 341.46 453.795 333.532C449.866 330.12 442.783 323.344 440.185 316.809L440.198 316.862Z" fill="#E5B620"/>
<path d="M451.947 313.987L413.3 316.152L374.656 318.191L355.345 319.276L345.679 319.753C342.452 319.894 339.231 320.011 336.015 320.103L326.349 320.352C323.115 320.415 319.904 320.484 316.675 320.523C310.217 320.601 303.769 320.631 297.306 320.506L297.293 320.224C303.73 319.558 310.159 319.043 316.602 318.581C319.826 318.338 323.039 318.143 326.257 317.924L335.916 317.37C339.148 317.205 342.355 317.034 345.577 316.917L355.235 316.59L374.578 316.045L413.266 314.827L451.947 313.759L451.96 314.041L451.947 313.987Z" fill="#846D39"/>
<path d="M333.337 313.474C333.337 313.474 333.576 313.426 333.962 313.285L333.337 313.474Z" fill="#D7A233"/>
<path d="M467.335 256.431C462.879 260.377 454.706 268.13 450.835 274.792C450.835 274.792 456.704 264.294 463.669 256.043C453.861 255.449 441.257 257.5 428.002 260.875C424.334 266.061 416.827 277.08 413.539 285.215C413.539 285.215 416.838 270.9 420.334 262.963C417.896 263.661 415.453 264.382 412.999 265.152C410.359 269.478 404.859 279.349 403.092 288.507C403.092 288.507 402.457 275.341 404.917 267.731C375.28 277.584 348.537 290.034 348.537 290.034L344.433 304.549C345.809 299.637 343.608 293.368 343.608 293.368C343.45 308.612 336.175 312.461 333.963 313.285L482.392 266.787C480.479 260.709 475.024 257.54 467.335 256.431Z" fill="#FFD327"/>
<path d="M333.332 313.499L333.957 313.309C333.552 313.421 333.332 313.499 333.332 313.499Z" fill="#C97D33"/>
<path d="M440.811 282.436C440.811 282.436 451.514 289.919 461.8 293.255C476.312 285.498 485.457 276.568 482.393 266.787L333.963 313.285C336.247 312.705 344.43 311.72 353.271 324.134C353.271 324.134 351.476 317.753 347.562 314.497L359.22 324.069C359.22 324.069 422.188 312.917 458.279 295.054C453.616 292.771 445.007 288.061 440.811 282.436Z" fill="#E5B620"/>
<path d="M451.416 276.619L414.661 288.709L377.861 300.662L359.474 306.692L350.267 309.653C347.187 310.612 344.113 311.548 341.009 312.502L331.725 315.243C328.637 316.125 325.539 317.054 322.408 317.901C316.185 319.653 309.977 321.333 303.695 322.895L303.604 322.622C309.645 320.322 315.732 318.159 321.809 316.044C324.862 314.977 327.904 313.959 330.975 312.922L340.15 309.877C343.211 308.888 346.296 307.905 349.351 306.94L358.604 304.115L377.135 298.574L414.19 287.413L451.271 276.359L451.362 276.633L451.416 276.619Z" fill="#846D39"/>
<path d="M336.27 308.859C336.27 308.859 336.471 308.752 336.831 308.502L336.27 308.859Z" fill="#D7A233"/>
<path d="M450.901 219.084C447.635 224.056 441.737 233.661 439.723 241.092C439.723 241.092 442.68 229.437 447.247 219.662C437.63 221.62 425.984 226.874 414.044 233.558C411.849 239.53 407.468 252.108 406.386 260.812C406.386 260.812 405.857 246.148 407.169 237.547C404.999 238.862 402.799 240.195 400.648 241.539C399.235 246.393 396.458 257.353 397.139 266.678C397.139 266.678 393.121 254.125 393.536 246.134C367.46 263.32 344.845 282.266 344.845 282.266L344.646 297.35C344.697 292.242 340.973 286.774 340.973 286.774C344.777 301.535 338.754 307.158 336.825 308.527L468.144 225.215C464.729 219.841 458.629 218.2 450.895 219.108L450.901 219.084Z" fill="#FFD327"/>
<path d="M336.264 308.883L336.825 308.527C336.452 308.722 336.264 308.883 336.264 308.883Z" fill="#C97D33"/>
<path d="M432.04 251.083C432.04 251.083 444.329 255.551 455.109 256.108C467.106 244.85 473.617 233.862 468.144 225.215L336.825 308.527C338.885 307.365 346.516 304.305 358.292 314.03C358.292 314.03 354.928 308.312 350.275 306.209L364.021 312.446C364.021 312.446 421.949 285.37 452.205 258.779C447.1 257.791 437.579 255.462 432.058 251.113L432.04 251.083Z" fill="#E5B620"/>
<path d="M440.755 242.716L408.386 263.894L375.942 284.953L359.76 295.53L351.644 300.762C348.926 302.486 346.184 304.205 343.447 305.9L335.194 310.95C332.439 312.615 329.683 314.28 326.909 315.916C321.355 319.212 315.788 322.454 310.145 325.577L309.995 325.341C315.23 321.543 320.535 317.888 325.882 314.268C328.544 312.455 331.248 310.677 333.905 308.888L341.989 303.573C344.688 301.819 347.411 300.07 350.129 298.346L358.321 293.232L374.784 283.098L407.659 262.718L440.61 242.456L440.76 242.692L440.755 242.716Z" fill="#846D39"/>
<path d="M337.796 304.182C337.796 304.182 337.984 304.021 338.234 303.697L337.796 304.182Z" fill="#D7A233"/>
<path d="M425.278 187.795C423.405 193.458 420.185 204.243 420.189 211.947C420.189 211.947 420.009 199.921 421.924 189.301C413.137 193.674 403.244 201.753 393.454 211.299C392.877 217.631 391.912 230.922 393.118 239.604C393.118 239.604 388.822 225.57 387.864 216.917C386.09 218.726 384.331 220.588 382.59 222.48C382.472 227.547 382.64 238.835 385.716 247.656C385.716 247.656 378.602 236.591 376.902 228.761C356.17 252.107 339.24 276.251 339.24 276.251L342.95 290.864C341.672 285.916 336.651 281.602 336.651 281.602C344.133 294.879 339.784 301.864 338.263 303.678L443.518 189.232C438.828 184.916 432.517 184.901 425.283 187.77L425.278 187.795Z" fill="#FFD327"/>
<path d="M337.82 304.187L338.258 303.702C337.965 303.992 337.82 304.187 337.82 304.187Z" fill="#C97D33"/>
<path d="M415.333 223.584C415.333 223.584 428.343 224.715 438.913 222.463C447.587 208.487 451.044 196.184 443.489 189.251L338.234 303.697C339.921 302.047 346.501 297.105 360.376 303.447C360.376 303.447 355.629 298.814 350.6 297.944L365.492 300.408C365.492 300.408 414.411 259.284 436.757 225.758C431.579 226.122 421.768 226.338 415.315 223.554L415.333 223.584Z" fill="#E5B620"/>
<path d="M421.597 213.25L395.811 242.081L369.939 270.842L357.037 285.242L350.543 292.407C348.364 294.784 346.166 297.132 343.968 299.479L337.308 306.48C335.067 308.793 332.845 311.135 330.58 313.442C326.075 318.061 321.526 322.645 316.879 327.106L316.67 326.908C320.757 321.891 324.919 316.992 329.153 312.109C331.247 309.663 333.407 307.256 335.524 304.815L341.957 297.585C344.117 295.179 346.272 292.797 348.451 290.42L355.049 283.354L368.333 269.292L394.813 241.098L421.398 213.003L421.607 213.202L421.597 213.25Z" fill="#846D39"/>
<path d="M341.435 301.853C341.435 301.853 341.556 301.652 341.744 301.263L341.435 301.853Z" fill="#D7A233"/>
<path d="M395.786 166.791C395.445 172.745 395.137 184.003 397.128 191.442C397.128 191.442 393.855 179.866 392.933 169.118C385.576 175.609 378.136 185.985 371.128 197.723C372.213 203.996 374.719 217.074 378.137 225.16C378.137 225.16 370.345 212.701 367.179 204.62C365.95 206.829 364.735 209.092 363.52 211.355C364.726 216.286 367.806 227.136 373.052 234.87C373.052 234.87 363.316 226.006 359.659 218.88C345.665 246.796 335.575 274.495 335.575 274.495L342.934 287.642C340.426 283.205 334.451 280.325 334.451 280.325C345.127 291.223 342.71 299.096 341.725 301.233L413.749 163.453C408.096 160.493 402.001 162.122 395.767 166.761L395.786 166.791Z" fill="#FFD327"/>
<path d="M341.459 301.858L341.768 301.268C341.561 301.627 341.459 301.858 341.459 301.858Z" fill="#C97D33"/>
<path d="M395.453 203.94C395.453 203.94 408.309 201.667 417.953 196.751C422.71 181.013 422.852 168.223 413.768 163.483L341.744 301.263C342.935 299.223 348.03 292.759 363.081 295.309C363.081 295.309 357.294 292.04 352.215 292.527L367.224 291.064C367.224 291.064 403.824 238.675 416.728 200.532C411.812 202.221 402.396 204.984 395.447 203.964L395.453 203.94Z" fill="#E5B620"/>
<path d="M398.832 192.329L381.41 226.854L363.849 261.322L355.126 278.582L350.722 287.177C349.221 290.035 347.726 292.868 346.202 295.721L341.591 304.219C340.024 307.036 338.48 309.859 336.889 312.671C333.73 318.301 330.528 323.895 327.187 329.433L326.937 329.302C329.573 323.403 332.343 317.585 335.161 311.779C336.546 308.87 337.998 306.001 339.431 303.103L343.768 294.468C345.221 291.599 346.697 288.736 348.197 285.878L352.741 277.34L361.944 260.314L380.229 226.235L398.63 192.208L398.88 192.34L398.832 192.329Z" fill="#846D39"/>
<path d="M349.358 323.716C349.358 323.716 349.127 323.614 348.768 323.407L349.358 323.716Z" fill="#D7A233"/>
<path d="M227.517 243.878C231.19 248.55 237.887 257.622 240.503 264.87C240.503 264.87 236.576 253.503 231.181 244.164C240.942 245.305 252.974 249.563 265.432 255.208C268.13 260.954 273.549 273.137 275.365 281.701C275.365 281.701 274.631 267.043 272.615 258.586C274.901 259.704 277.181 260.847 279.451 262.038C281.283 266.78 284.959 277.458 285.082 286.785C285.082 286.785 288.022 273.961 286.955 266.02C314.402 280.967 338.531 297.935 338.531 297.935L340 312.935C339.51 307.859 342.779 302.077 342.779 302.077C340.232 317.117 346.732 322.192 348.744 323.402L210.855 251.383C213.815 245.734 219.746 243.587 227.522 243.854L227.517 243.878Z" fill="#E5B620"/>
<path d="M349.329 323.735L348.738 323.426C349.127 323.614 349.329 323.735 349.329 323.735Z" fill="#C97D33"/>
<path d="M249.026 274.173C249.026 274.173 237.175 279.66 226.459 281.094C213.549 270.888 206.133 260.489 210.873 251.412L348.762 323.431C346.624 322.447 338.745 320.029 327.843 330.695C327.843 330.695 330.723 324.724 335.163 322.219L322.009 329.569C322.009 329.569 262.007 307.454 229.629 283.474C234.637 282.058 243.929 278.939 249.061 274.13L249.026 274.173Z" fill="#FFD327"/>
<path d="M239.64 266.578L273.695 284.977L307.8 303.261L324.816 312.458L333.361 317.002C336.221 318.502 339.086 319.978 341.957 321.43L350.599 325.767C353.499 327.2 356.376 328.628 359.281 330.037C365.093 332.855 370.915 335.625 376.818 338.261L376.95 338.012C371.407 334.671 365.808 331.469 360.174 328.311C357.36 326.719 354.535 325.176 351.715 323.609L343.21 318.999C340.355 317.474 337.525 315.955 334.659 314.479L326.058 310.075L308.784 301.353L274.289 283.792L239.737 266.372L239.605 266.621L239.64 266.578Z" fill="#846D39"/>
<path d="M345.269 316.139C345.269 316.139 345.073 315.994 344.783 315.701L345.269 316.139Z" fill="#D7A233"/>
<path d="M248.266 207.511C250.62 212.978 254.718 223.472 255.388 231.147C255.388 231.147 254.542 219.15 251.749 208.72C260.877 212.355 271.412 219.572 281.972 228.265C283.086 234.52 285.192 247.685 284.706 256.446C284.706 256.446 287.811 242.087 288.023 233.418C289.933 235.086 291.837 236.778 293.731 238.518C294.279 243.557 295.058 254.83 292.761 263.87C292.761 263.87 298.937 252.224 299.947 244.291C322.578 265.815 341.484 288.459 341.484 288.459L339.023 303.341C339.868 298.31 344.526 293.573 344.526 293.573C338.185 307.436 343.131 314.014 344.783 315.701L230.233 210.478C234.551 205.792 240.835 205.244 248.266 207.511Z" fill="#E5B620"/>
<path d="M345.239 316.158L344.754 315.72C345.073 315.994 345.239 316.158 345.239 316.158Z" fill="#C97D33"/>
<path d="M261.184 242.324C261.184 242.324 248.314 244.543 237.586 243.187C227.752 229.993 223.274 218.021 230.209 210.473L344.759 315.696C342.938 314.199 335.952 309.827 322.669 317.3C322.669 317.3 327.009 312.289 331.935 311.007L317.314 314.711C317.314 314.711 265.071 277.832 240.007 246.312C245.198 246.23 254.994 245.63 261.184 242.324Z" fill="#FFD327"/>
<path d="M254.084 232.554L282.205 259.131L310.425 285.603L324.5 298.882L331.572 305.478C333.951 307.657 336.336 309.811 338.739 311.995L345.975 318.425C348.395 320.536 350.803 322.696 353.276 324.794C358.163 329.027 363.066 333.188 368.087 337.274L368.286 337.065C363.797 332.414 359.208 327.867 354.609 323.368C352.3 321.104 349.98 318.889 347.641 316.643L340.633 309.985C338.284 307.788 335.91 305.585 333.555 303.413L326.383 296.92L311.97 284.022L283.183 258.158L254.326 232.38L254.127 232.589L254.084 232.554Z" fill="#846D39"/>
<path d="M344.578 310.714C344.578 310.714 344.442 310.531 344.222 310.153L344.578 310.714Z" fill="#D7A233"/>
<path d="M279.026 180.704C279.867 186.593 281.118 197.794 279.78 205.376C279.78 205.376 282.062 193.57 282.087 182.781C289.958 188.643 298.262 198.353 306.224 209.482C305.671 215.82 304.285 229.067 301.561 237.404C301.561 237.404 308.278 224.359 310.75 216.016C312.154 218.129 313.578 220.271 314.953 222.403C314.167 227.397 312.018 238.497 307.434 246.647C307.434 246.647 316.411 236.995 319.434 229.587C335.723 256.232 348.13 283 348.13 283L341.893 296.735C344.02 292.091 349.716 288.726 349.716 288.726C339.995 300.467 343.053 308.118 344.216 310.177L260.813 178.917C266.19 175.506 272.408 176.616 279.021 180.728L279.026 180.704Z" fill="#E5B620"/>
<path d="M344.573 310.738L344.216 310.177C344.471 310.513 344.573 310.738 344.573 310.738Z" fill="#C97D33"/>
<path d="M282.483 217.686C282.483 217.686 269.46 216.501 259.468 212.42C253.399 197.128 252.181 184.414 260.813 178.917L344.216 310.177C342.846 308.249 337.242 302.234 322.448 306.026C322.448 306.026 327.925 302.282 333.03 302.358L317.937 302.155C317.937 302.155 277.03 253.008 260.96 216.073C266 217.35 275.608 219.293 282.454 217.705L282.483 217.686Z" fill="#FFD327"/>
<path d="M278.131 206.401L298.416 239.337L318.82 272.198L328.965 288.653L334.084 296.841C335.811 299.558 337.561 302.28 339.317 304.978L344.638 313.059C346.423 315.738 348.209 318.417 350.023 321.078C353.648 326.423 357.307 331.725 361.109 336.958L361.345 336.808C358.223 331.144 354.977 325.579 351.678 320.028C350.04 317.255 348.349 314.495 346.706 311.747L341.651 303.497C339.954 300.762 338.233 298.021 336.507 295.304L331.269 287.191L320.681 271.017L299.598 238.587L278.397 206.232L278.161 206.382L278.131 206.401Z" fill="#846D39"/>
<path d="M344.51 305.681C344.51 305.681 344.408 305.456 344.32 305.056L344.51 305.681Z" fill="#D7A233"/>
<path d="M314.849 163.135C314.136 169.057 312.462 180.188 309.181 187.159C309.181 187.159 314.459 176.352 317.244 165.925C323.336 173.621 328.852 185.14 333.651 197.944C331.48 203.921 326.723 216.365 321.914 223.704C321.914 223.704 331.772 212.83 336.321 205.408C337.156 207.799 337.956 210.233 338.727 212.685C336.678 217.321 331.725 227.466 325.188 234.14C325.188 234.14 336.334 227.152 341.203 220.789C350.035 250.737 355.085 279.789 355.085 279.789L345.511 291.436C348.773 287.502 355.152 285.733 355.152 285.733C342.732 294.566 343.697 302.738 344.301 305.027L297.73 156.677C303.811 154.766 309.529 157.437 314.855 163.111L314.849 163.135Z" fill="#E5B620"/>
<path d="M344.51 305.681L344.32 305.056C344.462 305.443 344.51 305.681 344.51 305.681Z" fill="#C97D33"/>
<path d="M308.625 199.755C308.625 199.755 296.37 195.245 287.762 188.711C285.857 172.372 287.962 159.767 297.749 156.707L344.32 305.056C343.495 302.845 339.642 295.573 324.388 295.41C324.388 295.41 330.655 293.237 335.576 294.589L321.05 290.484C321.05 290.484 294.273 232.457 288.311 192.609C292.843 195.141 301.63 199.511 308.654 199.736L308.625 199.755Z" fill="#FFD327"/>
<path d="M307.352 187.739L318.424 224.8L329.603 261.834L335.154 280.356L337.983 289.603C338.944 292.681 339.934 295.74 340.925 298.799L343.974 307.969C345.018 311.015 346.033 314.08 347.101 317.131C349.214 323.228 351.38 329.312 353.688 335.326L353.962 335.235C352.397 328.956 350.714 322.752 348.959 316.532C348.106 313.427 347.174 310.331 346.297 307.221L343.551 297.941C342.619 294.845 341.683 291.772 340.722 288.694L337.756 279.492L331.716 261.115L319.745 224.335L307.637 187.599L307.363 187.69L307.352 187.739Z" fill="#846D39"/>
<path d="M344.188 302.467C344.188 302.467 344.164 302.234 344.159 301.802L344.188 302.467Z" fill="#D7A233"/>
<path d="M352.455 157.115C350.231 162.649 345.72 172.968 340.754 178.853C340.754 178.853 348.641 169.769 354.047 160.435C357.944 169.439 360.263 181.993 361.612 195.598C357.962 200.814 350.131 211.583 343.598 217.447C343.598 217.447 355.949 209.487 362.252 203.52C362.424 206.042 362.561 208.607 362.699 211.171C359.509 215.121 352.107 223.63 344.069 228.398C344.069 228.398 356.65 224.518 362.992 219.624C363.78 250.841 361.129 280.201 361.129 280.201L348.876 288.969C353.034 286.021 359.667 285.956 359.667 285.956C345.369 291.277 344.207 299.431 344.189 301.783L337.618 146.453C343.994 146.179 348.816 150.246 352.485 157.096L352.455 157.115Z" fill="#E5B620"/>
<path d="M344.164 302.462L344.135 301.797C344.17 302.21 344.164 302.462 344.164 302.462Z" fill="#C97D33"/>
<path d="M336.954 190.877C336.954 190.877 326.285 183.351 319.649 174.799C322.039 158.533 327.351 146.897 337.589 146.472L344.159 301.802C343.949 299.449 342.088 291.432 327.382 287.337C327.382 287.337 334.01 286.84 338.399 289.442L325.439 281.734C325.439 281.734 314.602 218.752 319.149 178.742C322.88 182.362 330.226 188.868 336.948 190.901L336.954 190.877Z" fill="#FFD327"/>
<path d="M338.835 178.931L339.915 217.588L341.145 256.252L341.697 275.583L342.027 285.235C342.169 288.46 342.316 291.66 342.482 294.89L343.04 304.542C343.26 307.759 343.456 310.97 343.7 314.192C344.164 320.631 344.682 327.056 345.35 333.489L345.632 333.476C345.756 327.017 345.724 320.573 345.644 314.119C345.628 310.898 345.534 307.684 345.47 304.451L345.218 294.791C345.124 291.578 345.006 288.358 344.864 285.134L344.384 275.474L343.298 256.15L341.246 217.53L339.069 178.908L338.787 178.921L338.835 178.931Z" fill="#846D39"/>
<path d="M360.371 156.982C361.582 162.802 364.203 173.776 368.041 180.436C368.041 180.436 361.882 170.09 358.208 159.97C352.778 168.159 348.261 180.099 344.561 193.26C347.224 199.049 353.041 211.042 358.422 217.945C358.422 217.945 347.673 207.943 342.517 200.938C341.89 203.408 341.31 205.888 340.731 208.369C343.162 212.814 348.956 222.521 356.035 228.637C356.035 228.637 344.323 222.601 338.955 216.664C332.684 247.242 330.106 276.618 330.106 276.618L340.624 287.43C337.049 283.794 330.533 282.542 330.533 282.542C343.657 290.312 343.368 298.534 342.977 300.854L376.857 149.133C370.649 147.747 365.181 150.885 360.347 156.976L360.371 156.982Z" fill="#FFD327"/>
<path d="M369.767 192.579C369.767 192.579 381.598 187.062 389.633 179.81C390.158 163.38 386.99 150.991 376.991 148.758L343.111 300.478C343.744 298.212 346.98 290.649 362.187 289.205C362.187 289.205 355.762 287.542 350.975 289.337L365.093 284.026C365.093 284.026 386.878 223.944 389.458 183.774C385.155 186.69 376.77 191.761 369.791 192.584L369.767 192.579Z" fill="#E5B620"/>
<path d="M371.69 173.066L363.791 210.934L355.773 248.775L351.823 267.708L349.788 277.162C349.088 280.3 348.382 283.461 347.633 286.588L345.356 295.988C344.583 299.109 343.829 302.26 343.007 305.371C341.407 311.628 339.765 317.849 337.996 324.068L337.73 324.008C338.75 317.623 339.91 311.293 341.148 304.956C341.752 301.797 342.385 298.619 343.013 295.465L344.952 285.99C345.628 282.847 346.31 279.679 347.011 276.542L349.191 267.12L353.671 248.305L362.511 210.648L371.472 173.017L371.738 173.077L371.69 173.066Z" fill="#846D39"/>
<path d="M531.753 317.593C531.753 317.593 525.588 383.924 479.568 407.299C433.548 430.674 387.868 421.639 366.284 418.365C344.677 415.085 320.266 434.011 320.266 434.011C320.266 434.011 335.826 403.505 345.172 394.924C354.518 386.343 366.408 378.178 403.667 384.953C440.926 391.727 467.795 383.03 481.915 342.852L531.748 317.617L531.753 317.593Z" fill="#FF4067"/>
<path d="M333.793 408.524C335.869 400.93 341.246 394.453 348.288 389.944C355.365 385.392 364.004 383.039 372.664 382.185C377 381.734 381.405 381.654 385.74 381.887C387.932 381.946 390.082 382.198 392.254 382.353L398.674 383.128C406.782 384.178 414.863 385.121 422.763 385.289C430.651 385.505 438.382 384.951 445.189 382.974C452.014 381.026 457.538 377.749 462.271 373.586C466.986 369.394 471.108 364.106 474.616 358.048C478.167 352.024 481.174 345.372 484.195 338.546L484.119 339.112C484.747 336.642 485.423 334.183 486.152 331.711C486.93 329.249 487.678 326.806 488.631 324.358L490.322 324.508C490.939 327.078 491.402 329.665 491.845 332.222C492.283 334.803 492.63 337.338 492.947 339.892L492.871 340.458C492.664 344.34 492.368 348.277 491.631 352.142C490.986 356.052 489.974 359.906 488.655 363.767C487.342 367.604 485.553 371.411 483.317 375.068C481.056 378.719 478.27 382.227 474.823 385.283C471.401 388.345 467.329 390.908 462.933 392.764C458.556 394.65 453.904 395.841 449.329 396.568C440.113 397.982 431.108 397.77 422.428 396.896C413.729 395.992 405.291 394.488 397.028 392.542L391.11 391.22C389.151 390.909 387.189 390.497 385.238 390.264C381.309 389.69 377.364 389.417 373.466 389.383C365.647 389.31 357.899 390.62 351.07 393.834C347.665 395.455 344.561 397.55 341.858 400.114C339.19 402.635 336.842 405.658 335.424 408.939L333.774 408.495L333.793 408.524Z" fill="#CE2450"/>
<path d="M531.724 317.612C533.621 314.792 535.471 311.733 537.277 308.412C537.277 308.412 532.042 315.96 516.242 316.764C517.13 320.738 517.625 324.878 517.603 329.181C516.841 410.605 436.673 408.388 373.831 419.543C397.465 423.174 438.355 428.225 479.544 407.293C525.564 383.919 531.729 317.588 531.729 317.588L531.724 317.612Z" fill="#CE2450"/>
<path d="M169.335 236.663C169.335 236.663 146.697 299.316 178.402 340.047C210.107 380.778 255.291 392.034 276.217 398.252C297.167 404.476 311.208 431.988 311.208 431.988C311.208 431.988 310.103 397.761 305.295 386.019C300.487 374.278 293.2 361.83 256.599 352.111C219.997 342.392 199.381 323.091 203.694 280.723L169.329 236.687L169.335 236.663Z" fill="#FF4067"/>
<path d="M309.808 403.169C311.16 395.412 309.049 387.263 304.595 380.187C300.126 373.057 293.308 367.252 285.834 362.795C282.102 360.543 278.15 358.596 274.128 356.963C272.118 356.084 270.065 355.397 268.034 354.614L261.894 352.584C254.11 350.086 246.395 347.501 239.174 344.293C231.943 341.132 225.182 337.342 219.864 332.657C214.515 327.991 210.91 322.676 208.397 316.895C205.914 311.095 204.433 304.556 203.835 297.581C203.183 290.619 203.292 283.32 203.462 275.857L203.29 276.401C203.773 273.899 204.207 271.386 204.598 268.838C204.942 266.28 205.304 263.75 205.483 261.13L203.889 260.546C202.237 262.609 200.718 264.754 199.229 266.879C197.735 269.029 196.342 271.176 194.969 273.352L194.797 273.897C193.333 277.498 191.926 281.187 190.948 284.998C189.869 288.811 189.146 292.729 188.697 296.785C188.253 300.816 188.252 305.022 188.721 309.283C189.213 313.548 190.243 317.909 192.062 322.141C193.856 326.368 196.451 330.419 199.64 333.969C202.798 337.538 206.503 340.595 210.333 343.199C218.073 348.399 226.313 352.038 234.54 354.939C242.797 357.822 251.073 360.05 259.379 361.804L265.297 363.125C267.202 363.677 269.153 364.138 271.018 364.758C274.818 365.91 278.505 367.342 282.046 368.969C289.154 372.228 295.608 376.71 300.421 382.524C302.813 385.44 304.732 388.656 306.087 392.126C307.429 395.542 308.268 399.277 308.155 402.85L309.838 403.15L309.808 403.169Z" fill="#CE2450"/>
<path d="M169.329 236.687C168.812 233.328 168.439 229.773 168.217 225.999C168.217 225.999 169.744 235.057 183.701 242.506C181.207 245.725 178.998 249.261 177.188 253.164C143.239 327.178 216.734 359.275 268.862 396.103C245.928 389.335 206.774 376.512 178.402 340.047C146.697 299.316 169.335 236.663 169.335 236.663L169.329 236.687Z" fill="#CE2450"/>
<path d="M367.943 288.184C353.585 293.771 341.806 316.202 341.806 316.202L313.941 440.986C314.065 440.659 359.87 268.01 452.431 296.941C429.978 287.796 395.047 277.639 367.943 288.184Z" fill="#BC1545"/>
<path d="M458.457 300.161C399.866 270.252 351.328 297.068 341.806 316.202C341.328 294.835 308.808 249.918 243.059 252.062C172.997 254.332 168.217 225.999 168.217 225.999C172.303 298.09 233.548 289.316 271.829 312.181C310.11 335.047 305.795 385.143 304.449 408.433C303.102 431.724 313.995 440.745 313.995 440.745C313.995 440.745 327.661 437.233 336.379 415.564C345.098 393.894 362.474 346.74 406.846 342.331C451.217 337.923 502.912 371.917 537.277 308.412C537.277 308.412 520.894 332.044 458.457 300.161Z" fill="#BC1545"/>
<path d="M330.071 279.727C340.688 290.891 341.806 316.202 341.806 316.202L313.941 440.986C313.968 440.637 345.958 264.904 249.883 251.71C274.093 252.986 310.027 258.654 330.071 279.727Z" fill="#BC1545"/>
<path d="M358.485 365.741C359.702 361.882 361.833 358.354 364.241 355.066C366.716 351.817 369.545 348.8 372.782 346.229C376 343.628 379.535 341.427 383.259 339.623C387.008 337.825 390.955 336.502 394.952 335.52C403.002 333.541 411.317 333.321 419.396 334.162C427.488 335.056 435.357 337.067 442.784 340.144C434.815 339.151 426.957 338.232 419.138 338.158C411.343 338.09 403.588 338.639 396.129 340.47C392.405 341.362 388.748 342.522 385.244 344.02C381.74 345.518 378.346 347.319 375.133 349.44C371.927 351.537 368.897 353.977 366.108 356.699C363.295 359.416 360.705 362.385 358.49 365.717L358.485 365.741ZM305.662 353.945C306.202 349.935 305.774 345.836 304.993 341.835C304.135 337.843 302.858 333.909 301.023 330.205C299.217 326.482 296.955 322.987 294.351 319.77C291.724 316.548 288.714 313.671 285.514 311.082C279.072 305.867 271.64 302.13 263.97 299.454C256.266 296.822 248.29 295.294 240.259 294.92C247.894 297.41 255.397 299.922 262.504 303.181C269.588 306.435 276.373 310.231 282.344 315.061C285.334 317.452 288.15 320.058 290.685 322.904C293.219 325.751 295.524 328.825 297.529 332.11C299.539 335.372 301.244 338.869 302.609 342.519C303.999 346.174 305.08 349.963 305.667 353.921L305.662 353.945Z" fill="#910030"/>
<path d="M458.457 300.161C455.659 298.726 452.901 297.451 450.151 296.254C450.913 296.475 451.651 296.69 452.437 296.916C429.983 287.772 395.052 277.615 367.948 288.16C356.117 292.765 346.048 308.787 342.868 314.285C342.47 314.931 342.126 315.564 341.811 316.178C341.788 315.488 341.746 314.769 341.66 314.015C341.126 307.663 338.824 288.904 330.076 279.703C310.052 258.659 274.099 252.962 249.888 251.686C250.677 251.786 251.461 251.911 252.239 252.059C249.247 251.948 246.203 251.953 243.059 252.062C239.052 252.18 235.264 252.221 231.678 252.156C245.632 256.893 259.513 262.071 271.57 271.098C309.164 300.221 322.755 350.414 323.502 398.168C344.523 355.249 378.145 315.625 424.557 305.261C439.309 302.22 454.074 303.44 468.718 305.088C465.444 303.622 462.034 301.974 458.457 300.161Z" fill="#910030"/>
<path d="M366.222 300.09C367.596 300.397 368.959 299.532 369.265 298.159C369.572 296.786 368.707 295.425 367.333 295.118C365.959 294.811 364.596 295.675 364.29 297.048C363.983 298.421 364.848 299.783 366.222 300.09Z" fill="#FFD327"/>
<path d="M384.023 295.095C385.397 295.401 386.759 294.537 387.066 293.164C387.373 291.791 386.507 290.429 385.133 290.123C383.76 289.816 382.397 290.68 382.091 292.053C381.784 293.426 382.649 294.788 384.023 295.095Z" fill="#FFD327"/>
<path d="M404.821 294.164C406.195 294.471 407.558 293.607 407.864 292.234C408.171 290.861 407.306 289.499 405.932 289.192C404.558 288.885 403.195 289.75 402.889 291.123C402.582 292.496 403.447 293.857 404.821 294.164Z" fill="#FFD327"/>
<path d="M428.226 299.391C429.6 299.697 430.962 298.833 431.269 297.46C431.575 296.087 430.71 294.725 429.336 294.419C427.962 294.112 426.6 294.976 426.293 296.349C425.987 297.722 426.852 299.084 428.226 299.391Z" fill="#FFD327"/>
<path d="M452.063 310.288C453.437 310.595 454.799 309.731 455.106 308.358C455.412 306.985 454.547 305.623 453.173 305.316C451.799 305.009 450.437 305.874 450.13 307.247C449.823 308.62 450.689 309.981 452.063 310.288Z" fill="#FFD327"/>
<path d="M472.042 319.159C473.415 319.466 474.778 318.601 475.084 317.228C475.391 315.855 474.526 314.494 473.152 314.187C471.778 313.88 470.415 314.744 470.109 316.117C469.802 317.49 470.668 318.852 472.042 319.159Z" fill="#FFD327"/>
<path d="M492.452 325.642C493.826 325.949 495.188 325.085 495.495 323.712C495.802 322.339 494.936 320.977 493.562 320.67C492.188 320.363 490.826 321.228 490.519 322.601C490.213 323.974 491.078 325.336 492.452 325.642Z" fill="#FFD327"/>
<path d="M513.662 325.818C515.036 326.124 516.399 325.26 516.705 323.887C517.012 322.514 516.147 321.152 514.773 320.846C513.399 320.539 512.036 321.403 511.73 322.776C511.423 324.149 512.289 325.511 513.662 325.818Z" fill="#FFD327"/>
<path d="M326.587 291.239C327.961 291.546 329.323 290.682 329.63 289.309C329.937 287.936 329.071 286.574 327.697 286.267C326.323 285.96 324.961 286.825 324.654 288.198C324.348 289.571 325.213 290.932 326.587 291.239Z" fill="#FFD327"/>
<path d="M312.578 279.141C313.952 279.447 315.314 278.583 315.621 277.21C315.928 275.837 315.062 274.475 313.688 274.168C312.314 273.862 310.952 274.726 310.645 276.099C310.339 277.472 311.204 278.834 312.578 279.141Z" fill="#FFD327"/>
<path d="M294.151 269.451C295.525 269.758 296.888 268.893 297.194 267.52C297.501 266.148 296.636 264.786 295.262 264.479C293.888 264.172 292.525 265.036 292.219 266.409C291.912 267.782 292.777 269.144 294.151 269.451Z" fill="#FFD327"/>
<path d="M270.771 264.23C272.145 264.537 273.507 263.673 273.814 262.3C274.121 260.927 273.255 259.565 271.881 259.258C270.507 258.951 269.145 259.815 268.838 261.188C268.532 262.561 269.397 263.923 270.771 264.23Z" fill="#FFD327"/>
<path d="M244.538 263.947C245.912 264.254 247.275 263.389 247.581 262.016C247.888 260.643 247.023 259.282 245.649 258.975C244.275 258.668 242.912 259.532 242.606 260.905C242.299 262.278 243.165 263.64 244.538 263.947Z" fill="#FFD327"/>
<path d="M222.708 263.481C224.082 263.788 225.445 262.924 225.751 261.551C226.058 260.178 225.192 258.816 223.818 258.509C222.445 258.202 221.082 259.067 220.776 260.44C220.469 261.813 221.334 263.174 222.708 263.481Z" fill="#FFD327"/>
<path d="M201.454 260.661C202.828 260.968 204.191 260.103 204.497 258.73C204.804 257.357 203.939 255.996 202.565 255.689C201.191 255.382 199.828 256.246 199.522 257.619C199.215 258.992 200.08 260.354 201.454 260.661Z" fill="#FFD327"/>
<path d="M182.184 251.797C183.558 252.103 184.921 251.239 185.227 249.866C185.534 248.493 184.668 247.131 183.294 246.825C181.921 246.518 180.558 247.382 180.252 248.755C179.945 250.128 180.81 251.49 182.184 251.797Z" fill="#FFD327"/>
<path d="M427.153 246.622L415.245 265.653L422.74 247.309C414.066 248.792 404.644 251.351 395.415 255.549L389.84 279.948L389.682 258.399C387.692 259.475 385.71 260.629 383.779 261.896C374.027 268.207 365.423 275.053 358.296 281.874L367.05 301.947L354.911 285.224C340.121 300.47 333.215 315.272 338.56 323.586L448.643 252.358C448.643 252.358 444.941 244.183 427.153 246.622Z" fill="#1E796A"/>
<path d="M358.258 281.815L354.868 285.189L354.916 285.199C355.993 284.122 357.13 283.008 358.296 281.874L358.258 281.815Z" fill="#8F8E8B"/>
<path d="M337.757 324.116C336.125 323.245 334.964 321.972 333.927 320.6C332.889 319.228 332.407 317.524 331.885 315.887C331.363 314.25 330.925 312.581 330.832 310.837C330.759 309.123 330.9 307.355 331.508 305.768L331.773 305.827C331.581 307.482 331.76 309.068 332.177 310.605C332.57 312.138 333.232 313.603 333.899 315.044C334.591 316.491 335.66 317.718 336.268 319.197C336.93 320.662 337.533 322.165 337.926 323.926L337.708 324.105L337.757 324.116Z" fill="#D17B33"/>
<path d="M445.03 274.332L423.319 274.577L442.592 278.095C437.668 285.383 431.485 292.972 423.856 299.656L418.916 303.723C417.113 305.094 415.244 306.425 413.313 307.691C403.561 314.003 393.813 319.048 384.648 322.728L369.969 306.476L380.207 324.448C360.26 331.675 343.929 331.905 338.584 323.591L448.667 252.363C448.667 252.363 454.567 259.104 445.054 274.337L445.03 274.332Z" fill="#00B290"/>
<path d="M337.762 324.092C337.886 325.919 338.564 327.54 339.4 329.019C340.231 330.522 341.599 331.664 342.865 332.808C344.155 333.957 345.485 335.04 347.031 335.841C348.582 336.618 350.224 337.213 351.931 337.29L351.99 337.025C350.404 336.519 349.015 335.701 347.794 334.694C346.544 333.705 345.469 332.502 344.471 331.291C343.45 330.075 342.74 328.599 341.659 327.42C340.584 326.217 339.479 325.033 338.017 323.971L337.762 324.092Z" fill="#C85B34"/>
<path d="M258.931 234.244L277.978 246.15L259.619 238.655C261.107 247.324 263.67 256.74 267.873 265.965L292.289 271.544L270.727 271.695C271.804 273.684 272.959 275.666 274.227 277.596C280.545 287.343 287.399 295.944 294.226 303.068L314.309 294.326L297.579 306.452C312.839 321.238 327.652 328.144 335.97 322.805L264.664 212.77C264.664 212.77 256.485 216.467 258.931 234.244Z" fill="#1E796A"/>
<path d="M286.653 216.387L286.905 238.084L290.42 218.825C297.714 223.748 305.31 229.929 312 237.556L316.07 242.493C317.443 244.295 318.776 246.164 320.044 248.094C326.362 257.842 331.413 267.585 335.098 276.745L318.84 291.41L336.82 281.184C344.058 301.121 344.293 317.441 335.975 322.78L264.67 212.745C264.67 212.745 271.418 206.828 286.658 216.363L286.653 216.387Z" fill="#00B290"/>
<path d="M335.157 276.707L336.874 281.17L336.815 281.208C336.279 279.745 335.695 278.272 335.117 276.774L335.176 276.737L335.157 276.707Z" fill="#8F8E8B"/>
<path d="M336.477 323.602C338.305 323.478 339.927 322.801 341.406 321.966C342.91 321.136 344.052 319.769 345.197 318.505C346.347 317.216 347.43 315.886 348.231 314.342C349.008 312.793 349.603 311.152 349.679 309.446L349.414 309.386C348.908 310.971 348.09 312.36 347.083 313.579C346.094 314.828 344.896 315.878 343.679 316.899C342.462 317.919 340.985 318.628 339.806 319.708C338.602 320.782 337.418 321.886 336.356 323.347L336.477 323.602Z" fill="#C85B34"/>
<path d="M345.927 214.851L350.981 236.732L343.299 218.445C338.222 225.623 333.364 234.091 329.799 243.583L343.121 264.777L327.762 249.64C327.127 251.804 326.529 254.027 326.052 256.277C323.62 267.619 322.373 278.541 322.174 288.404L342.575 296.406L322.151 293.163C322.481 314.395 328.078 329.759 337.755 331.844L365.161 203.663C365.161 203.663 356.765 200.496 345.914 214.797L345.927 214.851Z" fill="#1E796A"/>
<path d="M378.172 221.823L362.992 237.337L379.094 226.21C380.791 234.85 381.765 244.57 381.122 254.714L380.51 261.09C380.213 263.329 379.832 265.601 379.355 267.851C376.924 279.192 373.594 289.674 369.743 298.747L347.883 297.616L367.811 303.08C358.827 322.308 347.446 333.983 337.768 331.898L365.175 203.717C365.175 203.717 374.123 204.296 378.172 221.823Z" fill="#00B290"/>
<path d="M371.706 332.609L346.245 292.539L306.157 317.971L331.618 358.041L371.706 332.609Z" fill="#FFD327"/>
<g style="mix-blend-mode:overlay">
<path d="M345.076 297.699L311.26 319.111L332.954 351.981L324.139 321.506L345.076 297.699Z" fill="#FFD327"/>
</g>
</g>
</g>
<defs>
<filter id="filter0_d_1092_6856" x="76.7997" y="71.3556" width="548.631" height="387.631" filterUnits="userSpaceOnUse" color-interpolation-filters="sRGB">
<feFlood flood-opacity="0" result="BackgroundImageFix"/>
<feColorMatrix in="SourceAlpha" type="matrix" values="0 0 0 0 0 0 0 0 0 0 0 0 0 0 0 0 0 0 127 0" result="hardAlpha"/>
<feOffset dy="8"/>
<feGaussianBlur stdDeviation="5"/>
<feColorMatrix type="matrix" values="0 0 0 0 0 0 0 0 0 0 0 0 0 0 0 0 0 0 0.5 0"/>
<feBlend mode="normal" in2="BackgroundImageFix" result="effect1_dropShadow_1092_6856"/>
<feBlend mode="normal" in="SourceGraphic" in2="effect1_dropShadow_1092_6856" result="shape"/>
</filter>
<clipPath id="clip0_1092_6856">
<rect width="615.93" height="439.811" fill="white" transform="translate(95.8515) rotate(12.5879)"/>
</clipPath>
</defs>
</svg>
