<svg width="1045" height="344" viewBox="0 0 1045 344" fill="none" xmlns="http://www.w3.org/2000/svg">
<g filter="url(#filter0_d_1095_8346)">
<path d="M30.011 184.08C42.4223 163.347 54.5776 142.503 66.4726 121.6C47.7195 119.461 28.9587 117.079 10.2357 114.494C16.5601 137.721 23.1574 160.914 30.0151 184.096L30.011 184.08Z" fill="#FF4067"/>
<path d="M30.011 184.08L37.2235 118.055L66.4519 121.587L30.011 184.08Z" fill="#CE2450"/>
<path d="M93.3369 191.24C105.195 170.188 116.785 149.044 128.11 127.826C109.319 126.171 90.5442 124.301 71.7828 122.2C78.6946 145.246 85.8793 168.259 93.3245 191.261L93.3369 191.24Z" fill="#00CFAC"/>
<path d="M93.3369 191.24L99.9956 125.176L128.11 127.826L93.3369 191.24Z" fill="#00B290"/>
<path d="M156.75 196.764C168.042 175.413 179.066 153.97 189.83 132.469C171.021 131.31 152.225 129.92 133.445 128.315C140.945 151.18 148.713 173.996 156.754 196.78L156.75 196.764Z" fill="#FFD327"/>
<path d="M156.75 196.764L160.871 130.52L189.843 132.448L156.75 196.764Z" fill="#EFBB14"/>
<path d="M220.237 200.601C230.964 178.951 241.414 157.246 251.616 135.463C232.806 134.796 213.992 133.902 195.191 132.776C203.269 155.428 211.621 178.047 220.237 200.601Z" fill="#FF4067"/>
<path d="M220.237 200.601L223.412 134.223L251.6 135.467L220.237 200.601Z" fill="#CE2450"/>
<path d="M283.724 202.805C293.877 180.893 303.749 158.911 313.378 136.865C294.566 136.69 275.747 136.271 256.944 135.637C265.602 158.076 274.545 180.461 283.72 202.789L283.724 202.805Z" fill="#00CFAC"/>
<path d="M283.724 202.805L284.737 136.418L313.382 136.882L283.724 202.805Z" fill="#00B290"/>
<path d="M347.223 203.356C356.786 181.187 366.105 158.955 375.13 136.672C356.334 136.985 337.53 137.054 318.71 136.916C327.943 159.124 337.44 181.267 347.207 203.36L347.223 203.356Z" fill="#FFD327"/>
<path d="M347.223 203.356L346.008 136.975L375.147 136.668L347.223 203.356Z" fill="#EFBB14"/>
<path d="M410.686 202.266C419.678 179.851 428.394 157.382 436.854 134.871C418.073 135.671 399.284 136.228 380.48 136.578C390.284 158.539 400.348 180.419 410.681 202.25L410.686 202.266Z" fill="#FF4067"/>
<path d="M410.686 202.266L408.718 135.896L436.854 134.871L410.686 202.266Z" fill="#CE2450"/>
<path d="M474.069 199.51C482.463 176.875 490.597 154.181 498.462 131.465C479.713 132.75 460.943 133.811 442.171 134.644C452.541 156.343 463.173 177.959 474.053 199.514L474.069 199.51Z" fill="#00CFAC"/>
<path d="M474.069 199.51L469.415 133.278L498.479 131.461L474.069 199.51Z" fill="#00B290"/>
<path d="M537.35 195.129C545.165 172.286 552.704 149.388 559.979 126.485C541.278 128.249 522.54 129.793 503.799 131.111C514.733 152.53 525.911 173.87 537.35 195.129Z" fill="#FFD327"/>
<path d="M537.35 195.129L531.807 128.432L559.975 126.468L537.35 195.129Z" fill="#EFBB14"/>
<path d="M600.502 189.095C607.723 166.047 614.659 142.982 621.338 119.875C602.669 122.123 584.001 124.16 565.292 125.961C576.768 147.087 588.504 168.132 600.502 189.095Z" fill="#FF4067"/>
<path d="M600.502 189.095L593.358 123.092L621.338 119.875L600.502 189.095Z" fill="#CE2450"/>
<path d="M663.48 181.435C670.094 158.204 676.443 134.968 682.52 111.694C663.92 114.434 645.279 116.938 626.639 119.231C638.67 140.045 650.945 160.781 663.476 181.418L663.48 181.435Z" fill="#00CFAC"/>
<path d="M653.454 115.776L663.48 181.435L682.537 111.69L653.454 115.776Z" fill="#00B290"/>
<path d="M726.26 172.121C732.275 148.74 738.017 125.321 743.499 101.913C724.964 105.128 706.392 108.124 687.805 110.914C700.374 131.419 713.199 151.826 726.26 172.121Z" fill="#FFD327"/>
<path d="M726.26 172.121L715.379 106.622L743.499 101.913L726.26 172.121Z" fill="#EFBB14"/>
<path d="M788.817 161.195C794.233 137.663 799.363 114.114 804.246 90.5567C785.797 94.2599 767.294 97.748 748.767 100.996C761.866 121.16 775.222 141.225 788.817 161.195Z" fill="#FF4067"/>
<path d="M788.817 161.195L775.665 96.0989L804.246 90.5567L788.817 161.195Z" fill="#CE2450"/>
<path d="M851.105 148.615C855.905 124.937 860.445 101.271 864.72 77.5998C846.356 81.791 827.936 85.7505 809.494 89.4868C823.123 109.308 836.988 129.019 851.105 148.615Z" fill="#00CFAC"/>
<path d="M851.105 148.615L837.085 83.4874L864.704 77.6039L851.105 148.615Z" fill="#00B290"/>
<path d="M913.099 134.421C917.292 110.63 921.221 86.8347 924.876 63.0713C906.61 67.7298 888.291 72.1732 869.919 76.4016C884.07 95.8484 898.46 115.201 913.083 134.426L913.099 134.421Z" fill="#FFD327"/>
<path d="M913.099 134.421L897.159 69.9797L924.876 63.0713L913.099 134.421Z" fill="#EFBB14"/>
<path d="M974.763 118.607C978.348 94.7029 981.661 70.8312 984.709 46.9547C966.546 52.0971 948.329 57.0244 930.059 61.7367C944.715 80.8127 959.606 99.7778 974.746 118.611L974.763 118.607Z" fill="#FF4067"/>
<path d="M974.763 118.607L957.433 54.5091L984.713 46.9712L974.763 118.607Z" fill="#CE2450"/>
<path d="M1036.06 101.163C1039.03 77.183 1041.74 53.2147 1044.17 29.2788C1026.13 34.901 1008.01 40.3122 989.864 45.5042C1005.02 64.193 1020.43 82.7501 1036.06 101.18L1036.06 101.163Z" fill="#00CFAC"/>
<path d="M1036.06 101.163L1017.06 37.5486L1044.17 29.2787L1036.06 101.163Z" fill="#00B290"/>
<path d="M908.29 68.9823C784.767 99.536 658.747 120.208 532.042 130.656C358.311 144.976 182.66 140.107 10 116.168L10.4631 112.788C354.651 160.488 711.92 131.039 1043.67 27.6488L1044.68 30.9087C999.645 44.9458 954.135 57.6424 908.306 68.9782L908.29 68.9823Z" fill="white"/>
</g>
<defs>
<filter id="filter0_d_1095_8346" x="0" y="25.6488" width="1054.68" height="195.712" filterUnits="userSpaceOnUse" color-interpolation-filters="sRGB">
<feFlood flood-opacity="0" result="BackgroundImageFix"/>
<feColorMatrix in="SourceAlpha" type="matrix" values="0 0 0 0 0 0 0 0 0 0 0 0 0 0 0 0 0 0 127 0" result="hardAlpha"/>
<feOffset dy="8"/>
<feGaussianBlur stdDeviation="5"/>
<feColorMatrix type="matrix" values="0 0 0 0 0 0 0 0 0 0 0 0 0 0 0 0 0 0 0.5 0"/>
<feBlend mode="normal" in2="BackgroundImageFix" result="effect1_dropShadow_1095_8346"/>
<feBlend mode="normal" in="SourceGraphic" in2="effect1_dropShadow_1095_8346" result="shape"/>
</filter>
</defs>
</svg>
