<svg width="703" height="335" viewBox="0 0 703 335" fill="none" xmlns="http://www.w3.org/2000/svg">
<g filter="url(#filter0_df_1092_7106)">
<path d="M28.8811 297.014C22.0498 295.139 15.238 293.23 8.45922 291.283C3.26847 296.066 -1.95302 300.843 -7.23001 305.577C-11.6307 286.173 -16.0142 266.779 -20.415 247.374C-8.73971 244.736 2.89814 241.963 14.506 239.082C19.3022 258.392 24.0812 277.691 28.8774 297L28.8811 297.014Z" fill="#00CFAC"/>
<path d="M-7.23001 305.577L8.44571 291.287L28.8811 297.014L14.506 239.082L-7.23001 305.577Z" fill="#00B290"/>
<path d="M78.197 284.036C71.3161 282.35 64.4718 280.639 57.6434 278.88C52.5959 283.813 47.5138 288.726 42.3936 293.605C37.4623 274.334 32.5175 255.065 27.5863 235.794C39.1717 232.832 50.7235 229.748 62.2281 226.547C67.5511 245.71 72.8913 264.883 78.2143 284.046L78.197 284.036Z" fill="#FFD327"/>
<path d="M42.3801 293.609L57.6434 278.88L78.197 284.037L62.2108 226.537L42.3801 293.609Z" fill="#EFBB14"/>
<path d="M127.095 269.706C120.181 268.218 113.284 266.682 106.423 265.121C101.528 270.185 96.5856 275.234 91.6085 280.263C86.1369 261.141 80.6654 242.019 75.19 222.883C86.6722 219.601 98.1207 216.197 109.522 212.675C115.385 231.688 121.245 250.689 127.108 269.702L127.095 269.706Z" fill="#FF4067"/>
<path d="M91.595 280.267L106.409 265.124L127.095 269.706L109.509 212.679L91.595 280.267Z" fill="#CE2450"/>
<path d="M175.52 254.037C168.57 252.734 161.64 251.396 154.73 250.023C149.974 255.223 145.185 260.404 140.347 265.57C134.339 246.611 128.327 227.638 122.333 208.675C133.711 205.072 145.043 201.352 156.345 197.523C162.741 216.36 169.123 235.201 175.52 254.037Z" fill="#00CFAC"/>
<path d="M140.361 265.566L154.73 250.023L175.52 254.037L156.345 197.523L140.361 265.566Z" fill="#00B290"/>
<path d="M223.468 237.017C216.486 235.912 209.524 234.772 202.591 233.58C197.989 238.912 193.352 244.225 188.664 249.509C182.136 230.723 175.592 211.927 169.064 193.141C180.326 189.222 191.558 185.194 202.73 181.052C209.641 199.703 216.553 218.353 223.468 237.017Z" fill="#FFD327"/>
<path d="M188.667 249.523L202.591 233.58L223.468 237.017L202.73 181.052L188.667 249.523Z" fill="#EFBB14"/>
<path d="M317.79 199.021C310.757 198.308 303.757 197.557 296.759 196.761C292.472 202.34 288.138 207.904 283.752 213.439C276.183 195.043 268.602 176.651 261.033 158.255C272.052 153.719 283.023 149.066 293.951 144.308C301.896 162.541 309.845 180.788 317.79 199.021Z" fill="#00CFAC"/>
<path d="M283.752 213.439L296.759 196.761L317.79 199.021L293.955 144.321L283.752 213.439Z" fill="#00B290"/>
<path d="M270.904 218.67C263.89 217.763 256.909 216.817 249.943 215.823C245.49 221.274 241.006 226.72 236.471 232.136C229.414 213.54 222.358 194.944 215.298 176.335C226.447 172.112 237.548 167.771 248.603 163.313C256.04 181.759 263.467 200.224 270.904 218.67Z" fill="#FF4067"/>
<path d="M236.471 232.136L249.943 215.823L270.904 218.67L248.607 163.326L236.471 232.136Z" fill="#CE2450"/>
<path d="M364.113 178.074C357.061 177.555 350.042 176.998 343.025 176.396C338.888 182.095 334.716 187.773 330.496 193.436C322.406 175.258 314.334 157.089 306.244 138.91C317.132 134.061 327.977 129.108 338.765 124.055C347.214 142.061 355.664 160.068 364.117 178.087L364.113 178.074Z" fill="#FFD327"/>
<path d="M330.496 193.436L343.025 176.396L364.113 178.074L338.765 124.055L330.496 193.436Z" fill="#EFBB14"/>
<path d="M409.846 155.836C402.792 155.521 395.737 155.148 388.718 154.751C384.744 160.564 380.735 166.358 376.664 172.139C368.073 154.201 359.493 136.246 350.902 118.307C361.65 113.163 372.355 107.914 382.999 102.551C391.949 120.317 400.899 138.083 409.849 155.849L409.846 155.836Z" fill="#FF4067"/>
<path d="M376.66 172.126L388.718 154.751L409.846 155.836L382.996 102.538L376.66 172.126Z" fill="#CE2450"/>
<path d="M454.947 132.318C447.875 132.197 440.818 132.029 433.794 131.822C429.978 137.736 426.132 143.645 422.224 149.541C413.133 131.844 404.055 114.142 394.968 96.458C405.576 91.0179 416.124 85.4637 426.628 79.8052C436.075 97.3171 445.504 114.819 454.951 132.331L454.947 132.318Z" fill="#00CFAC"/>
<path d="M422.224 149.541L433.794 131.822L454.947 132.318L426.624 79.7917L422.224 149.541Z" fill="#00B290"/>
<path d="M499.408 107.537C492.334 107.621 485.276 107.656 478.233 107.644C474.58 113.673 470.893 119.683 467.157 125.678C457.587 108.244 447.999 90.7998 438.428 73.3659C448.879 67.6203 459.286 61.7704 469.623 55.8236C479.546 73.0583 489.472 90.3064 499.408 107.537Z" fill="#FFD327"/>
<path d="M467.157 125.678L478.233 107.644L499.408 107.537L469.623 55.8236L467.157 125.678Z" fill="#EFBB14"/>
<path d="M543.188 81.5058C536.112 81.7934 529.062 82.0157 522.018 82.2073C518.537 88.3345 515.009 94.4458 511.436 100.555C501.373 83.3885 491.326 66.2318 481.262 49.0653C491.559 43.0277 501.8 36.8896 511.979 30.6374C522.391 47.591 532.79 64.5484 543.202 81.5021L543.188 81.5058Z" fill="#FF4067"/>
<path d="M511.436 100.555L522.018 82.2072L543.188 81.5058L511.966 30.6411L511.436 100.555Z" fill="#CE2450"/>
<path d="M586.26 54.2306C579.192 54.705 572.144 55.1449 565.098 55.5405C561.79 61.7653 558.421 67.9781 555.021 74.1849C544.485 57.3092 533.949 40.4335 523.413 23.5578C533.543 17.232 543.616 10.8056 553.629 4.2652C564.509 20.9146 575.38 37.5812 586.26 54.2306Z" fill="#00CFAC"/>
<path d="M555.021 74.1849L565.098 55.5405L586.26 54.2306L553.642 4.26147L555.021 74.1849Z" fill="#00B290"/>
<path d="M628.601 25.7327C621.549 26.4209 614.495 27.0513 607.461 27.6473C604.308 33.96 601.129 40.2802 597.884 46.5749C586.879 30.0035 575.875 13.432 564.871 -3.13942C574.834 -9.75341 584.736 -16.4815 594.572 -23.2929C605.907 -6.94403 617.256 9.40106 628.587 25.7364L628.601 25.7327Z" fill="#FFD327"/>
<path d="M597.897 46.5712L607.471 27.6301L628.601 25.7327L594.595 -23.3139L597.897 46.5712Z" fill="#EFBB14"/>
<path d="M670.193 -3.9977C663.152 -3.10915 656.114 -2.26487 649.102 -1.48584C646.135 4.92081 643.111 11.3289 640.038 17.7213C628.569 1.46759 617.114 -14.7898 605.641 -31.057C615.424 -37.9555 625.145 -44.968 634.814 -52.0676C646.61 -36.0501 658.393 -20.0288 670.189 -4.01121L670.193 -3.9977Z" fill="#FF4067"/>
<path d="M640.042 17.7348L649.092 -1.46859L670.193 -3.99771L634.817 -52.0541L640.042 17.7348Z" fill="#CE2450"/>
<path d="M60.8928 228.342C18.1418 240.184 -25.0275 250.412 -68.5107 258.981L-69.0527 256.237C183.536 206.425 426.641 99.4359 633.98 -53.1892L635.638 -50.9289C531.6 25.6531 418.899 90.8616 300.672 142.897C223.008 177.078 142.748 205.667 60.8928 228.342Z" fill="white"/>
</g>
<defs>
<filter id="filter0_df_1092_7106" x="-79.0527" y="-55.1892" width="759.245" height="389.361" filterUnits="userSpaceOnUse" color-interpolation-filters="sRGB">
<feFlood flood-opacity="0" result="BackgroundImageFix"/>
<feColorMatrix in="SourceAlpha" type="matrix" values="0 0 0 0 0 0 0 0 0 0 0 0 0 0 0 0 0 0 127 0" result="hardAlpha"/>
<feOffset dy="8"/>
<feGaussianBlur stdDeviation="5"/>
<feColorMatrix type="matrix" values="0 0 0 0 0 0 0 0 0 0 0 0 0 0 0 0 0 0 0.5 0"/>
<feBlend mode="normal" in2="BackgroundImageFix" result="effect1_dropShadow_1092_7106"/>
<feBlend mode="normal" in="SourceGraphic" in2="effect1_dropShadow_1092_7106" result="shape"/>
<feGaussianBlur stdDeviation="0.5" result="effect2_foregroundBlur_1092_7106"/>
</filter>
</defs>
</svg>
