<svg width="1440" height="1024" viewBox="0 0 1440 1024" fill="none" xmlns="http://www.w3.org/2000/svg">
<g clip-path="url(#clip0_1092_7157)">
<rect width="1440" height="1024" fill="url(#paint0_radial_1092_7157)"/>
<g clip-path="url(#clip1_1092_7157)">
<g opacity="0.06">
<path d="M353.822 -616H322.087L353.822 568.894L385.557 -616H353.822Z" fill="#686EEA"/>
<path d="M138.35 -597.738L107.109 -592.206L344.119 569.172L169.622 -603.238L138.35 -597.738Z" fill="#686EEA"/>
<path d="M-70.6635 -542.332L-100.483 -531.486L334.601 571.119L-40.8441 -553.178L-70.6635 -542.332Z" fill="#686EEA"/>
<path d="M-266.884 -451.453L-294.355 -435.601L325.578 574.703L-239.382 -467.336L-266.884 -451.453Z" fill="#686EEA"/>
<path d="M-444.348 -327.911L-468.636 -307.517L317.297 579.771L-420.029 -348.306L-444.348 -327.911Z" fill="#686EEA"/>
<path d="M-597.647 -175.415L-618.041 -151.127L310.035 586.229L-577.252 -199.734L-597.647 -175.415Z" fill="#686EEA"/>
<path d="M-722.147 1.36833L-737.999 28.8392L304.01 593.831L-706.263 -26.1025L-722.147 1.36833Z" fill="#686EEA"/>
<path d="M-814.046 197.095L-824.892 226.914L299.405 602.359L-803.199 167.275L-814.046 197.095Z" fill="#686EEA"/>
<path d="M-870.563 405.799L-876.095 437.071L296.315 611.568L-865.063 374.558L-870.563 405.799Z" fill="#686EEA"/>
<path d="M-890 621.178V652.913L294.894 621.178L-890 589.443V621.178Z" fill="#686EEA"/>
<path d="M-871.738 836.619L-866.237 867.89L295.172 630.881L-877.238 805.378L-871.738 836.619Z" fill="#686EEA"/>
<path d="M-816.332 1045.63L-805.486 1075.45L297.119 640.398L-827.179 1015.81L-816.332 1045.63Z" fill="#686EEA"/>
<path d="M-725.453 1241.85L-709.601 1269.35L300.703 649.421L-741.336 1214.38L-725.453 1241.85Z" fill="#686EEA"/>
<path d="M-601.911 1419.32L-581.517 1443.64L305.771 657.672L-622.306 1395L-601.911 1419.32Z" fill="#686EEA"/>
<path d="M-449.415 1572.65L-425.127 1593.04L312.229 664.934L-473.734 1552.22L-449.415 1572.65Z" fill="#686EEA"/>
<path d="M-272.632 1697.15L-245.161 1713L319.831 670.959L-300.102 1681.26L-272.632 1697.15Z" fill="#686EEA"/>
<path d="M-76.9054 1789.05L-47.0861 1799.89L328.359 675.595L-106.725 1778.2L-76.9054 1789.05Z" fill="#686EEA"/>
<path d="M131.799 1845.56L163.071 1851.06L337.568 678.654L100.558 1840.06L131.799 1845.56Z" fill="#686EEA"/>
<path d="M347.178 1865H378.913L347.178 680.075L315.443 1865H347.178Z" fill="#686EEA"/>
<path d="M562.619 1846.71L593.891 1841.21L356.881 679.828L531.378 1852.24L562.619 1846.71Z" fill="#686EEA"/>
<path d="M771.632 1791.3L801.452 1780.46L366.398 677.85L741.813 1802.18L771.632 1791.3Z" fill="#686EEA"/>
<path d="M967.853 1700.45L995.355 1684.6L375.422 674.297L940.382 1716.34L967.853 1700.45Z" fill="#686EEA"/>
<path d="M1145.32 1576.91L1169.64 1556.52L383.672 669.229L1121.03 1597.31L1145.32 1576.91Z" fill="#686EEA"/>
<path d="M1298.62 1424.42L1319.04 1400.1L390.934 662.771L1278.22 1448.73L1298.62 1424.42Z" fill="#686EEA"/>
<path d="M1423.12 1247.63L1439 1220.13L396.96 655.169L1407.26 1275.1L1423.12 1247.63Z" fill="#686EEA"/>
<path d="M1515.05 1051.87L1525.89 1022.06L401.595 646.64L1504.2 1081.72L1515.05 1051.87Z" fill="#686EEA"/>
<path d="M1571.56 843.17L1577.06 811.929L404.654 637.432L1566.06 874.442L1571.56 843.17Z" fill="#686EEA"/>
<path d="M1591 627.822V596.087L406.075 627.822L1591 659.557V627.822Z" fill="#686EEA"/>
<path d="M1572.71 412.35L1567.21 381.109L405.828 618.119L1578.24 443.622L1572.71 412.35Z" fill="#686EEA"/>
<path d="M1517.3 203.336L1506.46 173.517L403.85 608.601L1528.18 233.156L1517.3 203.336Z" fill="#686EEA"/>
<path d="M1426.45 7.11589L1410.6 -20.355L400.297 599.578L1442.3 34.6177L1426.45 7.11589Z" fill="#686EEA"/>
<path d="M1302.91 -170.348L1282.52 -194.636L395.198 591.297L1323.31 -146.029L1302.91 -170.348Z" fill="#686EEA"/>
<path d="M1150.42 -323.647L1126.1 -344.042L388.771 584.035L1174.73 -303.252L1150.42 -323.647Z" fill="#686EEA"/>
<path d="M973.631 -448.146L946.13 -463.999L381.169 578.01L1001.1 -432.263L973.631 -448.146Z" fill="#686EEA"/>
<path d="M777.874 -540.046L748.055 -550.892L372.64 573.405L807.694 -529.199L777.874 -540.046Z" fill="#686EEA"/>
<path d="M569.17 -596.563L537.929 -602.095L363.432 570.315L600.411 -591.063L569.17 -596.563Z" fill="#686EEA"/>
</g>
</g>
</g>
<defs>
<radialGradient id="paint0_radial_1092_7157" cx="0" cy="0" r="1" gradientUnits="userSpaceOnUse" gradientTransform="translate(388.5 544.5) rotate(91.3309) scale(495.134 696.282)">
<stop stop-color="#2B2BA1"/>
<stop offset="1" stop-color="#151569"/>
</radialGradient>
<clipPath id="clip0_1092_7157">
<rect width="1440" height="1024" fill="white"/>
</clipPath>
<clipPath id="clip1_1092_7157">
<rect width="2481" height="2481" fill="white" transform="translate(-890 -616)"/>
</clipPath>
</defs>
</svg>
