<svg width="579" height="566" viewBox="0 0 579 566" fill="none" xmlns="http://www.w3.org/2000/svg">
<g clip-path="url(#clip0_1092_7220)">
<path d="M51.8456 114.856C35.669 140.522 27.7749 170.696 24.6395 200.869C19.3259 251.967 27.3587 304.673 49.6258 350.987C71.879 397.301 108.561 436.904 154.052 460.823C227.943 499.663 319.758 494.283 396.077 460.463C444.912 438.831 489.432 405.538 518.941 361.04C548.464 316.543 561.88 260.342 549.741 208.357C539.308 163.679 507.287 121.928 462.864 110.391C430.456 101.974 399.115 111.403 366.609 111.791C310.838 112.471 265.582 88.662 215.179 68.7359C185.351 56.9495 151.597 47.5619 119.951 57.8369C91.3575 67.1136 67.606 89.8545 51.8594 114.87L51.8456 114.856Z" fill="#191970"/>
<path d="M139.776 383.102C158.825 389.383 170.617 408.88 170.617 408.88C172.782 385.002 139.693 356.617 139.693 356.617C139.693 356.617 136.572 369.513 139.776 383.102Z" fill="#4667A4"/>
<path d="M167.149 413.081C168.841 415.022 171.783 415.216 173.725 413.511C175.667 411.819 175.862 408.88 174.155 406.938C172.462 404.997 169.521 404.803 167.579 406.508C165.637 408.2 165.442 411.14 167.149 413.081Z" fill="#4667A4"/>
<path d="M239.5 356.007L236.697 360.153L235.865 361.359L224.696 377.833L223.864 379.067L219.05 386.166C193.231 379.926 165.97 378.692 139.776 383.102C139.554 381.743 139.36 380.37 139.207 378.983C139.152 378.526 139.096 378.068 139.055 377.597C138.5 371.967 138.514 366.171 139.152 360.583C139.194 360.097 139.249 359.612 139.318 359.127C139.429 358.295 139.554 357.463 139.693 356.631C172.046 347.202 207.035 346.98 239.5 356.007Z" fill="#4667A4"/>
<path d="M236.697 360.153L235.865 361.359C230.135 359.848 224.336 358.614 218.495 357.643C204.885 355.369 191.039 354.551 177.263 355.147C164.416 355.702 151.638 357.532 139.152 360.583C139.194 360.097 139.249 359.612 139.318 359.127C145.853 357.532 152.443 356.298 159.102 355.397C172.851 353.525 186.78 353.095 200.612 354.107C212.793 355.008 224.877 357.019 236.697 360.153Z" fill="white"/>
<path d="M224.696 377.833L223.864 379.067C219.841 378.193 215.79 377.43 211.725 376.806C198.933 374.837 185.934 374.13 173.004 374.671C161.641 375.142 150.334 376.585 139.207 378.983C139.152 378.526 139.097 378.068 139.055 377.597C144.604 376.418 150.195 375.461 155.828 374.74C168.786 373.076 181.91 372.688 194.952 373.576C204.954 374.255 214.916 375.669 224.696 377.833Z" fill="white"/>
<path d="M143.106 331.241C160.531 347.118 163.833 373.686 163.833 373.686C177.61 349.101 155.703 302.787 155.703 302.787C155.703 302.787 146.172 315.128 143.106 331.255V331.241Z" fill="#FFCB39"/>
<path d="M158.103 376.529C158.991 379.413 162.057 381.036 164.957 380.148C167.843 379.261 169.466 376.196 168.578 373.298C167.69 370.414 164.624 368.792 161.724 369.679C158.839 370.566 157.215 373.631 158.103 376.529Z" fill="#FFAB15"/>
<path d="M263.112 349.933L259.186 352.36L257.937 353.136L232.757 368.764L231.522 369.526L226.722 372.508C201.999 353.441 173.336 339.062 143.12 331.241C143.494 329.799 143.91 328.357 144.368 326.915C144.493 326.471 144.632 326.027 144.785 325.584C146.893 319.08 149.751 312.674 153.22 306.795C153.469 306.379 153.719 305.949 153.969 305.533C154.538 304.604 155.12 303.689 155.717 302.787C194.951 308.168 232.604 324.696 263.112 349.933Z" fill="#FFAB15"/>
<path d="M232.757 368.764L231.522 369.526C228.428 366.947 225.307 364.41 222.13 361.942C216.012 357.185 209.644 352.706 202.957 348.768C196.214 344.816 189.125 341.475 181.855 338.604C169.674 333.793 157.035 330.243 144.368 326.915C144.493 326.471 144.632 326.027 144.785 325.584C151.028 327.234 157.257 328.926 163.445 330.798C178.275 335.304 192.843 340.906 206.106 349.046C215.54 354.842 224.266 361.664 232.757 368.764Z" fill="white"/>
<path d="M259.186 352.36L257.938 353.136C251.972 348.463 245.784 344.082 239.389 340.019C225.515 331.214 210.712 323.851 195.298 318.124C181.661 313.049 167.551 309.249 153.22 306.795C153.47 306.379 153.719 305.949 153.969 305.533C161.211 306.781 168.384 308.376 175.473 310.289C191.358 314.615 206.786 320.62 221.436 328.135C234.769 334.985 247.421 343.097 259.186 352.36Z" fill="white"/>
<path d="M150.667 273.931C164.499 302.066 155.62 336.538 155.62 336.538C184.657 312.841 180.148 244.854 180.148 244.854C180.148 244.854 162.321 255.475 150.667 273.931Z" fill="#BA1A5B"/>
<path d="M147.129 337.287C146.824 341.295 149.821 344.789 153.83 345.094C157.84 345.399 161.336 342.404 161.641 338.383C161.946 334.361 158.95 330.881 154.926 330.576C150.903 330.271 147.421 333.266 147.115 337.287H147.129Z" fill="#CC366F"/>
<path d="M290.041 355.535L280.385 357.296L278.984 357.546L243.121 364.063L241.678 364.327L233.992 365.727C212.71 330.091 184.255 298.336 150.667 273.945C151.486 272.822 152.332 271.699 153.206 270.59C153.483 270.215 153.775 269.855 154.066 269.494C160.42 261.535 167.87 254.144 175.931 247.96C176.333 247.641 176.749 247.336 177.166 247.031C178.151 246.282 179.15 245.561 180.148 244.867C226.07 270.645 264.597 309.443 290.041 355.535Z" fill="#CC366F"/>
<path d="M243.121 364.063L241.678 364.327C237.932 358.128 233.978 352.069 229.802 346.148C224.225 338.216 218.245 330.576 211.933 323.213C205.634 315.891 198.989 308.875 192.024 302.177C185.032 295.452 177.721 289.06 170.104 283.028C164.624 278.688 158.991 274.528 153.206 270.59C153.483 270.215 153.775 269.855 154.066 269.494C160.795 274.098 167.315 278.965 173.656 284.095C181.231 290.238 188.514 296.742 195.465 303.578C202.416 310.428 209.047 317.597 215.318 325.071C221.561 332.517 227.457 340.255 232.965 348.255C236.517 353.414 239.902 358.683 243.121 364.063Z" fill="white"/>
<path d="M280.385 357.296L278.984 357.546C275.474 349.989 271.561 342.612 267.274 335.471C261.642 326.069 255.343 317.056 248.476 308.528C241.636 300.042 234.242 292.013 226.334 284.525C218.384 276.982 209.907 269.979 200.987 263.601C192.968 257.86 184.602 252.633 175.931 247.96C176.333 247.641 176.749 247.336 177.166 247.031C177.263 247.086 177.374 247.141 177.471 247.197C187.141 252.48 196.45 258.443 205.287 265.029C214.111 271.588 222.477 278.757 230.329 286.453C238.168 294.135 245.479 302.358 252.208 311.038C258.95 319.718 265.11 328.856 270.604 338.383C274.142 344.539 277.416 350.849 280.385 357.296Z" fill="white"/>
<path d="M441.887 369.527C425.947 381.701 421.188 403.971 421.188 403.971C411.324 382.117 433.3 344.47 433.3 344.47C433.3 344.47 440.472 355.632 441.887 369.527Z" fill="#4667A4"/>
<path d="M425.85 406.814C424.878 409.199 422.159 410.349 419.773 409.379C417.387 408.408 416.235 405.69 417.206 403.305C418.177 400.92 420.897 399.769 423.283 400.74C425.669 401.711 426.821 404.429 425.85 406.814Z" fill="#4667A4"/>
<path d="M338.793 376.543L342.802 379.538L343.982 380.411L359.922 392.323L361.115 393.21L367.983 398.341C390.333 384.003 415.694 373.922 441.887 369.512C441.652 368.153 441.388 366.795 441.083 365.436C440.986 364.992 440.889 364.534 440.778 364.077C439.46 358.572 437.545 353.108 435.117 348.033C434.923 347.589 434.701 347.146 434.479 346.716C434.104 345.967 433.716 345.218 433.314 344.483C399.656 346.161 366.526 357.393 338.793 376.543Z" fill="#4667A4"/>
<path d="M342.788 379.538L343.968 380.412C348.893 377.112 353.957 374.047 359.159 371.218C371.271 364.618 384.09 359.321 397.298 355.369C409.617 351.694 422.298 349.24 435.089 348.034C434.895 347.59 434.673 347.146 434.451 346.716C427.75 347.34 421.119 348.339 414.543 349.656C400.933 352.388 387.642 356.534 374.892 362.011C363.682 366.85 352.916 372.702 342.775 379.524L342.788 379.538Z" fill="white"/>
<path d="M359.922 392.323L361.115 393.211C364.625 391.075 368.205 389.023 371.84 387.109C383.285 381.064 395.328 376.141 407.731 372.425C418.621 369.152 429.776 366.823 441.083 365.45C440.986 365.006 440.889 364.549 440.778 364.091C435.145 364.798 429.554 365.713 423.99 366.878C411.199 369.541 398.671 373.465 386.643 378.568C377.417 382.478 368.468 387.082 359.936 392.323H359.922Z" fill="white"/>
<path d="M434.299 326.832C416.873 342.709 413.571 369.277 413.571 369.277C399.795 344.692 421.701 298.378 421.701 298.378C421.701 298.378 431.232 310.719 434.299 326.846V326.832Z" fill="#FFCB39"/>
<path d="M419.301 372.12C418.413 375.004 415.347 376.626 412.448 375.739C409.562 374.851 407.939 371.787 408.827 368.889C409.715 366.004 412.781 364.382 415.68 365.27C418.566 366.157 420.189 369.221 419.301 372.12Z" fill="#FFAB15"/>
<path d="M314.292 345.524L318.218 347.95L319.467 348.727L344.647 364.354L345.882 365.117L350.682 368.098C375.405 349.032 404.068 334.653 434.285 326.832C433.91 325.39 433.494 323.948 433.036 322.506C432.911 322.062 432.772 321.618 432.62 321.174C430.511 314.671 427.653 308.265 424.185 302.385C423.935 301.969 423.685 301.539 423.436 301.123C422.867 300.194 422.284 299.279 421.687 298.378C382.453 303.758 344.8 320.287 314.292 345.524Z" fill="#FFAB15"/>
<path d="M344.647 364.354L345.882 365.117C348.976 362.538 352.098 360 355.275 357.532C361.393 352.776 367.761 348.297 374.448 344.359C381.19 340.407 388.28 337.065 395.55 334.195C407.731 329.383 420.369 325.833 433.036 322.506C432.911 322.062 432.772 321.618 432.62 321.174C426.377 322.824 420.147 324.516 413.96 326.388C399.129 330.895 384.562 336.497 371.299 344.636C361.865 350.432 353.138 357.255 344.647 364.354Z" fill="white"/>
<path d="M318.218 347.95L319.467 348.727C325.433 344.054 331.62 339.672 338.016 335.609C351.889 326.804 366.693 319.441 382.106 313.714C395.744 308.639 409.853 304.84 424.185 302.385C423.935 301.969 423.685 301.54 423.436 301.124C416.194 302.372 409.021 303.966 401.931 305.88C386.046 310.206 370.619 316.21 355.968 323.726C342.636 330.576 329.983 338.688 318.218 347.95Z" fill="white"/>
<path d="M432.87 279.783C419.038 307.918 427.917 342.39 427.917 342.39C398.879 318.692 403.388 250.705 403.388 250.705C403.388 250.705 421.216 261.327 432.87 279.783Z" fill="#BA1A5B"/>
<path d="M429.138 350.959C433.16 350.959 436.421 347.7 436.421 343.68C436.421 339.659 433.16 336.4 429.138 336.4C425.115 336.4 421.854 339.659 421.854 343.68C421.854 347.7 425.115 350.959 429.138 350.959Z" fill="#CC366F"/>
<path d="M293.496 361.373L303.152 363.134L304.553 363.384L340.416 369.901L341.859 370.164L349.545 371.565C370.827 335.928 399.282 304.174 432.87 279.783C432.051 278.66 431.205 277.537 430.331 276.427C430.053 276.053 429.762 275.692 429.471 275.332C423.116 267.373 415.666 259.982 407.606 253.797C407.203 253.478 406.787 253.173 406.371 252.868C405.386 252.119 404.387 251.398 403.388 250.705C357.467 276.483 318.94 315.281 293.496 361.373Z" fill="#CC366F"/>
<path d="M340.416 369.901L341.859 370.164C345.605 363.966 349.559 357.906 353.735 351.985C359.312 344.054 365.291 336.413 371.604 329.05C377.902 321.729 384.548 314.712 391.512 308.015C398.505 301.29 405.816 294.897 413.433 288.865C418.913 284.525 424.545 280.365 430.331 276.427C430.053 276.053 429.762 275.692 429.471 275.332C422.742 279.935 416.221 284.803 409.881 289.933C402.306 296.076 395.022 302.579 388.072 309.415C381.121 316.265 374.49 323.434 368.219 330.908C361.976 338.355 356.079 346.092 350.571 354.093C347.02 359.251 343.635 364.521 340.416 369.901Z" fill="white"/>
<path d="M303.152 363.134L304.553 363.384C308.063 355.826 311.975 348.449 316.262 341.308C321.895 331.907 328.193 322.894 335.061 314.366C341.9 305.88 349.295 297.851 357.203 290.363C365.153 282.82 373.629 275.817 382.55 269.439C390.569 263.698 398.935 258.47 407.606 253.797C407.203 253.478 406.787 253.173 406.371 252.868C406.274 252.924 406.163 252.979 406.066 253.035C396.396 258.318 387.087 264.28 378.249 270.867C369.426 277.426 361.06 284.595 353.207 292.29C345.369 299.972 338.058 308.195 331.329 316.876C324.586 325.556 318.426 334.694 312.932 344.22C309.395 350.377 306.121 356.686 303.152 363.134Z" fill="white"/>
<path d="M405.303 414.01C392.969 446.874 350.28 484.327 288.695 484.327C227.11 484.327 184.449 446.874 172.102 414.01C172.532 413.428 172.976 412.845 173.447 412.291C175.459 409.795 177.748 407.479 180.287 405.357C180.634 405.052 181.009 404.775 181.369 404.47C183.381 402.861 185.518 401.35 187.779 399.922C217.843 381.063 268.204 379.067 288.695 379.067C306.232 379.067 345.577 380.523 375.405 392.711C380.483 394.805 385.283 397.19 389.653 399.936C391.998 401.405 394.218 402.972 396.271 404.664C396.604 404.928 396.923 405.205 397.256 405.482C400.294 408.048 403 410.876 405.289 413.996L405.303 414.01Z" fill="#FF860D"/>
<path d="M396.146 406.786C392.622 411.68 394.121 418.212 393.566 423.827C393.108 428.653 391.152 432.965 386.671 435.226C382.703 437.236 378.166 437.583 374.004 439.025C371.84 439.774 369.8 440.869 368.233 442.561C366.665 444.239 365.652 446.333 364.847 448.468C363.294 452.656 362.475 457.19 360.089 461.045C357.536 465.191 353.263 467.479 348.588 468.394C342.913 469.504 337.197 468.658 331.481 468.505C328.36 468.422 325.252 468.588 322.228 469.393C319.717 470.058 317.344 471.07 315.027 472.207C306.37 476.464 297.81 482.635 287.641 480.167C278.262 477.893 270.993 470.252 261.337 468.81C255.51 467.923 249.877 470.141 244.175 470.973C238.986 471.736 234.061 470.932 229.844 467.687C221.644 461.378 219.3 450.631 212.474 443.199C210.754 441.327 208.77 439.774 206.508 438.651C204.386 437.611 202.138 436.904 199.904 436.169C195.853 434.837 191.483 433.381 188.736 429.915C185.296 425.575 185.892 419.848 185.323 414.69C185.018 411.889 184.311 408.907 182.285 406.841C181.688 406.245 180.995 405.732 180.246 405.357C180.592 405.052 180.967 404.775 181.328 404.47C185.934 407.229 186.6 412.873 186.849 417.754C187.002 420.597 187.099 423.509 188.098 426.213C188.986 428.57 190.651 430.47 192.787 431.801C196.7 434.241 201.375 435.045 205.579 436.834C210.088 438.734 213.501 441.951 216.261 445.944C219.175 450.16 221.256 454.874 224.044 459.159C226.764 463.361 230.315 467.521 235.199 469.185C240.845 471.126 246.755 469.074 252.347 467.992C255.038 467.465 257.785 467.118 260.532 467.41C262.89 467.659 265.18 468.297 267.372 469.171C276.195 472.721 284.2 480.292 294.286 479.404C304.497 478.517 312.405 470.53 322.172 468.061C328.235 466.522 334.45 467.493 340.596 467.673C345.702 467.812 351.293 467.285 355.524 464.151C363.238 458.452 361.129 446.693 368.357 440.62C375.169 434.907 388.044 437.819 391.388 427.946C393.288 422.33 391.637 416.284 393.011 410.585C393.538 408.422 394.648 406.245 396.243 404.664C396.576 404.928 396.895 405.205 397.228 405.482C396.812 405.87 396.438 406.3 396.105 406.772L396.146 406.786Z" fill="#FFFBDE"/>
<path d="M390.333 400.892C390 401.794 389.667 402.709 389.279 403.61C389.14 403.971 388.987 404.331 388.835 404.692C385.852 411.653 381.51 418.752 375.905 425.505C375.669 425.797 375.419 426.088 375.183 426.379C374.628 427.017 374.087 427.669 373.505 428.292C373.241 428.611 372.95 428.93 372.644 429.249C368.26 434.061 363.196 438.637 357.564 442.838C357.231 443.088 356.884 443.338 356.551 443.573C356.079 443.92 355.608 444.267 355.108 444.599C354.761 444.863 354.401 445.085 354.054 445.348C347.45 449.855 340.111 453.821 332.092 456.996C331.731 457.149 331.37 457.287 331.01 457.412C319.176 461.96 305.885 464.775 291.345 465.08C290.471 465.108 289.583 465.122 288.695 465.122C274.544 465.122 261.531 462.751 249.835 458.674C249.475 458.563 249.114 458.424 248.753 458.286C240.11 455.193 232.202 451.172 225.113 446.541C224.78 446.291 224.433 446.069 224.1 445.834C224.1 445.834 224.017 445.792 223.989 445.764C223.656 445.542 223.351 445.32 223.018 445.099C216.483 440.578 210.684 435.559 205.676 430.22C205.412 429.929 205.121 429.624 204.843 429.332C204.621 429.083 204.399 428.847 204.191 428.598C203.928 428.32 203.692 428.043 203.456 427.752C197.449 420.929 192.718 413.691 189.43 406.564C189.249 406.203 189.097 405.829 188.93 405.468C188.251 403.929 187.626 402.376 187.085 400.851C187.321 400.518 187.557 400.199 187.793 399.88C208.881 371.509 267.372 368.903 288.723 368.903C306.773 368.903 351.307 370.761 377.417 388.44C382.231 391.685 386.407 395.485 389.681 399.894C389.903 400.213 390.139 400.532 390.361 400.837L390.333 400.892Z" fill="#FFAB15"/>
<path d="M204.177 428.639C203.914 428.362 203.678 428.084 203.442 427.793C204.941 426.046 206.3 424.174 207.368 422.122C209.075 418.822 209.838 415.022 209.047 411.348C208.27 407.742 205.926 404.719 202.332 403.582C198.531 402.39 194.369 403.305 191.067 405.399C190.498 405.759 189.929 406.162 189.402 406.605C189.222 406.245 189.069 405.87 188.903 405.51C189.915 404.719 191.025 404.012 192.205 403.444C195.867 401.683 200.348 401.308 204.094 403.042C207.632 404.678 209.769 408.172 210.337 411.958C211.308 418.461 208.215 423.924 204.177 428.639Z" fill="#FFFBDE"/>
<path d="M223.975 445.806C223.642 445.584 223.337 445.362 223.004 445.14C223.656 443.06 224.058 440.883 223.975 438.692C223.864 436.072 222.935 433.534 221.006 431.718C219.23 430.04 216.844 429.097 214.444 428.792C211.392 428.404 208.437 429.069 205.676 430.262C205.412 429.97 205.121 429.665 204.843 429.374C205.815 428.93 206.813 428.556 207.84 428.251C212.89 426.795 219.147 427.502 222.671 431.801C225.917 435.767 225.515 441.161 223.975 445.792V445.806Z" fill="#FFFBDE"/>
<path d="M249.835 458.701C249.475 458.591 249.114 458.452 248.753 458.313C249.072 457.218 249.225 456.081 249.239 454.944C249.267 449.494 245.396 444.544 240.166 443.116C234.866 441.674 229.538 443.601 225.127 446.568C224.794 446.319 224.447 446.097 224.114 445.861C226.542 444.183 229.164 442.783 232.049 442.048C235.324 441.216 238.889 441.23 242.052 442.533C244.661 443.601 246.866 445.501 248.379 447.872C250.446 451.144 250.876 455.11 249.849 458.688L249.835 458.701Z" fill="#FFFBDE"/>
<path d="M349.115 442.062C351.237 442.617 353.235 443.518 355.108 444.627C354.761 444.891 354.401 445.113 354.054 445.376C350.058 443.13 345.508 441.909 340.985 443.13C335.741 444.558 331.884 449.508 331.912 454.958C331.912 455.651 331.981 456.344 332.092 457.024C331.731 457.176 331.37 457.315 331.01 457.44C330.413 454.195 330.968 450.77 332.786 447.886C334.298 445.515 336.504 443.601 339.112 442.547C342.275 441.244 345.841 441.244 349.115 442.062Z" fill="#FFFBDE"/>
<path d="M373.324 428.251C373.324 428.251 373.435 428.293 373.504 428.306C373.241 428.625 372.95 428.944 372.644 429.263C370.73 428.736 368.732 428.528 366.706 428.778C364.306 429.083 361.92 430.026 360.144 431.704C358.216 433.534 357.272 436.072 357.175 438.679C357.12 440.079 357.272 441.48 357.564 442.838C357.231 443.088 356.884 443.338 356.551 443.573C355.621 439.511 355.746 435.129 358.493 431.787C362.003 427.488 368.274 426.767 373.324 428.237V428.251Z" fill="#FFFBDE"/>
<path d="M389.293 403.624C389.154 403.985 389.001 404.345 388.849 404.706C385.783 403.125 382.162 402.543 378.818 403.596C375.225 404.733 372.88 407.756 372.103 411.362C371.312 415.036 372.076 418.836 373.782 422.136C374.406 423.328 375.114 424.451 375.905 425.533C375.669 425.824 375.419 426.115 375.183 426.407C372.089 422.205 369.994 417.463 370.813 411.972C371.382 408.2 373.532 404.692 377.056 403.056C380.802 401.308 385.283 401.683 388.946 403.458C389.057 403.513 389.182 403.569 389.279 403.638L389.293 403.624Z" fill="#FFFBDE"/>
<g style="mix-blend-mode:multiply" opacity="0.5">
<path d="M374.351 391.435L376.487 389.439C376.14 390.534 375.766 391.643 375.377 392.725C368.552 411.93 356.301 429.124 340.569 442.048C338.071 444.114 335.449 446.069 332.772 447.9C328.901 450.562 324.85 452.975 320.646 455.11C311.406 459.811 301.501 463.153 291.345 465.108C272.56 468.741 252.832 467.645 234.644 461.641C209.214 453.224 187.099 435.281 173.42 412.277C177.263 407.507 182.16 403.43 187.751 399.922C208.839 371.551 267.33 368.944 288.681 368.944C306.731 368.944 351.265 370.802 377.375 388.482C376.376 389.494 375.364 390.465 374.351 391.435Z" fill="#FFCB39"/>
</g>
<path d="M369.481 375.281C366.124 367.599 358.826 362.053 350.794 359.626C342.761 357.199 334.09 357.629 325.918 359.515C317.747 361.401 298.31 370.095 290.582 373.354C282.855 370.095 263.418 361.401 255.246 359.515C247.075 357.629 238.404 357.199 230.371 359.626C222.338 362.053 215.041 367.585 211.683 375.281C207.854 384.059 209.644 394.583 214.583 402.792C219.522 411.001 227.263 417.172 235.462 422.136C251.486 431.842 271.881 437.583 290.582 438.679C309.284 437.583 329.692 431.856 345.702 422.136C353.901 417.172 361.629 410.987 366.582 402.792C371.535 394.597 373.31 384.073 369.481 375.281Z" fill="#472975"/>
<path d="M331.454 370.497C331.912 359.501 367.803 311.87 365.361 260.259C361.837 185.644 312.225 180.763 288.626 180.763C265.027 180.763 215.415 185.658 211.891 260.259C209.449 311.884 245.34 359.501 245.798 370.497C246.256 381.493 227.138 393.321 227.138 393.321C227.138 393.321 248.601 410.155 288.626 410.155C328.651 410.155 350.114 393.321 350.114 393.321C350.114 393.321 330.996 381.493 331.454 370.497Z" fill="#472975"/>
<path d="M292.302 408.671C275.349 410.28 258.201 405.635 244.397 395.651C240.72 392.989 237.321 389.966 234.228 386.665C233.714 386.125 232.896 386.943 233.409 387.484C244.869 399.769 260.518 407.687 277.208 409.67C282.216 410.266 287.28 410.322 292.302 409.836C293.038 409.767 293.052 408.602 292.302 408.671Z" fill="#623E96"/>
<path d="M255.399 185.561L209.394 217.897C209.394 217.897 206.494 194.241 192.302 169.988C184.158 156.067 172.282 141.937 155.107 131.994L171.838 100.476C181.813 104.275 192.107 109.267 201.985 115.521C226.223 130.83 247.838 153.779 255.399 185.561Z" fill="#CC366F"/>
<g style="mix-blend-mode:multiply" opacity="0.5">
<path d="M202.138 137.208C200.889 148.606 197.587 159.81 192.315 170.002C184.171 156.08 172.296 141.95 155.12 132.008L171.852 100.49C181.827 104.289 192.121 109.281 201.999 115.535C202.887 122.717 202.929 130.011 202.138 137.222V137.208Z" fill="#BA1A5B"/>
</g>
<path d="M171.838 100.476C203.761 140.827 171.838 207.775 171.838 207.775C176.736 157.204 155.107 131.994 155.107 131.994L171.838 100.476Z" fill="#BA1A5B"/>
<path d="M222.962 198.692C222.962 198.692 224.419 181.401 222.407 158.452C220.063 131.565 212.945 96.8986 193.134 73.1454L219.216 48.7405C229.996 59.9168 241.553 75.7939 251.334 96.0111C262.349 118.863 271.117 147.234 273.878 180.541L222.962 198.692Z" fill="#623E96"/>
<g style="mix-blend-mode:multiply" opacity="0.3">
<path d="M251.32 96.0111C246.88 118.738 236.878 140.384 222.394 158.452C220.049 131.565 212.932 96.8986 193.12 73.1454L219.203 48.7405C229.982 59.9168 241.539 75.7939 251.32 96.0111Z" fill="#8658BC"/>
</g>
<path d="M219.203 48.7539C248.67 86.0823 217.746 156.468 217.746 156.468C223.004 112.359 193.12 73.1588 193.12 73.1588L219.203 48.7539Z" fill="#8658BC"/>
<path d="M422.159 132.008C405.442 141.701 393.746 155.346 385.63 168.907C370.869 193.548 367.872 217.925 367.872 217.925L321.867 185.588C329.622 153.002 352.139 129.72 377.098 114.412C386.407 108.685 396.077 104.068 405.428 100.504L422.159 132.022V132.008Z" fill="#CC366F"/>
<g style="mix-blend-mode:multiply" opacity="0.5">
<path d="M422.159 132.008C405.442 141.701 393.746 155.346 385.63 168.907C375.683 152.864 372.631 132.716 377.098 114.412C386.407 108.685 396.077 104.068 405.428 100.504L422.159 132.022V132.008Z" fill="#BA1A5B"/>
</g>
<path d="M405.428 100.476C373.505 140.827 405.428 207.775 405.428 207.775C400.53 157.204 422.159 131.994 422.159 131.994L405.428 100.476Z" fill="#BA1A5B"/>
<path d="M355.954 148.301C352.403 176.118 354.317 198.706 354.317 198.706L303.401 180.555C306.745 140.176 318.898 107.063 333.243 82.2418C341.207 68.4585 349.864 57.2406 358.063 48.7405L384.146 73.1454C366.748 94.0005 359.145 123.259 355.954 148.288V148.301Z" fill="#623E96"/>
<g style="mix-blend-mode:multiply" opacity="0.3">
<path d="M384.146 73.1593C366.748 94.0144 359.145 123.273 355.954 148.301C346.95 139.08 340.846 127.155 337.392 114.689C334.492 104.151 333.382 93.2101 333.243 82.2418C341.207 68.4585 349.864 57.2406 358.063 48.7405L384.146 73.1454V73.1593Z" fill="#8658BC"/>
</g>
<path d="M358.063 48.7544C328.596 86.0828 359.52 156.469 359.52 156.469C354.262 112.36 384.146 73.1593 384.146 73.1593L358.063 48.7544Z" fill="#8658BC"/>
<path d="M332.3 174.135L288.64 172.471L244.98 174.135C250.279 159.034 254.428 139.954 257.646 120.707C265.069 76.3625 267.51 31.0747 267.51 31.0747H309.769C309.769 31.0747 310.643 47.1043 312.905 69.4431C316.096 100.92 322.061 144.918 332.3 174.135Z" fill="#CC366F"/>
<g style="mix-blend-mode:multiply" opacity="0.5">
<path d="M312.891 69.4431C299.683 91.1857 280.343 109.254 257.632 120.707C265.055 76.3625 267.497 31.0747 267.497 31.0747H309.755C309.755 31.0747 310.629 47.1043 312.891 69.4431Z" fill="#BA1A5B"/>
</g>
<path d="M267.51 31.0747C272.103 90.0486 253.11 123.716 253.11 123.716C307.355 88.5788 309.755 31.0747 309.755 31.0747H267.496H267.51Z" fill="#BA1A5B"/>
<path d="M206.647 202.644C201.431 203.199 196.117 199.219 195.187 194.061C194.258 188.902 197.837 183.314 202.915 182.011C199.391 177.463 199.988 170.252 204.205 166.356C208.437 162.459 215.679 162.431 219.924 166.314C219.327 160.837 221.062 154.86 225.418 151.491C229.788 148.135 236.919 148.371 240.207 152.794C239.5 147.151 243.537 141.41 249.003 139.801C254.455 138.193 260.74 140.606 264.042 145.237C263.917 139.455 268.398 133.908 274.073 132.813C279.747 131.717 285.976 135.198 288.002 140.606C290.305 133.437 298.518 128.75 305.871 130.386C313.224 132.022 318.648 139.774 317.691 147.234C320.535 142.824 326.584 140.8 331.509 142.602C336.434 144.405 339.75 149.854 339.07 155.054C342.303 150.326 349.503 148.898 354.304 152.018C359.104 155.151 360.685 162.307 357.661 167.174C361.296 162.986 368.746 163.596 372.256 167.881C375.766 172.166 375.322 178.905 371.909 183.259C375.391 180.652 380.899 182.094 383.299 185.713C385.699 189.332 385.283 194.352 382.994 198.054C380.705 201.757 376.834 204.252 372.769 205.778C334.77 177.241 283.368 167.909 237.335 179.709C230.662 181.414 224.017 183.605 218.259 187.391C212.516 191.19 208.312 195.96 206.619 202.63L206.647 202.644Z" fill="#4667A4"/>
<path d="M377.042 211.865C377.264 224.678 366.207 230.474 354.845 228.713C354.193 228.616 353.554 228.491 352.888 228.325C348.005 227.215 343.163 224.664 339.292 220.684C338.987 220.393 338.696 220.088 338.418 219.755C338.113 219.423 337.822 219.062 337.516 218.701C335.338 215.998 332.591 213.723 329.47 211.81C329.109 211.588 328.748 211.38 328.374 211.172C325.238 209.383 321.798 207.927 318.232 206.762C317.83 206.624 317.428 206.499 317.011 206.374C313.751 205.362 310.407 204.585 307.175 203.989C306.745 203.906 306.343 203.837 305.926 203.767C302.527 203.185 299.253 202.811 296.312 202.589C295.882 202.547 295.438 202.505 295.036 202.492C292.594 202.325 290.416 202.256 288.626 202.256C287.572 202.256 286.378 202.284 285.088 202.339C284.658 202.339 284.214 202.381 283.756 202.408C280.51 202.575 276.681 202.921 272.644 203.559C272.172 203.643 271.7 203.712 271.201 203.795C266.844 204.544 262.252 205.612 257.868 207.151C257.355 207.317 256.842 207.511 256.328 207.705C251.001 209.702 246.062 212.406 242.233 216.053C241.858 216.386 241.497 216.746 241.151 217.121C240.665 217.634 240.193 218.161 239.749 218.715C226.847 234.787 204.413 232.374 200.848 216.58C200.751 216.164 200.667 215.762 200.612 215.318C199.988 211.352 200.515 206.624 202.568 201.188C202.998 200.079 203.456 198.97 203.969 197.874C204.857 195.974 205.856 194.116 206.98 192.328C207.244 191.912 207.521 191.509 207.785 191.093C212.557 183.897 219.216 177.532 227.069 172.18C227.499 171.888 227.929 171.597 228.359 171.306C235.518 166.619 243.62 162.723 252.166 159.811C252.638 159.644 253.123 159.492 253.609 159.339C261.392 156.802 269.536 155.055 277.652 154.223C278.138 154.167 278.623 154.126 279.109 154.084C282.286 153.793 285.477 153.654 288.626 153.654C293.218 153.654 297.88 153.959 302.513 154.569C302.971 154.639 303.443 154.694 303.915 154.763C311.406 155.859 318.843 157.689 325.96 160.199C326.39 160.352 326.834 160.504 327.25 160.657C334.437 163.305 341.262 166.619 347.436 170.557C347.825 170.793 348.199 171.029 348.574 171.292C355.219 175.646 361.088 180.721 365.777 186.379C366.068 186.739 366.374 187.1 366.651 187.46C369.259 190.733 371.465 194.199 373.199 197.805C373.754 198.914 374.254 200.051 374.698 201.202C375.974 204.475 376.709 207.456 376.945 210.174C377.015 210.756 377.028 211.311 377.028 211.865H377.042Z" fill="#FFAB15"/>
<g style="mix-blend-mode:multiply" opacity="0.5">
<path d="M366.651 187.447C360.671 198.734 352.68 208.953 343.121 217.44C341.859 218.549 340.596 219.631 339.278 220.684C338.973 220.393 338.682 220.088 338.404 219.755C345.841 213.737 352.486 206.735 358.049 198.942C360.907 194.934 363.488 190.719 365.777 186.365C366.068 186.726 366.373 187.086 366.651 187.447Z" fill="#FFCB39"/>
<path d="M377.042 211.865C370.411 218.424 362.947 224.082 354.845 228.713C354.192 228.616 353.554 228.491 352.888 228.325C357.98 225.524 362.836 222.307 367.4 218.701C370.744 216.053 373.948 213.196 376.945 210.16C377.015 210.742 377.028 211.297 377.028 211.851L377.042 211.865Z" fill="#FFCB39"/>
<path d="M348.574 171.292C345.785 183.134 341.013 194.491 334.45 204.738C332.883 207.165 331.232 209.536 329.47 211.824C329.109 211.602 328.748 211.394 328.374 211.186C334.922 202.602 340.152 193.048 343.815 182.898C345.272 178.863 346.465 174.745 347.436 170.557C347.825 170.793 348.199 171.029 348.574 171.292Z" fill="#FFCB39"/>
<path d="M322.672 194.851C321.423 198.9 319.953 202.894 318.246 206.776C317.844 206.638 317.441 206.513 317.025 206.388C321.895 195.309 324.892 183.384 325.752 171.292C326.001 167.604 326.085 163.887 325.96 160.199C326.39 160.352 326.834 160.504 327.25 160.657C327.569 172.193 326.029 183.786 322.672 194.851Z" fill="#FFCB39"/>
<path d="M308.632 188.528C308.535 193.728 308.035 198.886 307.175 204.003C306.745 203.92 306.342 203.85 305.926 203.781C308.063 190.941 307.841 177.74 305.205 164.997C304.47 161.475 303.582 157.98 302.5 154.555C302.957 154.625 303.429 154.68 303.901 154.749C307.244 165.648 308.867 177.088 308.618 188.514L308.632 188.528Z" fill="#FFCB39"/>
<path d="M296.34 202.616C295.91 202.575 295.466 202.533 295.063 202.519C293.718 189.305 289.888 176.339 283.77 164.539C281.939 161.003 279.913 157.564 277.68 154.25C278.165 154.195 278.651 154.153 279.136 154.112C285.615 163.943 290.485 174.828 293.44 186.254C294.841 191.634 295.812 197.111 296.354 202.63L296.34 202.616Z" fill="#FFCB39"/>
<path d="M285.088 202.353C284.658 202.353 284.214 202.394 283.756 202.422C278.887 190.414 271.825 179.321 262.988 169.864C259.63 166.286 256.023 162.931 252.194 159.838C252.666 159.672 253.151 159.519 253.637 159.367C263.432 167.423 271.783 177.199 278.165 188.154C280.815 192.716 283.146 197.458 285.102 202.367L285.088 202.353Z" fill="#FFCB39"/>
<path d="M272.63 203.573C272.158 203.656 271.686 203.726 271.187 203.809C263.626 194.671 254.552 186.795 244.383 180.652C238.875 177.324 233.076 174.481 227.069 172.207C227.499 171.916 227.929 171.625 228.359 171.334C241.581 176.492 253.762 184.271 263.959 194.13C267.039 197.111 269.924 200.259 272.616 203.587L272.63 203.573Z" fill="#FFCB39"/>
<path d="M257.868 207.164C257.355 207.331 256.842 207.525 256.328 207.719C247.962 202.602 238.903 198.651 229.455 196.044C222.116 194.005 214.583 192.771 206.994 192.341C207.257 191.925 207.535 191.523 207.798 191.107C208.992 191.19 210.171 191.274 211.35 191.385C225.529 192.771 239.416 196.959 251.958 203.726C253.97 204.807 255.94 205.958 257.868 207.164Z" fill="#FFCB39"/>
<path d="M242.233 216.067C241.858 216.4 241.497 216.76 241.151 217.135C233.95 215.637 226.597 214.874 219.23 214.916C213.057 214.944 206.911 215.512 200.848 216.594C200.751 216.178 200.667 215.776 200.612 215.332C214.361 212.878 228.567 213.099 242.219 216.067H242.233Z" fill="#FFCB39"/>
</g>
<g style="mix-blend-mode:multiply" opacity="0.5">
<path d="M377.042 211.865C377.264 224.678 366.207 230.474 354.845 228.713C354.193 228.616 353.554 228.491 352.888 228.325C348.005 227.215 343.163 224.664 339.292 220.684C338.987 220.393 338.696 220.088 338.418 219.755C338.113 219.423 337.822 219.062 337.516 218.701C335.338 215.998 332.591 213.723 329.47 211.81C329.109 211.588 328.748 211.38 328.374 211.172C325.238 209.383 321.798 207.927 318.232 206.762C317.83 206.624 317.428 206.499 317.011 206.374C313.751 205.362 310.407 204.585 307.175 203.989C306.745 203.906 306.343 203.837 305.926 203.767C302.527 203.185 299.253 202.811 296.312 202.589C295.882 202.547 295.438 202.505 295.036 202.492C292.594 202.325 290.416 202.256 288.626 202.256C287.572 202.256 286.378 202.284 285.088 202.339C284.658 202.339 284.214 202.381 283.756 202.408C280.51 202.575 276.681 202.921 272.644 203.559C272.172 203.643 271.7 203.712 271.201 203.795C266.844 204.544 262.252 205.612 257.868 207.151C257.355 207.317 256.842 207.511 256.328 207.705C251.001 209.702 246.062 212.406 242.233 216.053C241.858 216.386 241.497 216.746 241.151 217.121C240.665 217.634 240.193 218.161 239.749 218.715C226.847 234.787 204.413 232.374 200.848 216.58C200.751 216.164 200.667 215.762 200.612 215.318C199.988 211.352 200.515 206.624 202.568 201.188C202.998 200.079 203.456 198.97 203.969 197.874C204.372 198.373 204.816 198.831 205.315 199.219C207.438 200.883 210.185 201.535 212.876 201.757C223.698 202.644 233.839 197.098 243.662 192.466C258.964 185.228 275.876 179.751 292.649 182.066C302.985 183.495 312.669 187.793 322.242 191.967C331.814 196.127 341.609 200.245 352 201.258C359.201 201.965 366.804 200.966 373.227 197.763C373.782 198.872 374.281 200.01 374.725 201.16C376.002 204.433 376.737 207.414 376.973 210.132C377.042 210.714 377.056 211.269 377.056 211.824L377.042 211.865Z" fill="#FFCB39"/>
</g>
<path d="M415.805 216.802C413.294 221.045 407.814 222.459 403.555 219.936C399.309 217.426 397.908 211.949 400.419 207.692C402.625 203.961 407.134 202.422 411.074 203.823C411.615 204.003 412.156 204.253 412.67 204.558C413.225 204.891 413.724 205.265 414.182 205.681C417.22 208.468 417.997 213.099 415.805 216.802Z" fill="#FFCB39"/>
<path d="M407.384 213.016C404.457 211.283 406.094 207.289 408.73 206.97C409.354 205.82 410.131 204.752 411.088 203.823C411.629 204.003 412.17 204.253 412.684 204.558C413.238 204.89 413.738 205.265 414.196 205.681C413.238 206.485 412.42 207.414 411.823 208.482C413.377 210.95 410.491 214.833 407.398 213.002L407.384 213.016Z" fill="#2A3D61"/>
<path d="M415.958 215.942C409.645 216.136 404.401 212.642 399.934 208.523C398.713 207.386 396.826 209.189 398.061 210.326C403.041 214.916 408.91 218.757 415.944 218.549C417.609 218.493 417.636 215.9 415.958 215.956V215.942Z" fill="#FFAB15"/>
<path d="M368.885 158.549C369.8 163.402 366.609 168.075 361.754 168.976C356.898 169.891 352.222 166.702 351.321 161.849C350.516 157.592 352.888 153.46 356.773 151.907C357.3 151.685 357.869 151.518 358.452 151.408C359.076 151.283 359.714 151.241 360.325 151.255C364.459 151.352 368.094 154.319 368.885 158.535V158.549Z" fill="#FFCB39"/>
<path d="M360.047 161.253C356.704 161.877 355.288 157.8 357.064 155.817C356.773 154.541 356.662 153.224 356.759 151.907C357.286 151.685 357.855 151.518 358.438 151.408C359.062 151.283 359.7 151.241 360.311 151.255C360.116 152.489 360.117 153.723 360.38 154.93C363.183 155.762 363.571 160.587 360.033 161.253H360.047Z" fill="#2A3D61"/>
<path d="M368.427 157.8C363.807 162.112 357.564 162.944 351.487 162.792C349.822 162.75 349.6 165.343 351.265 165.385C358.035 165.551 364.986 164.567 370.119 159.769C371.34 158.632 369.648 156.663 368.413 157.8H368.427Z" fill="#FFAB15"/>
<path d="M260.74 122.08C261.656 126.933 258.465 131.606 253.609 132.508C248.753 133.423 244.078 130.233 243.176 125.38C242.371 121.123 244.744 116.991 248.628 115.438C249.156 115.216 249.724 115.05 250.307 114.939C250.931 114.814 251.57 114.772 252.18 114.786C256.314 114.883 259.949 117.851 260.74 122.066V122.08Z" fill="#FFCB39"/>
<path d="M251.903 124.784C248.559 125.408 247.144 121.331 248.92 119.348C248.628 118.073 248.517 116.755 248.615 115.438C249.142 115.216 249.711 115.05 250.293 114.939C250.918 114.814 251.556 114.772 252.166 114.786C251.972 116.02 251.972 117.254 252.236 118.461C255.038 119.293 255.426 124.118 251.889 124.784H251.903Z" fill="#2A3D61"/>
<path d="M260.268 121.331C255.648 125.644 249.405 126.476 243.329 126.323C241.664 126.281 241.442 128.874 243.107 128.916C249.877 129.082 256.828 128.098 261.961 123.3C263.182 122.163 261.489 120.194 260.254 121.331H260.268Z" fill="#FFAB15"/>
<path d="M225.057 158.008C221.339 161.253 215.693 160.865 212.446 157.148C209.2 153.432 209.588 147.788 213.306 144.544C216.58 141.687 221.325 141.646 224.641 144.197C225.099 144.544 225.529 144.946 225.917 145.403C226.334 145.889 226.708 146.402 227 146.943C229.011 150.548 228.29 155.179 225.057 158.008Z" fill="#FFCB39"/>
<path d="M218.231 151.768C215.998 149.203 218.8 145.916 221.408 146.443C222.366 145.542 223.434 144.779 224.627 144.197C225.085 144.544 225.515 144.946 225.904 145.403C226.32 145.889 226.694 146.402 226.986 146.943C225.82 147.4 224.766 148.024 223.85 148.856C224.544 151.685 220.59 154.472 218.231 151.768Z" fill="#2A3D61"/>
<path d="M225.46 157.232C219.397 155.443 215.526 150.479 212.571 145.168C211.766 143.712 209.408 144.835 210.226 146.291C213.514 152.212 217.898 157.703 224.627 159.7C226.223 160.171 227.069 157.717 225.46 157.232Z" fill="#FFAB15"/>
<path d="M179.691 215.706C175.973 218.951 170.326 218.563 167.08 214.847C163.833 211.13 164.222 205.487 167.94 202.242C171.214 199.386 175.959 199.344 179.274 201.895C179.732 202.242 180.162 202.644 180.551 203.102C180.967 203.587 181.342 204.1 181.633 204.641C183.645 208.246 182.923 212.878 179.691 215.706Z" fill="#FFCB39"/>
<path d="M172.879 209.466C170.645 206.901 173.447 203.615 176.056 204.142C177.013 203.24 178.081 202.478 179.274 201.895C179.732 202.242 180.162 202.644 180.551 203.102C180.967 203.587 181.342 204.1 181.633 204.641C180.468 205.098 179.413 205.722 178.497 206.554C179.191 209.383 175.237 212.17 172.879 209.466Z" fill="#2A3D61"/>
<path d="M180.107 214.93C174.044 213.141 170.173 208.177 167.218 202.866C166.414 201.41 164.055 202.533 164.874 203.989C168.162 209.91 172.546 215.401 179.274 217.398C180.87 217.87 181.716 215.415 180.107 214.93Z" fill="#FFAB15"/>
<path d="M211.059 247.89C218.12 251.08 224.253 251.454 224.253 251.454L226.986 280.033C218.342 280.712 210.601 278.064 210.601 278.064C210.601 278.064 209.311 260.467 211.059 247.89Z" fill="#FFAB15"/>
<path d="M366.207 247.89C359.145 251.08 353.013 251.454 353.013 251.454L350.28 280.033C358.923 280.712 366.665 278.064 366.665 278.064C366.665 278.064 367.955 260.467 366.207 247.89Z" fill="#FFAB15"/>
<path d="M356.87 244.549C356.315 231.764 353.721 221.711 348.754 216.025C348.435 215.665 348.116 215.318 347.783 214.985C346.493 213.737 345.064 212.753 343.482 212.046C336.06 208.759 327.375 209.245 318.648 210.77C317.15 211.033 315.652 211.325 314.167 211.63C313.765 211.727 313.363 211.81 312.96 211.893C304.178 213.779 295.632 216.122 288.64 216.122C281.648 216.122 273.129 213.779 264.333 211.879C263.931 211.796 263.529 211.713 263.126 211.616C252.943 209.494 242.482 208.177 233.811 212.032C232.23 212.739 230.801 213.71 229.525 214.971C229.192 215.304 228.872 215.651 228.553 216.011C223.587 221.697 220.992 231.75 220.437 244.535C219.938 255.947 221.048 269.536 223.49 284.165C224.475 290.1 225.695 296.215 227.111 302.413C227.36 303.481 227.596 304.521 227.874 305.547C232.882 325.612 240.915 339.908 250.141 349.698C252.041 351.722 253.998 353.553 255.995 355.189C266.747 364.105 278.498 367.696 288.681 367.696C298.865 367.696 310.616 364.105 321.381 355.189C332.994 345.565 343.427 329.744 349.489 305.547C349.753 304.507 350.003 303.467 350.252 302.399C351.654 296.27 352.847 290.238 353.832 284.373C356.301 269.661 357.425 255.988 356.926 244.521L356.87 244.549ZM256.509 279.589C248.753 277.149 242.038 271.033 239.486 263.324C246.769 261.604 254.428 260.925 261.697 262.672C268.967 264.419 275.793 268.843 279.317 275.429C272.796 280.296 264.264 282.029 256.509 279.589ZM279.941 308.889C277.707 308.251 275.765 306.67 274.877 304.535C279.136 303.786 283.729 305.325 286.698 308.473C284.492 309.18 282.175 309.513 279.941 308.889ZM297.325 308.889C295.105 309.527 292.788 309.18 290.568 308.473C293.523 305.325 298.129 303.786 302.389 304.535C301.501 306.656 299.558 308.251 297.325 308.889ZM320.757 279.589C313.016 282.029 304.47 280.296 297.949 275.429C301.473 268.843 308.299 264.419 315.568 262.672C322.838 260.925 330.496 261.604 337.78 263.324C335.227 271.033 328.513 277.149 320.757 279.589Z" fill="white"/>
<path d="M255.302 226.162C252.485 229.864 247.546 230.904 243.162 230.044C242.149 229.85 241.178 229.559 240.235 229.198C242.302 232.318 242.968 236.27 241.858 239.945C240.748 243.592 237.849 246.795 234.075 247.738C230.607 248.597 226.639 247.308 224.655 244.271C222.449 240.888 222.754 235.521 225.973 232.873C227.402 231.694 229.275 231.084 231.106 231.486C232.84 231.875 234.255 233.095 234.88 234.745C235.143 235.452 234.02 235.743 233.756 235.05C233.104 233.289 231.148 232.291 229.316 232.554C227.416 232.831 225.848 234.232 225.085 235.937C223.628 239.113 224.447 243.425 227.388 245.45C229.968 247.252 233.395 247.252 236.087 245.658C239.042 243.911 240.901 240.638 241.192 237.255C241.47 233.844 240.193 230.53 237.807 228.117C233.173 225.579 229.677 221.156 228.512 216.053C228.831 215.692 229.15 215.346 229.483 215.013C229.968 217.869 231.175 220.573 233.062 222.806C234.366 224.345 235.934 225.662 237.654 226.702C237.821 226.661 238.001 226.675 238.182 226.827C238.32 226.952 238.445 227.091 238.584 227.229C239.874 227.909 241.234 228.422 242.649 228.768C246.561 229.711 251.015 229.143 253.859 226.078C256.495 223.222 256.744 218.272 253.304 215.928C251.847 214.916 249.96 214.597 248.337 215.374C246.769 216.136 245.632 217.661 245.604 219.423C245.604 220.171 244.425 220.171 244.452 219.423C244.494 217.273 245.84 215.318 247.768 214.389C249.794 213.391 252.166 213.696 253.998 214.985C257.66 217.564 257.896 222.75 255.288 226.175L255.302 226.162Z" fill="#FFAB15"/>
<path d="M271.173 229.587C269.342 230.141 267.386 229.975 265.679 229.226C265.499 231.625 264.444 233.899 262.627 235.507C260.99 236.963 258.562 238.142 256.328 237.587C254.344 237.102 252.943 235.092 252.929 233.095C252.929 231.07 254.303 228.671 256.314 228.047C257.299 227.728 258.312 228.117 258.964 228.879C259.769 229.822 259.852 231.098 259.713 232.277C259.63 233.012 258.479 233.025 258.562 232.277C258.673 231.264 258.701 230.003 257.771 229.337C256.897 228.699 255.94 229.42 255.343 230.072C254.233 231.25 253.72 233.053 254.428 234.565C255.204 236.229 256.897 236.839 258.617 236.395C262.127 235.494 264.472 232.18 264.528 228.63C263.82 228.172 263.182 227.617 262.655 226.952C260.587 224.373 260.338 220.795 260.851 217.661C261.198 215.526 261.975 213.488 263.099 211.657C263.501 211.754 263.903 211.837 264.306 211.921C263.154 213.682 262.391 215.665 262.016 217.745C261.545 220.379 261.683 223.402 263.168 225.69C264.652 227.978 267.483 229.184 270.16 228.657C272.588 228.172 275.224 226.148 274.697 223.388C274.211 220.74 271.242 219.506 268.967 220.865C268.329 221.253 267.746 220.241 268.384 219.866C271.284 218.133 275.155 219.714 275.821 223.069C276.445 226.175 273.989 228.741 271.173 229.6V229.587Z" fill="#FFAB15"/>
<path d="M352.611 244.257C350.627 247.294 346.659 248.584 343.191 247.724C339.417 246.795 336.518 243.578 335.408 239.931C334.298 236.256 334.964 232.305 337.031 229.185C336.101 229.531 335.116 229.822 334.104 230.03C329.72 230.89 324.781 229.85 321.964 226.148C319.356 222.723 319.592 217.537 323.254 214.958C325.086 213.668 327.472 213.363 329.484 214.361C331.412 215.29 332.758 217.246 332.799 219.395C332.827 220.144 331.648 220.144 331.648 219.395C331.606 217.648 330.483 216.109 328.915 215.346C327.292 214.556 325.405 214.888 323.948 215.901C320.507 218.244 320.771 223.194 323.393 226.051C326.237 229.115 330.691 229.684 334.603 228.741C336.018 228.394 337.392 227.881 338.668 227.202C338.807 227.077 338.932 226.938 339.07 226.8C339.251 226.647 339.431 226.619 339.597 226.675C341.332 225.635 342.899 224.318 344.19 222.778C346.076 220.546 347.283 217.828 347.769 214.985C348.102 215.318 348.421 215.665 348.74 216.025C347.575 221.142 344.079 225.552 339.445 228.089C337.059 230.516 335.782 233.816 336.06 237.227C336.337 240.624 338.196 243.883 341.165 245.63C343.857 247.225 347.283 247.225 349.864 245.422C352.805 243.384 353.624 239.071 352.167 235.91C351.39 234.204 349.836 232.818 347.936 232.526C346.104 232.263 344.162 233.247 343.496 235.022C343.232 235.716 342.122 235.425 342.372 234.717C342.997 233.053 344.412 231.847 346.146 231.459C347.977 231.057 349.85 231.667 351.279 232.845C354.512 235.494 354.817 240.874 352.597 244.244L352.611 244.257Z" fill="#FFAB15"/>
<path d="M324.337 233.095C324.337 235.092 322.935 237.088 320.938 237.587C318.718 238.142 316.276 236.95 314.639 235.507C312.821 233.899 311.767 231.625 311.587 229.226C309.88 229.975 307.924 230.155 306.093 229.587C303.276 228.727 300.835 226.175 301.445 223.055C302.111 219.7 305.982 218.119 308.881 219.852C309.52 220.227 308.937 221.239 308.299 220.851C306.023 219.492 303.054 220.74 302.569 223.374C302.042 226.134 304.678 228.172 307.106 228.644C309.783 229.171 312.613 227.964 314.098 225.676C315.582 223.388 315.707 220.351 315.249 217.731C314.875 215.651 314.098 213.668 312.96 211.921C313.363 211.824 313.765 211.74 314.167 211.657C315.291 213.488 316.068 215.526 316.415 217.661C316.928 220.795 316.678 224.373 314.611 226.952C314.084 227.617 313.446 228.186 312.738 228.63C312.78 232.18 315.138 235.494 318.648 236.395C320.369 236.839 322.047 236.229 322.838 234.565C323.546 233.053 323.032 231.25 321.923 230.072C321.312 229.42 320.369 228.699 319.495 229.337C318.565 229.989 318.593 231.264 318.704 232.277C318.787 233.025 317.622 233.012 317.552 232.277C317.414 231.098 317.497 229.822 318.302 228.879C318.954 228.117 319.98 227.728 320.951 228.047C322.963 228.685 324.337 231.07 324.337 233.095Z" fill="#FFAB15"/>
<path d="M262.807 351.708C260.976 353.58 258.534 354.703 255.94 355.203C253.956 353.566 252 351.736 250.085 349.712C240.859 339.922 232.826 325.626 227.818 305.561C228.262 304.854 228.748 304.188 229.303 303.578C230.842 301.831 232.937 300.486 235.254 300.264C239.319 299.889 243.079 303.356 243.898 307.35C244.73 311.343 243.093 315.531 240.471 318.651C243.703 315.018 249.059 313.187 253.692 314.685C258.326 316.196 261.697 321.244 260.754 326.014C260.213 328.746 258.451 331.131 256.301 332.905C254.164 334.68 251.639 335.942 249.156 337.19C251.736 336.76 254.372 336.317 256.994 336.552C259.602 336.816 262.252 337.842 263.917 339.866C266.65 343.236 265.818 348.602 262.793 351.694L262.807 351.708Z" fill="#4667A4"/>
<path d="M349.434 305.561C343.371 329.772 332.938 345.593 321.326 355.217C318.732 354.731 316.29 353.594 314.445 351.722C311.42 348.63 310.588 343.25 313.321 339.894C314.986 337.856 317.636 336.83 320.244 336.58C322.866 336.331 325.502 336.774 328.082 337.218C325.585 335.984 323.074 334.722 320.938 332.933C318.787 331.158 317.011 328.787 316.484 326.042C315.555 321.272 318.912 316.224 323.546 314.713C328.18 313.215 333.535 315.046 336.767 318.679C334.145 315.559 332.508 311.357 333.341 307.377C334.159 303.384 337.933 299.917 341.984 300.292C344.301 300.5 346.396 301.859 347.936 303.606C348.49 304.23 348.976 304.895 349.42 305.589L349.434 305.561Z" fill="#4667A4"/>
<path d="M288.668 326.236L269.578 324.641C273.615 333.308 282.757 334.861 288.737 334.805C294.716 334.75 303.859 333.03 307.73 324.281L288.668 326.236Z" fill="#623E96"/>
<path d="M295.618 319.344C290.873 319.719 289.278 322.201 288.626 322.201C287.974 322.201 286.323 319.746 281.578 319.469C276.833 319.192 272.907 324.364 266.65 323.254C266.65 323.254 273.989 329.3 288.695 329.148C303.401 328.995 310.616 322.825 310.616 322.825C304.386 324.059 300.363 318.956 295.618 319.33V319.344Z" fill="#8658BC"/>
<g style="mix-blend-mode:multiply">
<path d="M353.776 284.401C352.791 290.252 351.598 296.298 350.197 302.427C339.001 351.5 310.283 367.724 288.64 367.724C276.57 367.724 262.308 362.691 250.099 349.712C262.391 352.956 276.376 350.946 287.835 344.983C304.525 336.303 316.623 320.772 325.946 304.424C333.59 290.987 339.833 276.4 341.29 261.008C342.761 245.616 339.001 229.254 328.707 217.703C325.988 214.68 322.45 211.921 318.648 210.784C327.375 209.259 336.074 208.773 343.482 212.06C351.959 215.817 356.135 227.84 356.87 244.562C357.37 256.03 356.246 269.702 353.776 284.415V284.401Z" fill="#FFFBDE"/>
</g>
<path d="M363.46 244.909C361.268 244.59 359.062 244.465 356.856 244.549C348.823 244.798 340.888 247.571 334.381 252.355C335.297 249.762 335.671 246.448 335.685 243.717C317.358 243.051 300.419 250.761 288.681 264.849C276.931 250.761 260.019 243.051 241.678 243.717C241.706 246.448 242.066 249.762 242.982 252.355C236.447 247.544 228.456 244.77 220.382 244.549C218.231 244.479 216.053 244.59 213.917 244.909C212.391 254.421 213.431 264.128 217.108 273.016C218.745 276.982 220.881 280.74 223.434 284.165C226.611 288.45 230.412 292.263 234.741 295.397C272.546 295.965 288.681 287.008 288.681 287.008C288.681 287.008 304.83 295.965 342.622 295.397C346.853 292.305 350.627 288.574 353.762 284.387C356.398 280.879 358.577 277.051 360.255 273.002C363.932 264.114 364.958 254.394 363.446 244.895L363.46 244.909ZM256.509 279.589C248.753 277.149 242.038 271.033 239.486 263.324C246.769 261.604 254.428 260.925 261.697 262.672C268.967 264.419 275.793 268.843 279.317 275.429C272.796 280.296 264.264 282.03 256.509 279.589ZM320.757 279.589C313.016 282.03 304.47 280.296 297.949 275.429C301.473 268.843 308.299 264.419 315.568 262.672C322.838 260.925 330.496 261.604 337.78 263.324C335.227 271.033 328.513 277.149 320.757 279.589Z" fill="#BA1A5B"/>
<path d="M279.941 276.663C271.45 283.125 260.99 287.257 250.307 287.937C245.132 288.269 239.292 287.631 235.24 284.054C233.465 282.487 232.133 280.324 232.133 277.897C232.133 275.72 233.215 273.377 235.324 272.517C237.502 271.63 240.332 272.462 241.539 274.514C242.788 276.649 242.149 279.52 240.249 281.045C239.666 281.516 240.485 282.334 241.067 281.863C242.926 280.379 243.703 277.8 243.162 275.512C242.635 273.266 240.748 271.602 238.515 271.144C237.349 270.909 236.17 270.992 235.116 271.38C235.781 267.511 234.325 262.824 230.44 261.299C228.553 260.564 226.375 260.855 224.863 262.242C223.406 263.573 222.81 265.833 223.767 267.622C224.821 269.591 227.554 270.229 229.164 268.537C229.677 267.997 228.859 267.178 228.345 267.719C227.235 268.87 225.473 268.357 224.766 267.04C224.003 265.598 224.696 263.795 225.917 262.852C227.194 261.868 228.956 261.84 230.371 262.533C231.814 263.24 232.854 264.572 233.451 266.041C234.214 267.913 234.311 270.007 233.798 271.949C233.798 271.99 233.798 272.018 233.798 272.059C233.284 272.42 232.813 272.85 232.41 273.377C230.967 275.29 230.607 277.967 231.314 280.255C233.035 285.787 239.222 288.353 244.494 288.977C250.46 289.684 256.758 288.574 262.474 286.841C268.981 284.886 275.113 281.752 280.524 277.648C281.106 277.204 280.524 276.192 279.941 276.649V276.663Z" fill="#CC366F"/>
<path d="M297.436 276.663C305.926 283.125 316.387 287.257 327.07 287.937C332.244 288.269 338.085 287.631 342.136 284.054C343.912 282.487 345.244 280.324 345.244 277.897C345.244 275.72 344.162 273.377 342.053 272.517C339.875 271.63 337.045 272.462 335.838 274.514C334.589 276.649 335.227 279.52 337.128 281.045C337.711 281.516 336.892 282.334 336.309 281.863C334.45 280.379 333.673 277.8 334.215 275.512C334.742 273.266 336.629 271.602 338.862 271.144C340.028 270.909 341.207 270.992 342.261 271.38C341.595 267.511 343.052 262.824 346.937 261.299C348.823 260.564 351.002 260.855 352.514 262.242C353.971 263.573 354.567 265.833 353.61 267.622C352.555 269.591 349.822 270.229 348.213 268.537C347.7 267.997 348.518 267.178 349.032 267.719C350.141 268.87 351.903 268.357 352.611 267.04C353.374 265.598 352.68 263.795 351.459 262.852C350.183 261.868 348.421 261.84 347.006 262.533C345.563 263.24 344.523 264.572 343.926 266.041C343.163 267.913 343.066 270.007 343.579 271.949C343.579 271.99 343.579 272.018 343.579 272.059C344.093 272.42 344.564 272.85 344.967 273.377C346.409 275.29 346.77 277.967 346.063 280.255C344.342 285.787 338.155 288.353 332.883 288.977C326.917 289.684 320.618 288.574 314.903 286.841C308.396 284.886 302.264 281.752 296.853 277.648C296.27 277.204 296.853 276.192 297.436 276.649V276.663Z" fill="#CC366F"/>
<path d="M481.108 303.772L483.12 314.005C489.321 316.848 497.285 316.64 497.285 316.64L501.835 306.379L481.108 303.786V303.772Z" fill="#472975"/>
<path d="M470.009 294.079L471.591 303.051C491.541 310.247 511.061 309.526 511.061 309.526L515.348 301.512L470.023 294.079H470.009Z" fill="#623E96"/>
<path d="M512.213 305.2C512.213 305.2 489.196 305.38 472.132 297.726C472.132 297.726 472.021 297.171 471.882 296.173C470.897 289.531 467.984 263.088 480.831 244.77L522.784 251.648C524.824 286.258 512.213 305.2 512.213 305.2Z" fill="#4667A4"/>
<path d="M492.609 297.559C488.919 295.036 486.657 290.696 486.255 286.244C485.853 281.793 487.24 277.273 489.682 273.529C492.359 269.424 496.327 266.166 500.892 264.349C500.781 266.831 502.126 269.133 503.32 271.324C505.179 274.749 506.58 278.493 506.705 282.39C506.816 286.272 505.512 290.335 502.612 292.928C499.948 295.327 496.105 296.755 492.609 297.573V297.559Z" fill="#FFAB15"/>
<path d="M492.845 296.616C489.973 294.661 488.211 291.278 487.906 287.825C487.601 284.372 488.669 280.864 490.57 277.952C492.651 274.763 495.731 272.239 499.282 270.811C499.199 272.738 500.24 274.527 501.169 276.219C502.612 278.881 503.708 281.793 503.791 284.816C503.875 287.839 502.862 290.987 500.614 293.011C498.547 294.869 495.564 295.979 492.845 296.616Z" fill="#FFCB39"/>
<g style="mix-blend-mode:soft-light" opacity="0.5">
<path d="M493.317 295.729C491.208 294.287 489.918 291.819 489.696 289.281C489.474 286.744 490.251 284.165 491.652 282.029C493.178 279.686 495.439 277.828 498.034 276.788C497.964 278.202 498.741 279.519 499.421 280.767C500.476 282.722 501.28 284.858 501.35 287.076C501.419 289.295 500.67 291.597 499.019 293.095C497.493 294.467 495.315 295.272 493.317 295.743V295.729Z" fill="white"/>
</g>
<path d="M496.3 294.024C496.3 294.024 496.327 293.996 496.355 293.968C496.438 293.871 496.522 293.774 496.605 293.663C496.605 293.649 496.633 293.621 496.646 293.608C496.716 293.497 496.785 293.386 496.841 293.261C496.841 293.247 496.841 293.233 496.868 293.219C497.049 292.845 497.146 292.443 497.16 292.027C497.16 291.999 497.16 291.958 497.16 291.93C497.16 291.847 497.16 291.763 497.16 291.68C497.16 291.597 497.16 291.514 497.146 291.444C497.146 291.375 497.118 291.306 497.104 291.236C497.09 291.153 497.063 291.056 497.035 290.973C497.007 290.904 496.993 290.848 496.966 290.779C496.924 290.696 496.896 290.612 496.841 290.529C496.813 290.474 496.771 290.418 496.73 290.363C496.674 290.28 496.619 290.21 496.549 290.127C496.508 290.072 496.466 290.03 496.411 289.975C496.341 289.905 496.258 289.836 496.175 289.767C496.119 289.725 496.078 289.683 496.022 289.656C495.925 289.586 495.814 289.545 495.703 289.489C495.648 289.462 495.592 289.434 495.537 289.42C495.356 289.351 495.176 289.295 494.968 289.267C494.76 289.24 494.579 289.226 494.399 289.226C494.343 289.226 494.288 289.226 494.232 289.24C494.108 289.24 493.983 289.267 493.872 289.295C493.816 289.295 493.761 289.323 493.705 289.337C493.594 289.364 493.483 289.406 493.386 289.462C493.345 289.489 493.289 289.503 493.247 289.531C493.123 289.6 493.012 289.683 492.901 289.767C492.901 289.767 492.873 289.78 492.859 289.794C492.734 289.891 492.637 290.002 492.54 290.127C492.512 290.169 492.484 290.21 492.443 290.252C492.387 290.335 492.332 290.418 492.276 290.502C492.249 290.557 492.221 290.612 492.193 290.668C492.151 290.751 492.124 290.834 492.082 290.918C492.054 290.987 492.027 291.042 492.013 291.112C491.985 291.195 491.971 291.292 491.943 291.375C491.916 291.486 491.902 291.597 491.888 291.708C491.888 291.805 491.86 291.902 491.86 291.985C491.86 292.068 491.86 292.152 491.86 292.249C491.86 292.318 491.86 292.373 491.874 292.443C491.874 292.526 491.902 292.623 491.916 292.706C491.916 292.762 491.943 292.831 491.957 292.887C491.985 292.97 492.013 293.067 492.04 293.15C492.068 293.205 492.082 293.247 492.11 293.303C492.207 293.511 492.332 293.691 492.484 293.871C492.484 293.871 492.484 293.871 492.484 293.885C492.04 295.202 491.596 296.52 491.166 297.837C491.042 298.197 490.986 298.53 491.125 298.905C491.25 299.21 491.527 299.529 491.832 299.667C492.457 299.917 493.414 299.723 493.664 298.988L495.106 294.675C495.259 294.648 495.398 294.592 495.523 294.537C495.537 294.537 495.564 294.537 495.578 294.523C495.703 294.467 495.814 294.398 495.925 294.329C495.939 294.329 495.967 294.301 495.981 294.287C496.092 294.204 496.189 294.121 496.286 294.037L496.3 294.024Z" fill="#623E96"/>
<g style="mix-blend-mode:multiply">
<path d="M512.213 305.2C512.213 305.2 489.196 305.38 472.132 297.726C472.132 297.726 472.021 297.171 471.882 296.173C480.664 295.535 489.626 296.256 498.2 298.322C506.275 285.274 509.202 269.119 506.164 254.088C505.761 252.078 507.079 250.511 508.966 249.387L522.784 251.648C524.824 286.258 512.213 305.2 512.213 305.2Z" fill="#4667A4"/>
</g>
<path d="M479.707 237.56L475.295 247.876C500.961 258.539 527.765 257.735 527.765 257.735L525.975 245.144L479.721 237.56H479.707Z" fill="#472975"/>
<path d="M489.03 229.489L484.951 238.336C501.502 245.838 519.704 244.34 519.704 244.34L519.052 234.426C508.051 228.13 489.03 229.503 489.03 229.503V229.489Z" fill="#623E96"/>
<path d="M512.67 213.321C509.743 211.088 505.595 210.825 502.307 212.406C498.88 214.042 496.577 217.134 495.731 220.823C494.815 224.844 496.064 229.101 498.478 232.36C500.184 234.675 503.805 232.068 502.099 229.753C500.67 227.825 499.726 225.44 499.907 223.014C500.087 220.615 501.211 218.327 503.195 216.982C504.998 215.748 507.44 215.387 509.41 216.482C511.477 217.633 511.949 220.213 511.685 222.417C511.283 225.662 509.84 228.727 507.787 231.25C505.983 233.483 509.41 236.325 511.228 234.093C513.683 231.056 515.459 227.354 516.042 223.471C516.583 219.824 515.764 215.678 512.684 213.321H512.67Z" fill="#623E96"/>
<path d="M86.0162 281.738L93.1472 292.471C101.568 292.79 110.559 288.782 110.559 288.782L110.892 274.93L86.0162 281.738Z" fill="#472975"/>
<path d="M68.7713 275.9L74.8064 285.385C100.972 284.179 122.878 274.153 122.878 274.153L123.988 262.991L68.7713 275.887V275.9Z" fill="#623E96"/>
<path d="M122.171 268.704C122.171 268.704 95.9913 279.755 72.9196 279.076C72.9196 279.076 72.5311 278.493 71.8929 277.412C67.6199 270.298 51.8317 241.498 57.839 214.555L108.963 202.616C127.623 241.137 122.171 268.704 122.171 268.704Z" fill="#4667A4"/>
<path d="M96.1994 269.217C90.8026 268.08 86.1549 264.183 83.6161 259.288C81.0633 254.394 80.5084 248.597 81.535 243.176C82.6588 237.227 85.6416 231.639 89.984 227.409C91.0246 230.294 93.6605 232.277 96.0329 234.218C99.7649 237.255 103.15 240.86 105.12 245.242C107.09 249.623 107.506 254.865 105.425 259.205C103.511 263.199 99.8204 266.638 96.2133 269.217H96.1994Z" fill="#FFAB15"/>
<path d="M96.019 268.038C91.8154 267.151 88.2221 264.128 86.2382 260.328C84.2543 256.529 83.8242 252.022 84.615 247.807C85.489 243.19 87.8059 238.849 91.1772 235.563C91.9818 237.809 94.0351 239.349 95.8803 240.846C98.7799 243.203 101.402 246.004 102.942 249.416C104.482 252.827 104.787 256.89 103.178 260.259C101.693 263.365 98.8215 266.028 96.019 268.038Z" fill="#FFCB39"/>
<g style="mix-blend-mode:soft-light" opacity="0.5">
<path d="M96.13 266.804C93.0501 266.152 90.4003 263.934 88.9574 261.146C87.5007 258.359 87.1816 255.045 87.7643 251.953C88.4025 248.556 90.1089 245.38 92.5784 242.968C93.175 244.618 94.6733 245.741 96.0329 246.85C98.1556 248.583 100.084 250.636 101.208 253.132C102.332 255.628 102.567 258.623 101.388 261.091C100.292 263.365 98.1833 265.334 96.13 266.804Z" fill="white"/>
</g>
<path d="M98.7383 263.448C98.7383 263.448 98.766 263.393 98.766 263.365C98.8215 263.212 98.877 263.06 98.9048 262.907C98.9048 262.88 98.9048 262.852 98.9186 262.824C98.9464 262.658 98.9741 262.505 98.988 262.339C98.988 262.311 98.988 262.297 98.988 262.27C99.0158 261.756 98.9325 261.257 98.766 260.772C98.766 260.73 98.7383 260.689 98.7244 260.661C98.6828 260.564 98.6412 260.481 98.5857 260.384C98.5441 260.3 98.5024 260.203 98.4469 260.12C98.4053 260.037 98.3498 259.968 98.2943 259.898C98.225 259.801 98.1695 259.718 98.0862 259.635C98.0307 259.566 97.9752 259.51 97.9059 259.455C97.8226 259.371 97.7394 259.288 97.6423 259.219C97.5729 259.163 97.5174 259.122 97.448 259.08C97.3509 259.011 97.2399 258.955 97.129 258.9C97.0596 258.858 96.9902 258.831 96.907 258.789C96.796 258.747 96.6711 258.706 96.5324 258.678C96.4491 258.664 96.3798 258.637 96.2965 258.623C96.1578 258.595 96.0052 258.595 95.8526 258.581C95.7832 258.581 95.7138 258.581 95.6306 258.581C95.3948 258.581 95.1589 258.623 94.9092 258.678C94.6595 258.734 94.4375 258.817 94.2294 258.914C94.16 258.942 94.1045 258.983 94.049 259.011C93.9103 259.08 93.7854 259.163 93.6606 259.247C93.6051 259.288 93.5496 259.33 93.4941 259.371C93.3831 259.469 93.286 259.566 93.1888 259.663C93.1472 259.704 93.1056 259.746 93.064 259.801C92.953 259.94 92.8559 260.079 92.7726 260.231C92.7726 260.245 92.7449 260.259 92.7449 260.287C92.6617 260.453 92.5923 260.633 92.5368 260.814C92.5229 260.883 92.509 260.938 92.4952 261.008C92.4674 261.132 92.4397 261.257 92.4258 261.382C92.4258 261.465 92.4119 261.535 92.3981 261.618C92.3981 261.729 92.3981 261.84 92.3981 261.951C92.3981 262.034 92.3981 262.117 92.3981 262.2C92.3981 262.311 92.4258 262.422 92.4536 262.533C92.4813 262.672 92.509 262.81 92.5507 262.935C92.5784 263.046 92.62 263.157 92.6617 263.268C92.7033 263.365 92.7449 263.462 92.8004 263.559C92.842 263.628 92.8698 263.698 92.9114 263.767C92.9669 263.864 93.0224 263.961 93.0917 264.044C93.1334 264.1 93.175 264.169 93.2305 264.225C93.2998 264.308 93.3692 264.405 93.4525 264.474C93.4941 264.53 93.5496 264.571 93.6051 264.613C93.8132 264.793 94.0351 264.96 94.2987 265.084C94.2987 265.084 94.2987 265.084 94.3126 265.084C94.4236 266.79 94.5485 268.509 94.6595 270.215C94.6872 270.686 94.7843 271.102 95.1312 271.449C95.4086 271.74 95.8803 271.976 96.2965 271.976C97.129 271.976 98.1278 271.297 98.0585 270.34L97.67 264.738C97.8226 264.627 97.9614 264.516 98.0862 264.391C98.1001 264.377 98.114 264.363 98.1417 264.349C98.2527 264.225 98.3637 264.1 98.4469 263.961C98.4608 263.934 98.4747 263.92 98.4886 263.892C98.5718 263.753 98.655 263.615 98.7105 263.462L98.7383 263.448Z" fill="#623E96"/>
<g style="mix-blend-mode:multiply">
<path d="M122.171 268.704C122.171 268.704 95.9913 279.755 72.9196 279.076C72.9196 279.076 72.5311 278.493 71.8929 277.412C81.6183 272.545 92.1761 269.147 102.928 267.456C105.98 248.764 101.693 228.962 91.1356 213.238C89.7343 211.144 90.4835 208.731 92.1067 206.554L108.949 202.616C127.609 241.137 122.157 268.704 122.157 268.704H122.171Z" fill="#4667A4"/>
</g>
<path d="M53.1497 206.859L52.9832 220.712C87.3065 220.781 117.495 207.22 117.495 207.22L109.504 193.7L53.1497 206.859Z" fill="#472975"/>
<path d="M59.9755 193.256L59.4899 205.265C81.9096 206.013 101.971 195.725 101.971 195.725L96.5463 184.715C81.0217 182.718 59.9755 193.256 59.9755 193.256Z" fill="#623E96"/>
<path d="M79.3014 163.652C74.9035 162.487 70.0616 164.137 67.0372 167.493C63.8878 170.973 62.7225 175.591 63.5133 180.194C64.3734 185.214 67.8002 189.485 72.0871 192.064C75.1254 193.894 78.0389 189.221 74.9867 187.391C72.4478 185.866 70.2558 183.591 69.2985 180.735C68.369 177.92 68.5771 174.786 70.2003 172.304C71.6848 170.058 74.2792 168.477 77.04 168.796C79.9396 169.129 81.7015 171.86 82.4368 174.495C83.519 178.392 83.3109 182.565 82.1732 186.406C81.1605 189.804 86.4324 191.426 87.4313 188.029C88.8048 183.411 89.0823 178.35 87.903 173.649C86.7931 169.24 83.8936 164.886 79.2736 163.652H79.3014Z" fill="#623E96"/>
<path d="M80.5639 122.801C78.9823 121.068 79.0101 119.016 79.4124 116.825C80.0367 113.386 80.772 109.975 81.4657 106.55C81.8819 104.47 85.0589 105.329 84.6427 107.395C84.171 109.794 83.6854 112.193 83.2137 114.592C82.7559 116.852 81.4657 120.097 84.1294 121.428C86.0162 122.385 88.4857 122.219 90.5251 122.551C92.6478 122.898 94.7427 123.439 96.7682 124.202C98.4608 124.839 100.112 125.588 101.679 126.476C103.33 127.405 105.758 129.776 107.812 128.833C109.393 128.112 110.461 125.644 111.266 124.202C112.542 121.941 113.528 119.57 114.346 117.102C115.012 115.091 118.189 115.937 117.523 117.948C116.566 120.846 115.373 123.661 113.847 126.295C112.723 128.237 111.433 130.525 109.421 131.689C107.673 132.688 105.758 132.508 103.996 131.689C101.208 130.4 98.8354 128.486 95.9219 127.377C92.9252 126.254 89.9147 125.768 86.7515 125.394C84.4624 125.117 82.1732 124.576 80.5639 122.815V122.801Z" fill="#623E96"/>
<path d="M83.8658 49.4199L47.2395 111.902C47.2395 111.902 56.1325 108.463 70.2697 108.879C70.5333 108.879 70.7969 108.893 71.0605 108.907C72.545 108.962 74.0711 109.059 75.6526 109.212C82.6727 109.878 90.6777 111.541 99.3487 114.897C100.972 115.521 102.623 116.214 104.288 116.963C105.314 117.421 106.355 117.92 107.409 118.433C108.422 118.932 109.449 119.459 110.461 120C110.642 120.097 110.794 120.18 110.975 120.277C116.191 123.092 121.56 126.559 127.04 130.802C127.04 130.802 131.688 129.152 135.947 121.886C136.003 121.803 136.044 121.719 136.086 121.636C140.193 114.509 139.374 109.767 139.374 109.767C133.589 107.312 128.4 104.622 123.738 101.78C123.572 101.682 123.419 101.585 123.267 101.488C122.254 100.864 121.283 100.24 120.326 99.6025C119.382 98.9785 118.48 98.3545 117.592 97.7166C116.441 96.8985 115.331 96.0665 114.249 95.2346C106.91 89.5355 101.305 83.5174 97.0457 77.7906C96.0884 76.501 95.2005 75.2392 94.3681 73.9773C94.2432 73.7832 94.1184 73.5891 93.9935 73.3949C85.3919 60.1386 83.8658 49.406 83.8658 49.406V49.4199Z" fill="#623E96"/>
<path d="M75.6665 109.212C82.6866 109.877 90.6916 111.541 99.3626 114.897C105.703 109.572 110.822 102.764 114.263 95.2345C106.924 89.5354 101.319 83.5174 97.0596 77.7905C93.1472 90.0207 85.6277 101.1 75.6665 109.212Z" fill="#FFAB15"/>
<path d="M104.302 116.963C105.328 117.421 106.369 117.92 107.423 118.433C112.529 112.734 116.871 106.411 120.339 99.5887C119.396 98.9647 118.494 98.3407 117.606 97.7029C114.069 104.719 109.615 111.181 104.302 116.949V116.963Z" fill="#CC366F"/>
<g style="mix-blend-mode:multiply" opacity="0.3">
<path d="M67.3562 77.5964L47.2534 111.888C47.2534 111.888 56.1464 108.449 70.2836 108.865C70.5472 108.865 70.8108 108.879 71.0744 108.893C72.5588 108.948 74.0849 109.045 75.6665 109.198C82.6865 109.864 90.6916 111.528 99.3626 114.883C100.986 115.507 102.637 116.201 104.302 116.949C105.328 117.407 106.369 117.906 107.423 118.419C108.436 118.918 109.463 119.445 110.475 119.986C110.656 120.083 110.808 120.166 110.989 120.263C116.205 123.078 121.574 126.545 127.054 130.788C127.054 130.788 131.702 129.138 135.961 121.872C136.017 121.789 136.058 121.705 136.1 121.622C111.655 109.559 88.5828 94.7076 67.495 77.4438C67.4534 77.4854 67.3979 77.527 67.3424 77.5825L67.3562 77.5964Z" fill="#8658BC"/>
</g>
<path d="M70.2697 108.865C70.5333 108.865 70.7969 108.879 71.0605 108.893C72.9057 107.257 74.6676 105.551 76.3463 103.762C80.6471 99.1865 84.4346 94.1114 87.6117 88.6896C90.3448 84.0167 92.62 79.0802 94.382 73.9635C94.2571 73.7694 94.1323 73.5752 94.0074 73.3811C93.1056 76.0296 92.079 78.6226 90.9136 81.1602C88.3053 86.8315 85.0589 92.1979 81.2576 97.1482C77.9973 101.391 74.3069 105.329 70.2697 108.851V108.865Z" fill="white"/>
<path d="M110.475 120C110.656 120.097 110.808 120.18 110.989 120.277C111.668 119.653 112.321 119.015 112.973 118.364C117.606 113.608 121.283 107.936 123.752 101.779C123.586 101.682 123.433 101.585 123.281 101.488C122.989 102.223 122.684 102.944 122.365 103.665C119.549 109.85 115.498 115.424 110.489 120H110.475Z" fill="white"/>
<path d="M83.8658 49.4194C79.2598 89.7708 47.2395 111.888 47.2395 111.888C54.4677 73.7273 83.8658 49.4194 83.8658 49.4194Z" fill="#8658BC"/>
<path d="M79.9673 56.5334C75.1809 87.1228 51.5542 104.997 51.5542 104.997C58.1164 75.9465 79.9673 56.5334 79.9673 56.5334Z" fill="#472975"/>
<path d="M126.68 129.332C133.006 124.742 137.113 117.629 137.931 109.85C138.153 107.756 141.441 107.756 141.219 109.85C140.262 118.932 135.67 126.836 128.289 132.202C126.583 133.436 124.973 130.566 126.68 129.332Z" fill="#8658BC"/>
<path d="M514.89 172.179C516.694 169.975 516.527 167.506 515.903 164.872C514.932 160.753 513.822 156.663 512.781 152.572C512.143 150.076 508.356 151.324 508.994 153.793C509.715 156.663 510.451 159.533 511.172 162.404C511.866 165.121 513.628 168.949 510.506 170.737C508.286 172.013 505.29 171.958 502.834 172.484C500.281 173.039 497.784 173.83 495.384 174.869C493.386 175.743 491.43 176.755 489.585 177.92C487.643 179.154 484.868 182.163 482.315 181.151C480.359 180.374 478.916 177.463 477.848 175.771C476.169 173.108 474.809 170.307 473.672 167.382C472.742 164.997 468.941 166.217 469.884 168.602C471.23 172.055 472.839 175.369 474.865 178.475C476.336 180.749 478.056 183.453 480.567 184.715C482.731 185.81 485.048 185.463 487.129 184.368C490.417 182.621 493.164 180.166 496.633 178.655C500.184 177.102 503.805 176.325 507.593 175.674C510.34 175.202 513.087 174.398 514.918 172.166L514.89 172.179Z" fill="#FFAB15"/>
<path d="M506.303 83.6145L554.527 156.899C554.527 156.899 543.553 153.293 526.475 154.694C526.156 154.722 525.837 154.749 525.517 154.777C523.728 154.943 521.883 155.151 519.968 155.443C511.519 156.691 501.932 159.2 491.666 163.804C489.737 164.664 487.795 165.593 485.825 166.619C484.604 167.243 483.383 167.909 482.135 168.602C480.942 169.267 479.735 169.961 478.541 170.682C478.333 170.807 478.139 170.918 477.945 171.042C471.813 174.772 465.528 179.307 459.174 184.784C459.174 184.784 453.458 183.092 447.839 174.564C447.77 174.467 447.714 174.37 447.659 174.273C442.248 165.898 442.942 160.116 442.942 160.116C449.782 156.788 455.9 153.21 461.352 149.466C461.546 149.341 461.727 149.217 461.907 149.078C463.086 148.26 464.238 147.442 465.348 146.61C466.444 145.805 467.512 144.987 468.539 144.155C469.884 143.088 471.175 142.02 472.423 140.938C480.955 133.589 487.351 125.963 492.138 118.766C493.22 117.157 494.219 115.549 495.134 113.996C495.273 113.746 495.412 113.511 495.55 113.275C505.123 96.7044 506.303 83.6284 506.303 83.6284V83.6145Z" fill="#FFAB15"/>
<path d="M519.982 155.429C511.533 156.677 501.946 159.187 491.68 163.79C483.675 157.758 477.057 149.841 472.409 140.938C480.942 133.589 487.337 125.963 492.124 118.766C497.632 133.312 507.412 146.235 519.968 155.443L519.982 155.429Z" fill="#BA1A5B"/>
<path d="M485.825 166.605C484.604 167.229 483.383 167.895 482.135 168.588C475.6 162.029 469.954 154.638 465.334 146.61C466.43 145.805 467.498 144.987 468.525 144.155C473.242 152.42 479.027 159.949 485.825 166.605Z" fill="#4667A4"/>
<g style="mix-blend-mode:multiply" opacity="0.3">
<path d="M528.042 116.672L554.513 156.899C554.513 156.899 543.539 153.293 526.461 154.694C526.142 154.722 525.823 154.749 525.504 154.777C523.714 154.943 521.869 155.151 519.954 155.443C511.505 156.691 501.918 159.2 491.652 163.804C489.724 164.664 487.781 165.593 485.811 166.619C484.59 167.243 483.369 167.909 482.121 168.602C480.928 169.267 479.721 169.961 478.528 170.682C478.32 170.807 478.125 170.918 477.931 171.042C471.799 174.772 465.514 179.307 459.16 184.784C459.16 184.784 453.444 183.092 447.825 174.564C447.756 174.467 447.701 174.37 447.645 174.273C476.46 158.147 503.431 138.734 527.862 116.533C527.918 116.589 527.987 116.631 528.056 116.686L528.042 116.672Z" fill="#8658BC"/>
</g>
<path d="M526.475 154.694C526.156 154.722 525.836 154.749 525.517 154.777C523.187 152.919 520.953 150.964 518.803 148.898C513.309 143.628 508.411 137.735 504.235 131.371C500.642 125.893 497.576 120.056 495.12 113.982C495.259 113.732 495.398 113.497 495.537 113.261C496.785 116.409 498.2 119.487 499.768 122.482C503.278 129.18 507.537 135.475 512.448 141.216C516.666 146.152 521.369 150.673 526.475 154.694Z" fill="white"/>
<path d="M478.541 170.668C478.333 170.793 478.139 170.904 477.945 171.029C477.085 170.321 476.252 169.586 475.434 168.824C469.524 163.36 464.723 156.732 461.352 149.439C461.546 149.314 461.727 149.189 461.907 149.05C462.296 149.924 462.726 150.784 463.156 151.629C466.943 158.923 472.201 165.427 478.555 170.654L478.541 170.668Z" fill="white"/>
<path d="M506.302 83.6284C514.405 132.147 554.527 156.913 554.527 156.913C543.387 111.195 506.302 83.6284 506.302 83.6284Z" fill="#FFCB39"/>
<path d="M511.463 91.9897C519.163 128.694 548.88 148.842 548.88 148.842C539.113 114.121 511.463 91.9897 511.463 91.9897Z" fill="#FF860D"/>
<path d="M459.521 182.968C451.571 177.809 446.161 169.462 444.69 160.102C444.288 157.592 440.306 157.786 440.708 160.31C442.442 171.237 448.477 180.513 457.759 186.531C459.909 187.918 461.657 184.34 459.535 182.954L459.521 182.968Z" fill="#FFCB39"/>
<path d="M534.383 421.096C534.258 419.931 533.606 418.822 532.648 418.142L528.972 417.074C527.723 417.324 526.475 417.588 525.337 418.156C524.213 418.725 523.2 419.667 522.84 420.888C522.479 422.094 522.895 423.592 523.991 424.216C524.699 424.618 525.559 424.632 526.364 424.59C527.89 424.507 529.624 424.119 530.359 422.774C530.415 423.675 530.623 424.77 531.469 425.062C532.135 425.283 532.856 424.867 533.328 424.354C534.119 423.481 534.507 422.26 534.383 421.096Z" fill="#8658BC"/>
<path d="M568.872 393.404C563.822 410.779 545.925 424.479 530.096 419.875C514.266 415.272 506.511 394.126 511.561 376.751C512.157 374.713 512.892 372.827 513.766 371.08C520.342 357.906 534.424 352.915 548.395 356.977C563.212 361.276 572.66 374.227 569.663 390.118C569.455 391.2 569.191 392.295 568.872 393.404Z" fill="#8658BC"/>
<g style="mix-blend-mode:multiply" opacity="0.3">
<path d="M568.872 393.405C563.822 410.779 545.925 424.479 530.096 419.876C514.266 415.272 506.511 394.126 511.561 376.751C512.157 374.713 512.892 372.827 513.766 371.08C512.379 377.708 514.349 385.112 518.664 390.479C524.296 397.495 533.259 401.281 542.207 402.168C548.339 402.778 554.763 402.085 560.132 399.09C564.016 396.927 567.069 393.751 569.663 390.118C569.455 391.2 569.191 392.295 568.872 393.405Z" fill="#8658BC"/>
</g>
<path d="M44.3816 509.896C44.2706 508.94 43.7434 508.038 42.9665 507.484L39.9559 506.61C38.9431 506.818 37.9165 507.026 36.987 507.498C36.0574 507.969 35.2389 508.732 34.9476 509.73C34.6423 510.715 34.9892 511.935 35.891 512.448C36.4737 512.781 37.1673 512.781 37.8333 512.753C39.0819 512.684 40.497 512.365 41.0936 511.269C41.1352 512.004 41.3017 512.905 42.0092 513.141C42.5503 513.321 43.1468 512.989 43.5214 512.559C44.1596 511.852 44.4926 510.853 44.3816 509.896Z" fill="#8658BC"/>
<path d="M72.5588 487.28C68.4384 501.466 53.8156 512.656 40.8854 508.898C27.9553 505.14 21.615 487.863 25.7494 473.677C26.2349 472.013 26.8315 470.474 27.5529 469.046C32.922 458.286 44.4232 454.209 55.8412 457.523C67.9389 461.045 75.6665 471.611 73.2248 484.59C73.0583 485.478 72.8502 486.365 72.5866 487.28H72.5588Z" fill="#8658BC"/>
<g style="mix-blend-mode:multiply" opacity="0.3">
<path d="M72.5588 487.28C68.4384 501.466 53.8156 512.656 40.8854 508.898C27.9553 505.14 21.615 487.863 25.7494 473.678C26.2349 472.014 26.8315 470.474 27.5529 469.046C26.4153 474.468 28.0246 480.514 31.5485 484.895C36.1546 490.622 43.4659 493.715 50.7773 494.436C55.7857 494.935 61.0299 494.366 65.4278 491.912C68.6049 490.151 71.0882 487.544 73.2109 484.59C73.0444 485.478 72.8363 486.365 72.5727 487.28H72.5588Z" fill="#8658BC"/>
</g>
<path d="M480.414 529.365C479.526 529.24 478.583 529.504 477.889 530.086L476.405 532.61C476.363 533.58 476.308 534.565 476.516 535.508C476.724 536.451 477.237 537.38 478.056 537.879C478.888 538.378 480.068 538.35 480.733 537.657C481.164 537.213 481.33 536.575 481.455 535.965C481.677 534.814 481.732 533.455 480.872 532.665C481.552 532.79 482.398 532.859 482.787 532.277C483.078 531.833 482.912 531.209 482.606 530.765C482.107 530.017 481.275 529.49 480.387 529.365H480.414Z" fill="#BA1A5B"/>
<path d="M466.444 498.581C478.361 505.612 485.117 521.461 478.708 532.305C472.298 543.148 455.151 544.881 443.233 537.851C441.832 537.033 440.583 536.118 439.446 535.147C430.927 527.784 429.901 516.414 435.561 506.832C441.554 496.682 452.945 492.133 464.154 497.361C464.918 497.722 465.681 498.124 466.444 498.568V498.581Z" fill="#BA1A5B"/>
<g style="mix-blend-mode:multiply" opacity="0.5">
<path d="M466.444 498.581C478.361 505.612 485.117 521.461 478.708 532.305C472.298 543.148 455.151 544.881 443.233 537.851C441.832 537.033 440.583 536.118 439.446 535.147C444.093 537.435 449.962 537.38 454.748 535.203C461.005 532.36 465.514 526.453 467.873 519.991C469.482 515.568 470.19 510.687 468.983 506.125C468.122 502.838 466.333 499.982 464.141 497.375C464.904 497.736 465.667 498.138 466.43 498.581H466.444Z" fill="#BA1A5B"/>
</g>
<path d="M103.65 543.55C102.845 542.857 101.721 542.538 100.667 542.691L97.5868 544.271C96.9208 545.214 96.2549 546.157 95.8803 547.239C95.5057 548.32 95.4225 549.554 95.9358 550.581C96.4491 551.607 97.6423 552.328 98.766 552.05C99.4874 551.87 100.056 551.343 100.556 550.816C101.513 549.818 102.415 548.487 102.054 547.142C102.651 547.696 103.469 548.293 104.218 547.96C104.801 547.696 105.009 546.975 104.995 546.337C104.968 545.27 104.468 544.23 103.663 543.536L103.65 543.55Z" fill="#BA1A5B"/>
<path d="M109.102 503.92C116.58 518.48 113.333 538.614 100.07 545.422C86.807 552.231 68.5355 543.134 61.0576 528.575C60.1836 526.869 59.4899 525.163 58.9766 523.472C55.1059 510.715 61.2657 498.692 72.975 492.688C85.3919 486.31 99.6678 488.958 107.576 501.258C108.117 502.104 108.63 502.977 109.102 503.906V503.92Z" fill="#BA1A5B"/>
<g style="mix-blend-mode:multiply" opacity="0.5">
<path d="M109.102 503.92C116.58 518.48 113.333 538.614 100.07 545.422C86.807 552.231 68.5355 543.134 61.0576 528.575C60.1836 526.869 59.4899 525.164 58.9766 523.472C62.1953 528.7 68.0777 532.346 74.2653 533.192C82.3258 534.302 90.5806 531.223 97.018 526.245C101.43 522.834 105.217 518.397 106.896 513.072C108.103 509.231 108.131 505.251 107.59 501.258C108.131 502.104 108.644 502.977 109.116 503.906L109.102 503.92Z" fill="#BA1A5B"/>
</g>
<path d="M515.251 559.594C514.71 558.679 513.78 558.013 512.74 557.819L509.327 558.304C508.397 558.97 507.468 559.649 506.76 560.537C506.053 561.424 505.567 562.561 505.72 563.698C505.872 564.821 506.76 565.889 507.898 566C508.619 566.069 509.327 565.764 509.979 565.418C511.2 564.78 512.476 563.823 512.573 562.464C512.962 563.185 513.531 564.003 514.335 563.934C514.96 563.878 515.404 563.268 515.598 562.658C515.917 561.646 515.792 560.509 515.251 559.594Z" fill="#4667A4"/>
<path d="M533.259 524.151C535.548 540.25 525.947 558.096 511.283 560.176C496.619 562.256 482.426 547.794 480.137 531.695C479.873 529.809 479.776 527.992 479.846 526.231C480.359 513.003 490.043 503.712 503.001 501.882C516.735 499.927 529.263 507.054 532.69 521.17C532.926 522.141 533.12 523.125 533.259 524.151Z" fill="#4667A4"/>
<g style="mix-blend-mode:multiply" opacity="0.5">
<path d="M533.259 524.151C535.548 540.25 525.947 558.096 511.283 560.176C496.619 562.256 482.426 547.793 480.137 531.695C479.873 529.809 479.776 527.992 479.846 526.231C481.164 532.18 485.506 537.518 491.028 540.319C498.242 543.98 506.982 543.772 514.64 541.193C519.885 539.418 524.893 536.492 528.195 532.041C530.581 528.838 531.899 525.094 532.69 521.17C532.926 522.141 533.12 523.125 533.259 524.151Z" fill="#4667A4"/>
</g>
<path d="M47.406 390.964C46.8649 390.049 45.9354 389.383 44.8949 389.189L41.482 389.675C40.5525 390.34 39.6229 391.02 38.9154 391.907C38.2078 392.794 37.7223 393.932 37.8749 395.069C38.0275 396.192 38.9154 397.259 40.053 397.37C40.7744 397.44 41.482 397.135 42.1341 396.788C43.3549 396.15 44.6313 395.193 44.7284 393.834C45.1169 394.555 45.6857 395.374 46.4904 395.304C47.1147 395.249 47.5586 394.639 47.7529 394.029C48.0719 393.016 47.9471 391.879 47.406 390.964Z" fill="#FFCB39"/>
<path d="M65.4278 355.535C67.7169 371.634 58.1164 389.48 43.4521 391.56C28.7877 393.64 14.595 379.178 12.3059 363.079C12.0423 361.193 11.9452 359.376 12.0145 357.615C12.5278 344.387 22.2116 335.096 35.1695 333.266C48.9044 331.311 61.4322 338.438 64.859 352.554C65.0948 353.525 65.2891 354.509 65.4278 355.535Z" fill="#FFCB39"/>
<g style="mix-blend-mode:multiply" opacity="0.5">
<path d="M65.4278 355.535C67.7169 371.634 58.1164 389.48 43.4521 391.56C28.7877 393.64 14.595 379.177 12.3059 363.079C12.0423 361.193 11.9452 359.376 12.0145 357.615C13.3325 363.564 17.6749 368.902 23.1966 371.703C30.4109 375.364 39.1512 375.156 46.8095 372.577C52.0537 370.802 57.062 367.876 60.3639 363.425C62.7502 360.222 64.0682 356.478 64.859 352.554C65.0948 353.525 65.2891 354.509 65.4278 355.535Z" fill="#FFCB39"/>
</g>
<path d="M17.4391 249.998C11.1544 255.78 7.00616 263.823 5.91015 272.295C6.99229 273.377 8.31028 274.209 9.75313 274.722C10.0722 266.804 13.6516 259.094 19.5063 253.756C19.1872 252.424 18.2993 251.066 17.4391 250.012V249.998Z" fill="#CC366F"/>
<path d="M32.1867 274.625C24.9725 272.503 17.2449 272.559 10.0445 274.749C8.49063 274.278 7.06166 273.432 5.91015 272.281C10.1416 270.34 14.2482 268.745 18.8403 267.969C23.4325 267.192 28.2327 267.289 32.6445 268.787C33.1024 270.645 32.7278 272.794 32.1867 274.625Z" fill="#BA1A5B"/>
<path d="M32.159 274.638C25.3193 278.091 19.6311 283.79 16.1905 290.64C14.8447 290.335 13.6377 289.739 12.625 288.81C16.2043 279.935 23.4325 272.586 32.2977 268.981C32.9636 270.881 32.8665 272.767 32.1451 274.652L32.159 274.638Z" fill="#CC366F"/>
<path d="M170.576 33.8479C177.61 40.2958 184.588 43.9011 185.823 53.3441C184.616 54.5505 183.145 55.4934 181.536 56.0619C181.161 47.2151 174.807 43.9981 168.259 38.0356C168.606 36.538 169.591 35.0265 170.562 33.8479H170.576Z" fill="#4667A4"/>
<path d="M156.494 56.0064C164.541 53.6075 173.17 53.6629 181.217 56.0896C182.951 55.5626 184.546 54.6058 185.823 53.3163C181.092 51.1531 176.5 49.3921 171.38 48.5324C166.261 47.6726 160.892 47.7974 155.981 49.4891C155.481 51.5552 155.897 53.968 156.508 56.0064H156.494Z" fill="#4C9E7B"/>
<path d="M156.522 56.0204C161.78 56.8662 169.979 61.0816 173.836 68.7081C175.334 68.3753 176.68 67.6959 177.804 66.6559C173.794 56.7553 165.484 51.7772 155.939 49.4893C155.19 51.6108 155.703 53.9265 156.508 56.0204H156.522Z" fill="#4667A4"/>
<path d="M394.093 3.68858C388.155 3.54992 383.452 2.14941 378.804 5.86561C378.832 6.93333 379.082 7.98717 379.553 8.94396C383.549 5.13069 387.794 6.42027 393.316 6.5728C393.802 5.75468 394.024 4.64536 394.093 3.68858Z" fill="#623E96"/>
<path d="M390.846 19.7322C388.266 15.184 384.368 11.4816 379.706 9.0966C379.151 8.11208 378.846 6.9889 378.832 5.86572C381.884 6.93344 384.714 8.12595 387.392 9.95632C390.07 11.7867 392.414 14.1578 393.899 17.0421C393.233 18.193 391.998 19.0943 390.846 19.746V19.7322Z" fill="#472975"/>
<path d="M390.819 19.7182C388.086 17.8324 382.578 16.1684 377.542 17.9433C377.015 17.1391 376.695 16.2516 376.64 15.3087C382.73 12.5909 388.613 13.9498 393.885 17.042C393.302 18.3177 392.081 19.1358 390.805 19.7321L390.819 19.7182Z" fill="#623E96"/>
<path d="M579 311.495C573.062 311.357 568.359 309.956 563.711 313.673C563.739 314.74 563.989 315.794 564.461 316.751C568.456 312.938 572.701 314.227 578.223 314.38C578.709 313.562 578.917 312.452 579 311.495Z" fill="#623E96"/>
<path d="M575.754 327.539C573.173 322.991 569.275 319.288 564.613 316.903C564.058 315.919 563.753 314.796 563.739 313.673C566.791 314.74 569.621 315.933 572.299 317.763C574.977 319.594 577.321 321.965 578.806 324.849C578.14 326 576.905 326.901 575.754 327.553V327.539Z" fill="#472975"/>
<path d="M575.726 327.525C572.993 325.639 567.485 323.975 562.449 325.75C561.922 324.946 561.603 324.058 561.547 323.116C567.638 320.398 573.52 321.757 578.792 324.849C578.209 326.125 576.988 326.943 575.712 327.539L575.726 327.525Z" fill="#623E96"/>
<path d="M553.098 14.2268C543.178 12.5213 532.357 16.598 526.544 24.2245C527.709 26.0965 529.374 27.8853 531.413 28.9391C536.685 23.8085 544.233 20.7025 551.891 20.6193C553.07 18.8444 553.445 16.2791 553.098 14.2268Z" fill="#FFCB39"/>
<path d="M531.414 28.9252C537.712 29.3135 543.9 30.8249 549.533 33.4734C550.629 32.1977 551.614 30.6585 552.293 29.161C545.162 23.9056 535.271 22.0198 526.475 24.2522C527.487 26.1935 529.097 28.7866 531.428 28.9252H531.414Z" fill="#FFAB15"/>
<path d="M72.9334 153.945C67.8141 145.251 57.4089 139.968 47.3644 140.98C46.6014 143.185 46.2268 145.709 46.6985 147.996C54.3428 148.343 61.8207 151.837 66.9262 157.564C69.1459 157.19 71.4906 155.665 72.9334 153.945Z" fill="#623E96"/>
<path d="M46.7123 147.996C50.5276 153.016 53.3439 158.771 54.87 164.886C56.632 164.816 58.5326 164.456 60.1975 163.915C59.8229 154.805 54.87 146 47.2812 140.938C46.3516 143.074 45.2972 146.138 46.7123 147.996Z" fill="#472975"/>
<path d="M102.956 349.947C93.036 348.117 82.2146 352.512 76.4016 360.763C77.567 362.787 79.2318 364.715 81.2712 365.866C86.5432 360.319 94.0904 356.963 101.749 356.866C102.928 354.953 103.302 352.18 102.956 349.961V349.947Z" fill="#FFCB39"/>
<path d="M81.2853 365.852C87.5839 366.268 93.7715 367.918 99.4042 370.761C100.5 369.388 101.485 367.724 102.165 366.102C95.034 360.416 85.1422 358.378 76.3463 360.791C77.3591 362.898 78.9684 365.699 81.2992 365.852H81.2853Z" fill="#FFAB15"/>
<path d="M565.862 213.002C569.386 206.319 569.982 198.165 567.457 191.052C566.167 190.968 564.849 190.885 563.573 190.802C564.572 196.848 562.907 203.393 559.216 208.288C559.965 209.508 560.687 210.797 561.714 211.796C562.74 212.794 564.433 213.002 565.862 213.016V213.002Z" fill="#623E96"/>
<path d="M1.19313 129.069C6.27086 127.987 10.8353 124.715 13.4851 120.25C12.9579 119.529 12.4307 118.807 11.9035 118.086C9.14269 121.276 4.96674 123.272 0.763049 123.48C0.443957 124.41 0.0832437 125.366 0.0138758 126.337C-0.0554921 127.308 0.568819 128.306 1.19313 129.069Z" fill="#BA1A5B"/>
<path d="M464.293 324.364C462.989 329.383 463.877 334.93 466.68 339.298C467.554 339.145 468.441 339.007 469.316 338.854C467.692 334.971 467.776 330.34 469.482 326.485C468.788 325.792 468.095 325.043 467.262 324.53C466.416 324.031 465.251 324.156 464.293 324.364Z" fill="#FFCB39"/>
<path d="M474.546 95.0545C470.314 88.1628 463.128 83.1709 455.206 81.604C454.429 82.7411 453.624 83.9058 452.848 85.0429C458.966 87.4279 464.071 92.5169 466.568 98.5904C468.095 98.5765 469.69 98.6043 471.161 98.2021C472.631 97.8 473.755 96.3579 474.546 95.0545Z" fill="#4667A4"/>
<path d="M123.641 3.57754C122.309 5.49111 119.993 6.66975 117.662 6.64202C115.331 6.61429 113.056 5.36631 111.766 3.42501C112.709 2.13543 113.916 0.901318 115.234 0C116.691 1.95517 119.313 3.06448 121.741 2.70395C122.351 3.09221 122.975 3.30021 123.655 3.57754H123.641Z" fill="#8658BC"/>
</g>
<defs>
<clipPath id="clip0_1092_7220">
<rect width="579" height="566" fill="white"/>
</clipPath>
</defs>
</svg>
