<svg width="1440" height="1024" viewBox="0 0 1440 1024" fill="none" xmlns="http://www.w3.org/2000/svg">
<g clip-path="url(#clip0_1092_7657)">
<rect width="1440" height="1024" fill="url(#paint0_radial_1092_7657)"/>
<g clip-path="url(#clip1_1092_7657)">
<g opacity="0.06">
<path d="M452.675 -607H422.347L452.675 525.359L483.003 -607H452.675Z" fill="#D2D2D2"/>
<path d="M246.756 -589.547L216.9 -584.261L443.402 525.625L276.641 -594.804L246.756 -589.547Z" fill="#D2D2D2"/>
<path d="M47.0096 -536.599L18.5124 -526.233L434.306 527.486L75.5068 -546.964L47.0096 -536.599Z" fill="#D2D2D2"/>
<path d="M-140.511 -449.748L-166.764 -434.599L425.683 530.911L-114.229 -464.927L-140.511 -449.748Z" fill="#D2D2D2"/>
<path d="M-310.107 -331.684L-333.318 -312.194L417.769 535.754L-286.866 -351.174L-310.107 -331.684Z" fill="#D2D2D2"/>
<path d="M-456.609 -185.95L-476.099 -162.738L410.829 541.926L-437.119 -209.19L-456.609 -185.95Z" fill="#D2D2D2"/>
<path d="M-575.589 -17.0038L-590.738 9.24914L405.071 549.191L-560.41 -43.2567L-575.589 -17.0038Z" fill="#D2D2D2"/>
<path d="M-663.413 170.045L-673.779 198.542L400.671 557.341L-653.048 141.547L-663.413 170.045Z" fill="#D2D2D2"/>
<path d="M-717.425 369.496L-722.711 399.381L397.718 566.141L-712.169 339.64L-717.425 369.496Z" fill="#D2D2D2"/>
<path d="M-736 575.325V605.654L396.359 575.325L-736 544.997V575.325Z" fill="#D2D2D2"/>
<path d="M-718.547 781.214L-713.291 811.099L396.625 584.598L-723.804 751.359L-718.547 781.214Z" fill="#D2D2D2"/>
<path d="M-665.599 980.961L-655.233 1009.46L398.486 593.694L-675.964 952.464L-665.599 980.961Z" fill="#D2D2D2"/>
<path d="M-578.748 1168.48L-563.599 1194.76L401.911 602.317L-593.927 1142.23L-578.748 1168.48Z" fill="#D2D2D2"/>
<path d="M-460.684 1338.08L-441.194 1361.32L406.754 610.201L-480.174 1314.84L-460.684 1338.08Z" fill="#D2D2D2"/>
<path d="M-314.95 1484.61L-291.738 1504.1L412.926 617.141L-338.19 1465.09L-314.95 1484.61Z" fill="#D2D2D2"/>
<path d="M-146.004 1603.59L-119.751 1618.74L420.191 622.9L-172.257 1588.41L-146.004 1603.59Z" fill="#D2D2D2"/>
<path d="M41.0445 1691.41L69.5417 1701.78L428.341 627.329L12.5472 1681.05L41.0445 1691.41Z" fill="#D2D2D2"/>
<path d="M240.496 1745.43L270.381 1750.68L437.141 630.253L210.64 1740.17L240.496 1745.43Z" fill="#D2D2D2"/>
<path d="M446.325 1764H476.654L446.325 631.611L415.997 1764H446.325Z" fill="#D2D2D2"/>
<path d="M652.214 1746.52L682.099 1741.26L455.598 631.375L622.359 1751.8L652.214 1746.52Z" fill="#D2D2D2"/>
<path d="M851.961 1693.57L880.458 1683.2L464.694 629.485L823.464 1703.96L851.961 1693.57Z" fill="#D2D2D2"/>
<path d="M1039.48 1606.75L1065.76 1591.6L473.317 626.089L1013.23 1621.93L1039.48 1606.75Z" fill="#D2D2D2"/>
<path d="M1209.08 1488.68L1232.32 1469.19L481.201 621.246L1185.87 1508.17L1209.08 1488.68Z" fill="#D2D2D2"/>
<path d="M1355.58 1342.95L1375.1 1319.71L488.141 615.074L1336.09 1366.19L1355.58 1342.95Z" fill="#D2D2D2"/>
<path d="M1474.56 1174L1489.74 1147.72L493.9 607.809L1459.41 1200.26L1474.56 1174Z" fill="#D2D2D2"/>
<path d="M1562.41 986.926L1572.78 958.428L498.329 599.659L1552.05 1015.45L1562.41 986.926Z" fill="#D2D2D2"/>
<path d="M1616.43 787.475L1621.68 757.619L501.253 590.859L1611.17 817.36L1616.43 787.475Z" fill="#D2D2D2"/>
<path d="M1635 581.675V551.347L502.611 581.675L1635 612.003V581.675Z" fill="#D2D2D2"/>
<path d="M1617.52 375.756L1612.26 345.9L502.375 572.402L1622.8 405.641L1617.52 375.756Z" fill="#D2D2D2"/>
<path d="M1564.57 176.01L1554.2 147.512L500.485 563.306L1574.96 204.507L1564.57 176.01Z" fill="#D2D2D2"/>
<path d="M1477.75 -11.5111L1462.6 -37.764L497.089 554.683L1492.9 14.7714L1477.75 -11.5111Z" fill="#D2D2D2"/>
<path d="M1359.68 -181.107L1340.19 -204.318L492.216 546.769L1379.17 -157.866L1359.68 -181.107Z" fill="#D2D2D2"/>
<path d="M1213.95 -327.609L1190.71 -347.099L486.074 539.829L1237.19 -308.119L1213.95 -327.609Z" fill="#D2D2D2"/>
<path d="M1045 -446.589L1018.72 -461.738L478.809 534.071L1071.26 -431.41L1045 -446.589Z" fill="#D2D2D2"/>
<path d="M857.926 -534.413L829.428 -544.779L470.659 529.671L886.423 -524.048L857.926 -534.413Z" fill="#D2D2D2"/>
<path d="M658.475 -588.425L628.619 -593.711L461.859 526.718L688.33 -583.169L658.475 -588.425Z" fill="#D2D2D2"/>
</g>
</g>
</g>
<defs>
<radialGradient id="paint0_radial_1092_7657" cx="0" cy="0" r="1" gradientUnits="userSpaceOnUse" gradientTransform="translate(392.5 580) rotate(90) scale(444 624.375)">
<stop stop-color="#00458B"/>
<stop offset="1" stop-color="#00254B"/>
</radialGradient>
<clipPath id="clip0_1092_7657">
<rect width="1440" height="1024" fill="white"/>
</clipPath>
<clipPath id="clip1_1092_7657">
<rect width="2371" height="2371" fill="white" transform="translate(-736 -607)"/>
</clipPath>
</defs>
</svg>
