<svg width="85" height="85" viewBox="0 0 85 85" fill="none" xmlns="http://www.w3.org/2000/svg">
<circle cx="42.5" cy="42.5" r="41.5" fill="#0D0C33" stroke="#c1e29a" stroke-width="2"/>
<path d="M42.502 36.65C40.9504 36.65 39.4625 37.2663 38.3654 38.3634C37.2683 39.4605 36.652 40.9485 36.652 42.5C36.652 44.0515 37.2683 45.5395 38.3654 46.6366C39.4625 47.7337 40.9504 48.35 42.502 48.35C44.0535 48.35 45.5414 47.7337 46.6385 46.6366C47.7356 45.5395 48.352 44.0515 48.352 42.5C48.352 40.9485 47.7356 39.4605 46.6385 38.3634C45.5414 37.2663 44.0535 36.65 42.502 36.65ZM42.502 32.75C45.0878 32.75 47.5678 33.7772 49.3962 35.6057C51.2247 37.4342 52.2519 39.9141 52.2519 42.5C52.2519 45.0859 51.2247 47.5658 49.3962 49.3943C47.5678 51.2228 45.0878 52.25 42.502 52.25C39.9161 52.25 37.4361 51.2228 35.6077 49.3943C33.7792 47.5658 32.752 45.0859 32.752 42.5C32.752 39.9141 33.7792 37.4342 35.6077 35.6057C37.4361 33.7772 39.9161 32.75 42.502 32.75ZM55.1769 32.2625C55.1769 32.909 54.9201 33.529 54.463 33.9861C54.0059 34.4432 53.3859 34.7 52.7395 34.7C52.093 34.7 51.473 34.4432 51.0159 33.9861C50.5588 33.529 50.302 32.909 50.302 32.2625C50.302 31.616 50.5588 30.996 51.0159 30.5389C51.473 30.0818 52.093 29.825 52.7395 29.825C53.3859 29.825 54.0059 30.0818 54.463 30.5389C54.9201 30.996 55.1769 31.616 55.1769 32.2625ZM42.502 26.9C37.6777 26.9 36.8899 26.9137 34.6454 27.0131C33.1166 27.0853 32.0909 27.29 31.1393 27.6605C30.3434 27.9537 29.6236 28.4222 29.0333 29.0314C28.4235 29.6215 27.9543 30.3412 27.6605 31.1374C27.29 32.0928 27.0852 33.1166 27.015 34.6435C26.9137 36.7963 26.9 37.549 26.9 42.5C26.9 47.3263 26.9137 48.1121 27.0131 50.3566C27.0853 51.8834 27.29 52.9111 27.6585 53.8607C27.99 54.709 28.3801 55.3193 29.0275 55.9667C29.6846 56.6219 30.295 57.0139 31.1335 57.3376C32.0968 57.71 33.1225 57.9167 34.6435 57.9869C36.7963 58.0883 37.549 58.1 42.5 58.1C47.3263 58.1 48.1121 58.0863 50.3566 57.9869C51.8814 57.9147 52.9072 57.71 53.8607 57.3414C54.6566 57.0482 55.3764 56.5797 55.9667 55.9706C56.6239 55.3154 57.0158 54.705 57.3395 53.8646C57.71 52.9052 57.9167 51.8795 57.9869 50.3546C58.0883 48.2038 58.1 47.4491 58.1 42.5C58.1 37.6757 58.0863 36.8879 57.9869 34.6435C57.9147 33.1186 57.7081 32.089 57.3395 31.1374C57.0463 30.3414 56.5778 29.6217 55.9687 29.0314C55.3785 28.4215 54.6588 27.9523 53.8626 27.6585C52.9072 27.2881 51.8814 27.0833 50.3566 27.0131C48.2057 26.9117 47.453 26.9 42.5 26.9M42.5 23C47.7982 23 48.4592 23.0195 50.5398 23.117C52.6146 23.2145 54.0303 23.5402 55.2725 24.0238C56.5595 24.5191 57.6437 25.1899 58.7279 26.2721C59.7199 27.2466 60.4872 28.4258 60.9763 29.7275C61.4579 30.9696 61.7855 32.3853 61.883 34.4621C61.9747 36.5408 62 37.2018 62 42.5C62 47.7982 61.9805 48.4592 61.883 50.5379C61.7855 52.6166 61.4579 54.0284 60.9763 55.2725C60.4872 56.5742 59.7199 57.7534 58.7279 58.7279C57.7534 59.7199 56.5742 60.4872 55.2725 60.9763C54.0303 61.4579 52.6146 61.7855 50.5398 61.883C48.4592 61.9747 47.7982 62 42.5 62C37.2018 62 36.5408 61.9805 34.4601 61.883C32.3854 61.7855 30.9716 61.4579 29.7275 60.9763C28.4258 60.4872 27.2466 59.7199 26.2721 58.7279C25.2801 57.7534 24.5128 56.5742 24.0238 55.2725C23.5402 54.0303 23.2145 52.6147 23.117 50.5379C23.0234 48.4592 23 47.7982 23 42.5C23 37.2018 23.0195 36.5408 23.117 34.4621C23.2145 32.3834 23.5402 30.9716 24.0238 29.7275C24.5128 28.4258 25.2801 27.2466 26.2721 26.2721C27.2466 25.2801 28.4258 24.5128 29.7275 24.0238C30.9696 23.5402 32.3834 23.2145 34.4601 23.117C36.5428 23.0253 37.2038 23 42.502 23" fill="white"/>
</svg>
