<svg width="1440" height="1024" viewBox="0 0 1440 1024" fill="none" xmlns="http://www.w3.org/2000/svg">
<g clip-path="url(#clip0_1092_8078)">
<rect width="1440" height="1024" transform="matrix(-1 0 0 1 1440 0)" fill="url(#paint0_radial_1092_8078)"/>
<g clip-path="url(#clip1_1092_8078)">
<g opacity="0.06">
<path d="M1000.61 -571H1028.2L1000.61 459.156L973.021 -571H1000.61Z" fill="white"/>
<path d="M1187.94 -555.122L1215.11 -550.314L1009.05 459.397L1160.76 -559.905L1187.94 -555.122Z" fill="white"/>
<path d="M1369.66 -506.953L1395.59 -497.523L1017.32 461.09L1343.74 -516.383L1369.66 -506.953Z" fill="white"/>
<path d="M1540.26 -427.941L1564.14 -414.159L1025.17 464.206L1516.35 -441.75L1540.26 -427.941Z" fill="white"/>
<path d="M1694.55 -320.533L1715.66 -302.802L1032.37 468.612L1673.4 -338.265L1694.55 -320.533Z" fill="white"/>
<path d="M1827.83 -187.952L1845.56 -166.836L1038.68 474.227L1810.09 -209.095L1827.83 -187.952Z" fill="white"/>
<path d="M1936.07 -34.2553L1949.85 -10.3719L1043.92 480.836L1922.26 -58.1387L1936.07 -34.2553Z" fill="white"/>
<path d="M2015.96 135.911L2025.39 161.836L1047.92 488.251L2006.53 109.985L2015.96 135.911Z" fill="white"/>
<path d="M2065.1 317.36L2069.91 344.548L1050.61 496.257L2060.32 290.199L2065.1 317.36Z" fill="white"/>
<path d="M2082 504.612V532.203L1051.84 504.612L2082 477.021V504.612Z" fill="white"/>
<path d="M2066.12 691.918L2061.34 719.106L1051.6 513.048L2070.9 664.757L2066.12 691.918Z" fill="white"/>
<path d="M2017.95 873.636L2008.52 899.561L1049.91 521.322L2027.38 847.711L2017.95 873.636Z" fill="white"/>
<path d="M1938.94 1044.23L1925.16 1068.14L1046.79 529.167L1952.75 1020.35L1938.94 1044.23Z" fill="white"/>
<path d="M1831.53 1198.52L1813.8 1219.66L1042.39 536.34L1849.26 1177.38L1831.53 1198.52Z" fill="white"/>
<path d="M1698.95 1331.83L1677.84 1349.56L1036.77 542.653L1720.1 1314.07L1698.95 1331.83Z" fill="white"/>
<path d="M1545.26 1440.07L1521.37 1453.85L1030.16 547.892L1569.14 1426.26L1545.26 1440.07Z" fill="white"/>
<path d="M1375.09 1519.96L1349.16 1529.39L1022.75 551.922L1401.01 1510.53L1375.09 1519.96Z" fill="white"/>
<path d="M1193.64 1569.1L1166.45 1573.88L1014.74 554.582L1220.8 1564.32L1193.64 1569.1Z" fill="white"/>
<path d="M1006.39 1586H978.797L1006.39 555.817L1033.98 1586H1006.39Z" fill="white"/>
<path d="M819.082 1570.1L791.894 1565.31L997.952 555.603L846.243 1574.9L819.082 1570.1Z" fill="white"/>
<path d="M637.364 1521.93L611.439 1512.5L989.678 553.883L663.289 1531.38L637.364 1521.93Z" fill="white"/>
<path d="M466.769 1442.94L442.858 1429.16L981.833 550.793L490.652 1456.75L466.769 1442.94Z" fill="white"/>
<path d="M312.481 1335.53L291.337 1317.8L974.66 546.388L333.597 1353.26L312.481 1335.53Z" fill="white"/>
<path d="M179.201 1202.95L161.443 1181.81L968.347 540.773L196.932 1224.1L179.201 1202.95Z" fill="white"/>
<path d="M70.96 1049.26L57.1511 1025.35L963.108 534.164L84.742 1073.14L70.96 1049.26Z" fill="white"/>
<path d="M-8.96478 879.063L-18.3946 853.137L959.078 526.749L0.464966 905.015L-8.96478 879.063Z" fill="white"/>
<path d="M-58.1016 697.613L-62.8837 670.452L956.418 518.743L-53.3196 724.801L-58.1016 697.613Z" fill="white"/>
<path d="M-75 510.388V482.797L955.183 510.388L-75 537.979V510.388Z" fill="white"/>
<path d="M-59.0956 323.055L-54.3137 295.894L955.397 501.952L-63.9047 350.243L-59.0956 323.055Z" fill="white"/>
<path d="M-10.9257 141.337L-1.49603 115.412L957.117 493.678L-20.3823 167.262L-10.9257 141.337Z" fill="white"/>
<path d="M68.0587 -29.2582L81.8406 -53.1416L960.206 485.833L54.2766 -5.34795L68.0587 -29.2582Z" fill="white"/>
<path d="M175.467 -183.547L193.198 -204.663L964.639 478.633L157.735 -162.403L175.467 -183.547Z" fill="white"/>
<path d="M308.048 -316.826L329.191 -334.557L970.227 472.32L286.904 -299.095L308.048 -316.826Z" fill="white"/>
<path d="M461.745 -425.067L485.655 -438.849L976.836 467.081L437.861 -411.258L461.745 -425.067Z" fill="white"/>
<path d="M631.937 -504.965L657.863 -514.395L984.251 463.078L606.012 -495.535L631.937 -504.965Z" fill="white"/>
<path d="M813.387 -554.102L840.548 -558.911L992.257 460.391L786.226 -549.32L813.387 -554.102Z" fill="white"/>
</g>
</g>
</g>
<defs>
<radialGradient id="paint0_radial_1092_8078" cx="0" cy="0" r="1" gradientUnits="userSpaceOnUse" gradientTransform="translate(433.5 556.5) rotate(46.9142) scale(666.82 937.716)">
<stop stop-color="#666666"/>
<stop offset="0.600962"/>
</radialGradient>
<clipPath id="clip0_1092_8078">
<rect width="1440" height="1024" fill="white" transform="matrix(-1 0 0 1 1440 0)"/>
</clipPath>
<clipPath id="clip1_1092_8078">
<rect width="2157" height="2157" fill="white" transform="matrix(-1 0 0 1 2082 -571)"/>
</clipPath>
</defs>
</svg>
