<svg width="748" height="914" viewBox="0 0 748 914" fill="none" xmlns="http://www.w3.org/2000/svg">
<path d="M408.85 91L436.8 139.4L464.74 91H408.85Z" fill="#7590CF"/>
<path d="M449.32 772.58L408.03 761.52L419.09 802.81L449.32 772.58Z" fill="#EFC375"/>
<path d="M514.74 197L477.71 218.37L514.74 239.75V197Z" fill="#EFC375"/>
<path d="M42.74 799.03L21.37 762L0 799.03H42.74Z" fill="#A1DAF7"/>
<path d="M747.74 729.06L706.45 718L717.51 759.29L747.74 729.06Z" fill="#A1DAF7"/>
<path d="M559.74 402.31L547.44 381L535.13 402.31H559.74Z" fill="#A1DAF7"/>
<path d="M624.74 913.8L612.73 893L600.72 913.8H624.74Z" fill="#FF9F9F"/>
<path d="M714.74 477.8L702.73 457L690.72 477.8H714.74Z" fill="#FF9F9F"/>
<path d="M108.94 883.02L129.74 871.01L108.94 859V883.02Z" fill="#FF9F9F"/>
<path d="M650.73 322.5L679.74 305.75L650.73 289V322.5Z" fill="#FF9F9F"/>
<path d="M71.9101 617.54L100.36 625.16L92.7401 596.71L71.9101 617.54Z" fill="#FF9F9F"/>
<path d="M616.74 563L585.16 581.23L616.74 599.47V563Z" fill="#A1FFF8"/>
<path d="M348.74 174.18L338.24 156L327.75 174.18H348.74Z" fill="#A1FFF8"/>
<path d="M310.71 667.43L305.47 658.34L300.22 667.43H310.71Z" fill="#7590CF"/>
<path d="M477.09 829.77L482.34 838.86L487.59 829.77H477.09Z" fill="#EBB6BE"/>
<path d="M141.7 227.01L149.74 197L119.73 205.05L141.7 227.01Z" fill="#EBB6BE"/>
<path d="M41.45 492.36L28.3799 499.91L41.45 507.45V492.36Z" fill="#EBB6BE"/>
<g filter="url(#filter0_d_1095_8533)">
<path d="M465.188 599.174L477.612 601.146L437.938 851.077L425.513 849.104L465.188 599.174Z" fill="white"/>
</g>
<path d="M431.57 811.11C431.57 811.11 430.5 817.86 435.49 822.3C440.48 826.73 440.81 833.16 440.81 833.16L437.96 851.11C437.96 851.11 437.92 842.87 432.93 838.44C427.94 834.01 428.72 829.07 428.72 829.07L431.57 811.12V811.11Z" fill="#D34642"/>
<path d="M437.45 774.05C437.45 774.05 436.38 780.8 441.37 785.24C446.36 789.67 446.69 796.1 446.69 796.1L443.84 814.05C443.84 814.05 443.8 805.81 438.81 801.38C433.82 796.95 434.6 792.01 434.6 792.01L437.45 774.06V774.05Z" fill="#D34642"/>
<path d="M443.33 737C443.33 737 442.26 743.75 447.25 748.19C452.24 752.62 452.57 759.05 452.57 759.05L449.72 777C449.72 777 449.68 768.76 444.69 764.33C439.7 759.9 440.48 754.96 440.48 754.96L443.33 737.01V737Z" fill="#D34642"/>
<path d="M449.21 699.94C449.21 699.94 448.14 706.69 453.13 711.13C458.12 715.56 458.45 721.99 458.45 721.99L455.6 739.94C455.6 739.94 455.56 731.7 450.57 727.27C445.58 722.84 446.36 717.9 446.36 717.9L449.21 699.95V699.94Z" fill="#D34642"/>
<path d="M455.09 662.89C455.09 662.89 454.02 669.64 459.01 674.08C464 678.51 464.33 684.94 464.33 684.94L461.48 702.89C461.48 702.89 461.44 694.65 456.45 690.22C451.46 685.79 452.24 680.85 452.24 680.85L455.09 662.9V662.89Z" fill="#D34642"/>
<path d="M460.97 625.83C460.97 625.83 459.9 632.58 464.89 637.02C469.88 641.45 470.21 647.88 470.21 647.88L467.36 665.83C467.36 665.83 467.32 657.59 462.33 653.16C457.34 648.73 458.12 643.79 458.12 643.79L460.97 625.84V625.83Z" fill="#D34642"/>
<path d="M466.85 588.78C466.85 588.78 465.78 595.53 470.77 599.97C475.76 604.4 476.09 610.83 476.09 610.83L473.24 628.78C473.24 628.78 473.2 620.54 468.21 616.11C463.22 611.68 464 606.74 464 606.74L466.85 588.79V588.78Z" fill="#D34642"/>
<g style="mix-blend-mode:multiply">
<path d="M465.194 599.176L471.406 600.163L431.732 850.093L425.52 849.107L465.194 599.176Z" fill="url(#paint0_linear_1095_8533)"/>
</g>
<g filter="url(#filter1_d_1095_8533)">
<path d="M359.89 395.26C469.93 412.72 547.21 510.6 541.32 619.47L328.15 595.25L117.96 552.29C146.07 446.95 249.85 377.81 359.89 395.27V395.26ZM397.61 589.15C413.22 591.63 427.88 580.98 430.36 565.37C432.84 549.76 422.19 535.1 406.58 532.62C390.97 530.14 376.31 540.79 373.83 556.4C371.35 572.01 382 586.67 397.61 589.15ZM265.5 568.18C281.11 570.66 295.77 560.01 298.25 544.4C300.73 528.79 290.08 514.13 274.47 511.65C258.86 509.17 244.2 519.82 241.72 535.43C239.24 551.04 249.89 565.7 265.5 568.18Z" fill="#FF6D69"/>
</g>
<path d="M358.7 402.75C464.71 419.57 539.2 513.76 533.76 618.6L328.15 595.24L125.41 553.8C152.7 452.42 252.69 385.93 358.7 402.75ZM397.61 589.15C413.22 591.63 427.88 580.98 430.36 565.37C432.84 549.76 422.19 535.1 406.58 532.62C390.97 530.14 376.31 540.79 373.83 556.4C371.35 572.01 382 586.67 397.61 589.15ZM265.5 568.18C281.11 570.66 295.77 560.01 298.25 544.4C300.73 528.79 290.08 514.13 274.47 511.65C258.86 509.17 244.2 519.82 241.72 535.43C239.24 551.04 249.89 565.7 265.5 568.18Z" fill="#D34642"/>
<path d="M350.6 453.82C429.15 466.29 484.68 535.29 482.27 612.75L328.16 595.24L176.2 564.18C197.89 489.77 272.05 441.35 350.6 453.82ZM397.61 589.15C413.22 591.63 427.88 580.98 430.36 565.37C432.84 549.76 422.19 535.1 406.58 532.62C390.97 530.14 376.31 540.79 373.83 556.4C371.35 572.01 382 586.67 397.61 589.15ZM265.5 568.18C281.11 570.66 295.77 560.01 298.25 544.4C300.73 528.79 290.08 514.13 274.47 511.65C258.86 509.17 244.2 519.82 241.72 535.43C239.24 551.04 249.89 565.7 265.5 568.18Z" fill="#FF6D69"/>
<path d="M201.48 569.35C220.36 508.35 281.66 468.89 346.57 479.19C411.48 489.49 457.56 545.99 456.62 609.84" stroke="#9B3737" stroke-width="3" stroke-miterlimit="10"/>
<g filter="url(#filter2_d_1095_8533)">
<path d="M408.75 518.92C440.87 524.02 463.93 519.77 463.93 519.77C463.93 519.77 455.29 532.72 451.9 554.08C448.51 575.44 432.58 590.48 432.58 590.48C423.27 600.04 409.62 605.1 395.44 602.84C372.26 599.16 356.46 577.39 360.13 554.21C363.81 531.03 385.58 515.23 408.76 518.9L408.75 518.92ZM397.61 589.15C413.22 591.63 427.88 580.98 430.36 565.37C432.84 549.76 422.19 535.1 406.58 532.62C390.97 530.14 376.31 540.79 373.83 556.4C371.35 572.01 382 586.67 397.61 589.15Z" fill="#F7E375"/>
</g>
<g filter="url(#filter3_d_1095_8533)">
<path d="M311.95 546.58C308.27 569.76 286.5 585.56 263.32 581.89C249.13 579.64 237.72 570.6 231.83 558.62C231.83 558.62 221.34 539.39 224.73 518.03C228.12 496.67 223.91 481.68 223.91 481.68C223.91 481.68 244.53 492.85 276.64 497.95C299.82 501.63 315.62 523.4 311.95 546.58ZM298.25 544.41C300.73 528.8 290.08 514.14 274.47 511.66C258.86 509.18 244.2 519.83 241.72 535.44C239.24 551.05 249.89 565.71 265.5 568.19C281.11 570.67 295.77 560.02 298.25 544.41Z" fill="#F7E375"/>
</g>
<g filter="url(#filter4_d_1095_8533)">
<path d="M213.49 582.9C225.52 572.07 239.68 582.63 239.68 582.63C238.82 582.49 222.81 578.73 221.01 590.05C220.16 595.41 223.01 600.39 228.79 602.28C233.64 603.86 238.52 603.4 243.17 601.59C249 599.33 254.74 596.81 260.46 594.26C268.07 590.88 275.65 587.45 283.8 585.52C293.52 583.22 303.03 583.46 312.2 587.82C317.62 590.4 322.43 593.91 327.09 597.64C327.33 597.83 327.56 597.98 327.8 598.08C328.06 598.06 328.32 597.99 328.61 597.88C334.2 595.77 339.85 593.92 345.81 593.15C355.89 591.85 365 594.56 373.53 599.75C380.68 604.11 386.83 609.71 393.02 615.28C397.67 619.47 402.34 623.64 407.19 627.6C411.05 630.76 415.55 632.71 420.65 632.71C426.74 632.71 430.99 628.86 431.84 623.5C433.64 612.18 417.24 610.8 416.38 610.67C416.38 610.67 433.11 605.01 441.2 619.04C445.14 625.86 445.14 633.11 442.45 640.29C438.35 651.23 430.27 658.22 419.51 662.28C412.34 664.98 404.85 665.76 397.24 665.37C379.5 664.45 352.64 657.74 323.24 626.89C285.73 647.12 258.11 645.19 240.96 640.57C233.6 638.59 226.72 635.53 220.74 630.74C211.77 623.55 206.25 614.41 205.74 602.73C205.41 595.06 207.65 588.18 213.51 582.91L213.49 582.9Z" fill="#4B2100"/>
</g>
<path d="M207.94 590.38C207.93 590.44 207.92 590.49 207.9 590.56C203.84 609.41 214.08 636.79 255.25 638.13C292.28 639.33 324.62 618.19 324.62 618.19C324.62 618.19 348.82 648.3 384.4 658.63C423.96 670.11 442.17 647.24 444.15 628.06C444.15 628 444.16 627.94 444.17 627.88C444.65 631.98 444 636.15 442.45 640.3C438.35 651.24 430.27 658.23 419.51 662.29C412.34 664.99 404.85 665.77 397.24 665.38C379.5 664.46 352.64 657.75 323.24 626.9C285.73 647.13 258.11 645.2 240.96 640.58C233.6 638.6 226.72 635.54 220.74 630.75C211.77 623.56 206.25 614.42 205.74 602.74C205.55 598.31 206.22 594.15 207.95 590.4L207.94 590.38Z" fill="black"/>
<g filter="url(#filter5_d_1095_8533)">
<path d="M340.89 515.01L375.2 600.36L325.66 610.94L281.84 585.54L340.89 515.01Z" fill="#EEBA7C"/>
</g>
<path d="M325.66 610.94L340.89 515.01L375.2 600.36L325.66 610.94Z" fill="#E29542"/>
<path d="M340.89 515.01L325.66 610.94L281.84 585.54L340.89 515.01Z" fill="#EEBA7C"/>
<path d="M172.36 682.88L161.01 663.23L149.67 682.88H172.36Z" fill="#7590CF"/>
<path d="M320.26 778.36L316.78 770.95L313.02 778.22L304.9 779.24L310.65 785.06L309.11 793.09L316.43 789.43L323.59 793.37L322.36 785.29L328.33 779.69L320.26 778.36Z" fill="#FF9F9F"/>
<path d="M486.11 405.99L484.07 401.66L481.88 405.91L477.13 406.5L480.49 409.9L479.59 414.6L483.87 412.46L488.05 414.76L487.34 410.04L490.82 406.77L486.11 405.99Z" fill="#7590CF"/>
<path d="M682.02 592.33L679.99 588L677.79 592.25L673.05 592.84L676.41 596.25L675.51 600.94L679.78 598.8L683.97 601.1L683.25 596.38L686.74 593.11L682.02 592.33Z" fill="#7590CF"/>
<path d="M547.19 731.07L552.17 717.28L538.2 721.72L526.62 712.73L526.53 727.39L514.4 735.62L528.31 740.24L532.39 754.32L541.08 742.51L555.73 742.98L547.19 731.07Z" fill="#B7CCF7"/>
<path d="M567.33 139.3L576.74 128.06L562.1 127.43L554.32 115L549.19 128.73L534.97 132.28L546.44 141.41L545.43 156.03L557.65 147.94L571.24 153.42L567.33 139.3Z" fill="#EFC375"/>
<path d="M229.86 103.51L236.78 84.33L217.35 90.51L201.25 78L201.11 98.39L184.24 109.84L203.59 116.26L209.27 135.85L221.36 119.43L241.74 120.09L229.86 103.51Z" fill="#B7CCF7"/>
<path d="M453.98 328.88C453.98 331.02 455.72 332.76 457.86 332.76C460 332.76 461.74 331.02 461.74 328.88C461.74 326.74 460 325 457.86 325C455.72 325 453.98 326.74 453.98 328.88Z" fill="#FF9F9F"/>
<path d="M5.26001 402.82C5.26001 404.96 7.00001 406.7 9.14001 406.7C11.28 406.7 13.02 404.96 13.02 402.82C13.02 400.68 11.28 398.94 9.14001 398.94C7.00001 398.94 5.26001 400.68 5.26001 402.82Z" fill="#FF9F9F"/>
<path d="M407.74 16C403.322 16 399.74 12.4183 399.74 8C399.74 3.58172 403.322 0 407.74 0C412.158 0 415.74 3.58172 415.74 8C415.74 12.4183 412.158 16 407.74 16Z" fill="#FF9F9F"/>
<path d="M168.47 733.52C168.47 735.66 170.21 737.4 172.35 737.4C174.49 737.4 176.23 735.66 176.23 733.52C176.23 731.38 174.49 729.64 172.35 729.64C170.21 729.64 168.47 731.38 168.47 733.52Z" fill="#FF9F9F"/>
<path d="M616.51 680.46C613.622 680.46 611.28 678.118 611.28 675.23C611.28 672.342 613.622 670 616.51 670C619.398 670 621.74 672.342 621.74 675.23C621.74 678.118 619.398 680.46 616.51 680.46Z" fill="#EFC375"/>
<path d="M176.24 587.65C173.352 587.65 171.01 585.308 171.01 582.42C171.01 579.531 173.352 577.19 176.24 577.19C179.128 577.19 181.47 579.531 181.47 582.42C181.47 585.308 179.128 587.65 176.24 587.65Z" fill="#EFC375"/>
<path d="M140.57 338.34C135.505 338.34 131.4 334.234 131.4 329.17C131.4 324.106 135.505 320 140.57 320C145.634 320 149.74 324.106 149.74 329.17C149.74 334.234 145.634 338.34 140.57 338.34Z" fill="#EFC375"/>
<path d="M213.15 835.98C213.15 839.31 215.86 842 219.21 842C222.56 842 225.27 839.3 225.27 835.98C225.27 832.66 222.56 829.96 219.21 829.96C215.86 829.96 213.15 832.66 213.15 835.98Z" fill="#7590CF"/>
<path d="M298.68 357.04C295.333 357.04 292.62 354.345 292.62 351.02C292.62 347.695 295.333 345 298.68 345C302.027 345 304.74 347.695 304.74 351.02C304.74 354.345 302.027 357.04 298.68 357.04Z" fill="#7590CF"/>
<path d="M15.21 675.99C11.8631 675.99 9.14996 673.295 9.14996 669.97C9.14996 666.645 11.8631 663.95 15.21 663.95C18.5568 663.95 21.27 666.645 21.27 669.97C21.27 673.295 18.5568 675.99 15.21 675.99Z" fill="#7590CF"/>
<path d="M604.03 803.3C599.22 803.3 595.32 799.427 595.32 794.65C595.32 789.873 599.22 786 604.03 786C608.84 786 612.74 789.873 612.74 794.65C612.74 799.427 608.84 803.3 604.03 803.3Z" fill="#7590CF"/>
<defs>
<filter id="filter0_d_1095_8533" x="421.513" y="595.174" width="64.099" height="263.903" filterUnits="userSpaceOnUse" color-interpolation-filters="sRGB">
<feFlood flood-opacity="0" result="BackgroundImageFix"/>
<feColorMatrix in="SourceAlpha" type="matrix" values="0 0 0 0 0 0 0 0 0 0 0 0 0 0 0 0 0 0 127 0" result="hardAlpha"/>
<feOffset dx="2" dy="2"/>
<feGaussianBlur stdDeviation="3"/>
<feColorMatrix type="matrix" values="0 0 0 0 0 0 0 0 0 0 0 0 0 0 0 0 0 0 0.3 0"/>
<feBlend mode="normal" in2="BackgroundImageFix" result="effect1_dropShadow_1095_8533"/>
<feBlend mode="normal" in="SourceGraphic" in2="effect1_dropShadow_1095_8533" result="shape"/>
</filter>
<filter id="filter1_d_1095_8533" x="107.96" y="389.576" width="443.675" height="246.894" filterUnits="userSpaceOnUse" color-interpolation-filters="sRGB">
<feFlood flood-opacity="0" result="BackgroundImageFix"/>
<feColorMatrix in="SourceAlpha" type="matrix" values="0 0 0 0 0 0 0 0 0 0 0 0 0 0 0 0 0 0 127 0" result="hardAlpha"/>
<feOffset dy="7"/>
<feGaussianBlur stdDeviation="5"/>
<feColorMatrix type="matrix" values="0 0 0 0 0 0 0 0 0 0 0 0 0 0 0 0 0 0 0.3 0"/>
<feBlend mode="normal" in2="BackgroundImageFix" result="effect1_dropShadow_1095_8533"/>
<feBlend mode="normal" in="SourceGraphic" in2="effect1_dropShadow_1095_8533" result="shape"/>
</filter>
<filter id="filter2_d_1095_8533" x="357.6" y="518.371" width="108.329" height="89.0034" filterUnits="userSpaceOnUse" color-interpolation-filters="sRGB">
<feFlood flood-opacity="0" result="BackgroundImageFix"/>
<feColorMatrix in="SourceAlpha" type="matrix" values="0 0 0 0 0 0 0 0 0 0 0 0 0 0 0 0 0 0 127 0" result="hardAlpha"/>
<feOffset dy="2"/>
<feGaussianBlur stdDeviation="1"/>
<feColorMatrix type="matrix" values="0 0 0 0 0 0 0 0 0 0 0 0 0 0 0 0 0 0 0.3 0"/>
<feBlend mode="normal" in2="BackgroundImageFix" result="effect1_dropShadow_1095_8533"/>
<feBlend mode="normal" in="SourceGraphic" in2="effect1_dropShadow_1095_8533" result="shape"/>
</filter>
<filter id="filter3_d_1095_8533" x="221.91" y="481.68" width="92.5694" height="104.739" filterUnits="userSpaceOnUse" color-interpolation-filters="sRGB">
<feFlood flood-opacity="0" result="BackgroundImageFix"/>
<feColorMatrix in="SourceAlpha" type="matrix" values="0 0 0 0 0 0 0 0 0 0 0 0 0 0 0 0 0 0 127 0" result="hardAlpha"/>
<feOffset dy="2"/>
<feGaussianBlur stdDeviation="1"/>
<feColorMatrix type="matrix" values="0 0 0 0 0 0 0 0 0 0 0 0 0 0 0 0 0 0 0.3 0"/>
<feBlend mode="normal" in2="BackgroundImageFix" result="effect1_dropShadow_1095_8533"/>
<feBlend mode="normal" in="SourceGraphic" in2="effect1_dropShadow_1095_8533" result="shape"/>
</filter>
<filter id="filter4_d_1095_8533" x="195.708" y="575.016" width="258.625" height="107.449" filterUnits="userSpaceOnUse" color-interpolation-filters="sRGB">
<feFlood flood-opacity="0" result="BackgroundImageFix"/>
<feColorMatrix in="SourceAlpha" type="matrix" values="0 0 0 0 0 0 0 0 0 0 0 0 0 0 0 0 0 0 127 0" result="hardAlpha"/>
<feOffset dy="7"/>
<feGaussianBlur stdDeviation="5"/>
<feColorMatrix type="matrix" values="0 0 0 0 0 0 0 0 0 0 0 0 0 0 0 0 0 0 0.3 0"/>
<feBlend mode="normal" in2="BackgroundImageFix" result="effect1_dropShadow_1095_8533"/>
<feBlend mode="normal" in="SourceGraphic" in2="effect1_dropShadow_1095_8533" result="shape"/>
</filter>
<filter id="filter5_d_1095_8533" x="279.84" y="515.01" width="97.36" height="99.9302" filterUnits="userSpaceOnUse" color-interpolation-filters="sRGB">
<feFlood flood-opacity="0" result="BackgroundImageFix"/>
<feColorMatrix in="SourceAlpha" type="matrix" values="0 0 0 0 0 0 0 0 0 0 0 0 0 0 0 0 0 0 127 0" result="hardAlpha"/>
<feOffset dy="2"/>
<feGaussianBlur stdDeviation="1"/>
<feColorMatrix type="matrix" values="0 0 0 0 0 0 0 0 0 0 0 0 0 0 0 0 0 0 0.3 0"/>
<feBlend mode="normal" in2="BackgroundImageFix" result="effect1_dropShadow_1095_8533"/>
<feBlend mode="normal" in="SourceGraphic" in2="effect1_dropShadow_1095_8533" result="shape"/>
</filter>
<linearGradient id="paint0_linear_1095_8533" x1="451.546" y1="725.144" x2="445.324" y2="724.157" gradientUnits="userSpaceOnUse">
<stop stop-color="white" stop-opacity="0"/>
<stop offset="1" stop-color="#4D4D4D"/>
</linearGradient>
</defs>
</svg>
