<svg width="1440" height="1024" viewBox="0 0 1440 1024" fill="none" xmlns="http://www.w3.org/2000/svg">
<path d="M1577.5 -4H-1.32211V1048.55H1577.5V-4Z" fill="url(#paint0_linear_1092_7634)"/>
<g style="mix-blend-mode:overlay" opacity="0.66">
<path d="M867.027 181.246C888.535 181.246 905.971 163.81 905.971 142.302C905.971 120.794 888.535 103.358 867.027 103.358C845.518 103.358 828.083 120.794 828.083 142.302C828.083 163.81 845.518 181.246 867.027 181.246Z" fill="white"/>
<path d="M576.524 377.021C585.244 377.021 592.312 369.952 592.312 361.233C592.312 352.513 585.244 345.445 576.524 345.445C567.805 345.445 560.736 352.513 560.736 361.233C560.736 369.952 567.805 377.021 576.524 377.021Z" fill="white"/>
<path d="M1114.38 227.557C1123.68 227.557 1131.22 220.017 1131.22 210.716C1131.22 201.415 1123.68 193.875 1114.38 193.875C1105.08 193.875 1097.54 201.415 1097.54 210.716C1097.54 220.017 1105.08 227.557 1114.38 227.557Z" fill="white"/>
<path d="M1069.12 288.607C1080.16 288.607 1089.12 279.654 1089.12 268.609C1089.12 257.564 1080.16 248.61 1069.12 248.61C1058.07 248.61 1049.12 257.564 1049.12 268.609C1049.12 279.654 1058.07 288.607 1069.12 288.607Z" fill="white"/>
<path d="M809.853 165.459C809.853 168.743 807.179 171.417 803.896 171.417C800.612 171.417 797.938 168.743 797.938 165.459C797.938 162.175 800.612 159.502 803.896 159.502C807.179 159.502 809.853 162.175 809.853 165.459Z" fill="white"/>
<path d="M369.173 265.452C390.1 265.452 407.065 248.487 407.065 227.56C407.065 206.633 390.1 189.668 369.173 189.668C348.246 189.668 331.282 206.633 331.282 227.56C331.282 248.487 348.246 265.452 369.173 265.452Z" fill="white"/>
<path d="M318.127 291.237C324.231 291.237 329.179 286.289 329.179 280.186C329.179 274.082 324.231 269.134 318.127 269.134C312.023 269.134 307.075 274.082 307.075 280.186C307.075 286.289 312.023 291.237 318.127 291.237Z" fill="white"/>
</g>
<g opacity="0.5">
<path d="M946.687 260.884C946.687 258.358 948.729 256.316 951.255 256.316C953.781 256.316 955.823 258.358 955.823 260.884C955.823 263.41 953.781 265.452 951.255 265.452C948.729 265.452 946.687 263.41 946.687 260.884Z" fill="white"/>
<path d="M482.849 118.789C482.849 116.263 484.891 114.221 487.417 114.221C489.943 114.221 491.985 116.263 491.985 118.789C491.985 121.316 489.943 123.358 487.417 123.358C484.891 123.358 482.849 121.316 482.849 118.789Z" fill="white"/>
<path d="M1202.79 236.675C1202.79 234.149 1204.83 232.107 1207.36 232.107C1209.88 232.107 1211.92 234.149 1211.92 236.675C1211.92 239.202 1209.88 241.244 1207.36 241.244C1204.83 241.244 1202.79 239.202 1202.79 236.675Z" fill="white"/>
<path d="M699.335 157.038C699.335 154.512 701.377 152.47 703.904 152.47C706.43 152.47 708.472 154.512 708.472 157.038C708.472 159.564 706.43 161.606 703.904 161.606C701.377 161.606 699.335 159.564 699.335 157.038Z" fill="white"/>
<path d="M469.881 287.197C469.881 284.671 471.923 282.629 474.449 282.629C476.975 282.629 479.017 284.671 479.017 287.197C479.017 289.723 476.975 291.765 474.449 291.765C471.923 291.765 469.881 289.723 469.881 287.197Z" fill="white"/>
<path d="M324.63 175.985C324.63 173.459 326.672 171.417 329.198 171.417C331.724 171.417 333.766 173.459 333.766 175.985C333.766 178.511 331.724 180.553 329.198 180.553C326.672 180.553 324.63 178.511 324.63 175.985Z" fill="white"/>
<path d="M825.642 302.289C825.642 299.763 827.684 297.721 830.21 297.721C832.736 297.721 834.778 299.763 834.778 302.289C834.778 304.815 832.736 306.857 830.21 306.857C827.684 306.857 825.642 304.815 825.642 302.289Z" fill="white"/>
<path d="M1057.2 79.1506C1057.2 76.6245 1059.24 74.5825 1061.77 74.5825C1064.29 74.5825 1066.34 76.6245 1066.34 79.1506C1066.34 81.6767 1064.29 83.7186 1061.77 83.7186C1059.24 83.7186 1057.2 81.6767 1057.2 79.1506Z" fill="white"/>
<path d="M1167.89 113.187C1169.05 113.187 1169.99 112.245 1169.99 111.082C1169.99 109.919 1169.05 108.977 1167.89 108.977C1166.73 108.977 1165.78 109.919 1165.78 111.082C1165.78 112.245 1166.73 113.187 1167.89 113.187Z" fill="white"/>
<path d="M918.602 196.679C919.764 196.679 920.707 195.736 920.707 194.574C920.707 193.411 919.764 192.469 918.602 192.469C917.439 192.469 916.497 193.411 916.497 194.574C916.497 195.736 917.439 196.679 918.602 196.679Z" fill="white"/>
<path d="M1059.64 312.457C1060.8 312.457 1061.75 311.515 1061.75 310.352C1061.75 309.19 1060.8 308.247 1059.64 308.247C1058.48 308.247 1057.54 309.19 1057.54 310.352C1057.54 311.515 1058.48 312.457 1059.64 312.457Z" fill="white"/>
<path d="M596.524 202.992C597.687 202.992 598.629 202.05 598.629 200.887C598.629 199.725 597.687 198.782 596.524 198.782C595.362 198.782 594.419 199.725 594.419 200.887C594.419 202.05 595.362 202.992 596.524 202.992Z" fill="white"/>
<path d="M550.212 322.984C551.374 322.984 552.317 322.042 552.317 320.879C552.317 319.716 551.374 318.774 550.212 318.774C549.049 318.774 548.107 319.716 548.107 320.879C548.107 322.042 549.049 322.984 550.212 322.984Z" fill="white"/>
<path d="M722.828 354.561C723.991 354.561 724.934 353.618 724.934 352.456C724.934 351.293 723.991 350.351 722.828 350.351C721.666 350.351 720.723 351.293 720.723 352.456C720.723 353.618 721.666 354.561 722.828 354.561Z" fill="white"/>
<path d="M453.375 354.561C454.538 354.561 455.48 353.618 455.48 352.456C455.48 351.293 454.538 350.351 453.375 350.351C452.213 350.351 451.27 351.293 451.27 352.456C451.27 353.618 452.213 354.561 453.375 354.561Z" fill="white"/>
<path d="M381.804 89.3186C382.967 89.3186 383.909 88.3761 383.909 87.2135C383.909 86.0509 382.967 85.1084 381.804 85.1084C380.641 85.1084 379.699 86.0509 379.699 87.2135C379.699 88.3761 380.641 89.3186 381.804 89.3186Z" fill="white"/>
<path d="M322.862 314.563C324.025 314.563 324.967 313.62 324.967 312.458C324.967 311.295 324.025 310.353 322.862 310.353C321.699 310.353 320.757 311.295 320.757 312.458C320.757 313.62 321.699 314.563 322.862 314.563Z" fill="white"/>
</g>
<path d="M610.566 244.758C613.089 244.758 615.134 242.713 615.134 240.19C615.134 237.667 613.089 235.622 610.566 235.622C608.043 235.622 605.998 237.667 605.998 240.19C605.998 242.713 608.043 244.758 610.566 244.758Z" fill="white"/>
<path d="M1078.95 382.285C1078.95 384.811 1076.91 386.853 1074.38 386.853C1071.86 386.853 1069.81 384.811 1069.81 382.285C1069.81 379.759 1071.86 377.717 1074.38 377.717C1076.91 377.717 1078.95 379.759 1078.95 382.285Z" fill="white"/>
<path d="M359.008 264.4C359.008 266.926 356.966 268.968 354.44 268.968C351.914 268.968 349.872 266.926 349.872 264.4C349.872 261.874 351.914 259.832 354.44 259.832C356.966 259.832 359.008 261.874 359.008 264.4Z" fill="white"/>
<path d="M862.479 344.034C862.479 346.56 860.437 348.602 857.911 348.602C855.385 348.602 853.343 346.56 853.343 344.034C853.343 341.508 855.385 339.466 857.911 339.466C860.437 339.466 862.479 341.508 862.479 344.034Z" fill="white"/>
<path d="M1087.37 218.444C1089.89 218.444 1091.94 216.399 1091.94 213.876C1091.94 211.353 1089.89 209.308 1087.37 209.308C1084.85 209.308 1082.8 211.353 1082.8 213.876C1082.8 216.399 1084.85 218.444 1087.37 218.444Z" fill="white"/>
<path d="M1237.19 325.087C1237.19 327.613 1235.15 329.655 1232.62 329.655C1230.09 329.655 1228.05 327.613 1228.05 325.087C1228.05 322.561 1230.09 320.519 1232.62 320.519C1235.15 320.519 1237.19 322.561 1237.19 325.087Z" fill="white"/>
<path d="M736.181 198.783C736.181 201.309 734.139 203.351 731.613 203.351C729.087 203.351 727.045 201.309 727.045 198.783C727.045 196.257 729.087 194.215 731.613 194.215C734.139 194.215 736.181 196.257 736.181 198.783Z" fill="white"/>
<path d="M504.618 421.922C504.618 424.448 502.576 426.49 500.05 426.49C497.524 426.49 495.482 424.448 495.482 421.922C495.482 419.395 497.524 417.354 500.05 417.354C502.576 417.354 504.618 419.395 504.618 421.922Z" fill="white"/>
<path d="M393.912 392.115C395.075 392.115 396.017 391.173 396.017 390.01C396.017 388.848 395.075 387.905 393.912 387.905C392.75 387.905 391.807 388.848 391.807 390.01C391.807 391.173 392.75 392.115 393.912 392.115Z" fill="white"/>
<path d="M643.194 308.605C644.356 308.605 645.299 307.662 645.299 306.5C645.299 305.337 644.356 304.395 643.194 304.395C642.031 304.395 641.089 305.337 641.089 306.5C641.089 307.662 642.031 308.605 643.194 308.605Z" fill="white"/>
<path d="M502.153 192.825C503.316 192.825 504.258 191.883 504.258 190.72C504.258 189.558 503.316 188.615 502.153 188.615C500.991 188.615 500.048 189.558 500.048 190.72C500.048 191.883 500.991 192.825 502.153 192.825Z" fill="white"/>
<path d="M965.273 302.289C966.436 302.289 967.378 301.347 967.378 300.184C967.378 299.021 966.436 298.079 965.273 298.079C964.111 298.079 963.168 299.021 963.168 300.184C963.168 301.347 964.111 302.289 965.273 302.289Z" fill="white"/>
<path d="M1011.59 182.3C1012.75 182.3 1013.69 181.357 1013.69 180.194C1013.69 179.032 1012.75 178.089 1011.59 178.089C1010.43 178.089 1009.48 179.032 1009.48 180.194C1009.48 181.357 1010.43 182.3 1011.59 182.3Z" fill="white"/>
<path d="M838.967 150.723C840.129 150.723 841.072 149.78 841.072 148.618C841.072 147.455 840.129 146.513 838.967 146.513C837.804 146.513 836.862 147.455 836.862 148.618C836.862 149.78 837.804 150.723 838.967 150.723Z" fill="white"/>
<path d="M1108.42 150.723C1109.58 150.723 1110.53 149.78 1110.53 148.618C1110.53 147.455 1109.58 146.513 1108.42 146.513C1107.26 146.513 1106.31 147.455 1106.31 148.618C1106.31 149.78 1107.26 150.723 1108.42 150.723Z" fill="white"/>
<path d="M1179.99 415.965C1181.15 415.965 1182.1 415.023 1182.1 413.86C1182.1 412.697 1181.15 411.755 1179.99 411.755C1178.83 411.755 1177.89 412.697 1177.89 413.86C1177.89 415.023 1178.83 415.965 1179.99 415.965Z" fill="white"/>
<path d="M1238.94 190.721C1240.1 190.721 1241.04 189.778 1241.04 188.616C1241.04 187.453 1240.1 186.511 1238.94 186.511C1237.77 186.511 1236.83 187.453 1236.83 188.616C1236.83 189.778 1237.77 190.721 1238.94 190.721Z" fill="white"/>
<g opacity="0.7">
<path d="M582.761 90.6784C582.761 93.2045 580.719 95.2465 578.193 95.2465C575.666 95.2465 573.625 93.2045 573.625 90.6784C573.625 88.1523 575.666 86.1104 578.193 86.1104C580.719 86.1104 582.761 88.1523 582.761 90.6784Z" fill="white"/>
<path d="M1042.03 237.339C1044.55 237.339 1046.6 235.294 1046.6 232.771C1046.6 230.248 1044.55 228.203 1042.03 228.203C1039.51 228.203 1037.46 230.248 1037.46 232.771C1037.46 235.294 1039.51 237.339 1042.03 237.339Z" fill="white"/>
<path d="M322.083 119.455C324.606 119.455 326.651 117.41 326.651 114.887C326.651 112.364 324.606 110.319 322.083 110.319C319.56 110.319 317.515 112.364 317.515 114.887C317.515 117.41 319.56 119.455 322.083 119.455Z" fill="white"/>
<path d="M830.106 194.524C830.106 197.05 828.064 199.092 825.538 199.092C823.012 199.092 820.97 197.05 820.97 194.524C820.97 191.998 823.012 189.956 825.538 189.956C828.064 189.956 830.106 191.998 830.106 194.524Z" fill="white"/>
<path d="M1059.56 64.3652C1059.56 66.8913 1057.52 68.9332 1055 68.9332C1052.47 68.9332 1050.43 66.8913 1050.43 64.3652C1050.43 61.8391 1052.47 59.7971 1055 59.7971C1057.52 59.7971 1059.56 61.8391 1059.56 64.3652Z" fill="white"/>
<path d="M1204.81 175.579C1204.81 178.105 1202.77 180.147 1200.24 180.147C1197.72 180.147 1195.68 178.105 1195.68 175.579C1195.68 173.052 1197.72 171.01 1200.24 171.01C1202.77 171.01 1204.81 173.052 1204.81 175.579Z" fill="white"/>
<path d="M703.799 49.2734C703.799 51.7995 701.757 53.8414 699.231 53.8414C696.705 53.8414 694.663 51.7995 694.663 49.2734C694.663 46.7473 696.705 44.7053 699.231 44.7053C701.757 44.7053 703.799 46.7473 703.799 49.2734Z" fill="white"/>
<path d="M472.241 272.412C472.241 274.938 470.199 276.98 467.672 276.98C465.146 276.98 463.104 274.938 463.104 272.412C463.104 269.886 465.146 267.844 467.672 267.844C470.199 267.844 472.241 269.886 472.241 272.412Z" fill="white"/>
<path d="M361.553 242.603C362.716 242.603 363.658 241.66 363.658 240.498C363.658 239.335 362.716 238.393 361.553 238.393C360.39 238.393 359.448 239.335 359.448 240.498C359.448 241.66 360.39 242.603 361.553 242.603Z" fill="white"/>
<path d="M610.841 159.095C612.003 159.095 612.946 158.153 612.946 156.99C612.946 155.827 612.003 154.885 610.841 154.885C609.678 154.885 608.736 155.827 608.736 156.99C608.736 158.153 609.678 159.095 610.841 159.095Z" fill="white"/>
<path d="M469.801 43.3137C470.963 43.3137 471.906 42.3712 471.906 41.2086C471.906 40.046 470.963 39.1035 469.801 39.1035C468.638 39.1035 467.695 40.046 467.695 41.2086C467.695 42.3712 468.638 43.3137 469.801 43.3137Z" fill="white"/>
<path d="M932.92 152.78C934.083 152.78 935.025 151.837 935.025 150.674C935.025 149.512 934.083 148.569 932.92 148.569C931.758 148.569 930.815 149.512 930.815 150.674C930.815 151.837 931.758 152.78 932.92 152.78Z" fill="white"/>
<path d="M979.229 32.7878C980.391 32.7878 981.334 31.8453 981.334 30.6827C981.334 29.5201 980.391 28.5776 979.229 28.5776C978.066 28.5776 977.124 29.5201 977.124 30.6827C977.124 31.8453 978.066 32.7878 979.229 32.7878Z" fill="white"/>
<path d="M806.614 1.21019C807.776 1.21019 808.719 0.267705 808.719 -0.894906C808.719 -2.05752 807.776 -3 806.614 -3C805.451 -3 804.509 -2.05752 804.509 -0.894906C804.509 0.267705 805.451 1.21019 806.614 1.21019Z" fill="white"/>
<path d="M1076.06 1.21019C1077.23 1.21019 1078.17 0.267705 1078.17 -0.894906C1078.17 -2.05752 1077.23 -3 1076.06 -3C1074.9 -3 1073.96 -2.05752 1073.96 -0.894906C1073.96 0.267705 1074.9 1.21019 1076.06 1.21019Z" fill="white"/>
<path d="M1147.64 266.453C1148.8 266.453 1149.74 265.511 1149.74 264.348C1149.74 263.186 1148.8 262.243 1147.64 262.243C1146.48 262.243 1145.53 263.186 1145.53 264.348C1145.53 265.511 1146.48 266.453 1147.64 266.453Z" fill="white"/>
<path d="M1206.58 41.208C1207.74 41.208 1208.69 40.2655 1208.69 39.1029C1208.69 37.9403 1207.74 36.9978 1206.58 36.9978C1205.42 36.9978 1204.48 37.9403 1204.48 39.1029C1204.48 40.2655 1205.42 41.208 1206.58 41.208Z" fill="white"/>
<path d="M112.101 699.408C114.627 699.408 116.669 701.45 116.669 703.976C116.669 706.502 114.627 708.544 112.101 708.544C109.575 708.544 107.533 706.502 107.533 703.976C107.533 701.45 109.575 699.408 112.101 699.408Z" fill="white"/>
<path d="M254.195 244.709C256.718 244.709 258.763 242.664 258.763 240.141C258.763 237.618 256.718 235.573 254.195 235.573C251.673 235.573 249.627 237.618 249.627 240.141C249.627 242.664 251.673 244.709 254.195 244.709Z" fill="white"/>
<path d="M1361.11 149.263C1363.64 149.263 1365.68 151.305 1365.68 153.831C1365.68 156.358 1363.64 158.4 1361.11 158.4C1358.59 158.4 1356.55 156.358 1356.55 153.831C1356.55 151.305 1358.59 149.263 1361.11 149.263Z" fill="white"/>
<path d="M215.946 452.06C218.472 452.06 220.514 454.102 220.514 456.628C220.514 459.154 218.472 461.196 215.946 461.196C213.42 461.196 211.378 459.154 211.378 456.628C211.378 454.102 213.42 452.06 215.946 452.06Z" fill="white"/>
<path d="M85.7876 222.605C88.3138 222.605 90.3557 224.647 90.3557 227.173C90.3557 229.699 88.3138 231.741 85.7876 231.741C83.2615 231.741 81.2196 229.699 81.2196 227.173C81.2196 224.647 83.2615 222.605 85.7876 222.605Z" fill="white"/>
<path d="M196.999 77.3538C199.525 77.3538 201.567 79.3957 201.567 81.9218C201.567 84.4479 199.525 86.4899 196.999 86.4899C194.473 86.4899 192.431 84.4479 192.431 81.9218C192.431 79.3957 194.473 77.3538 196.999 77.3538Z" fill="white"/>
<path d="M70.6926 578.366C73.2187 578.366 75.2606 580.408 75.2606 582.934C75.2606 585.46 73.2187 587.502 70.6926 587.502C68.1665 587.502 66.1245 585.46 66.1245 582.934C66.1245 580.408 68.1665 578.366 70.6926 578.366Z" fill="white"/>
<path d="M293.835 809.927C296.361 809.927 298.403 811.969 298.403 814.495C298.403 817.021 296.361 819.063 293.835 819.063C291.309 819.063 289.267 817.021 289.267 814.495C289.267 811.969 291.309 809.927 293.835 809.927Z" fill="white"/>
<path d="M178.411 673.432C179.574 673.432 180.517 672.489 180.517 671.327C180.517 670.164 179.574 669.222 178.411 669.222C177.249 669.222 176.306 670.164 176.306 671.327C176.306 672.489 177.249 673.432 178.411 673.432Z" fill="white"/>
<path d="M62.632 814.473C63.7946 814.473 64.7371 813.531 64.7371 812.368C64.7371 811.205 63.7946 810.263 62.632 810.263C61.4694 810.263 60.5269 811.205 60.5269 812.368C60.5269 813.531 61.4694 814.473 62.632 814.473Z" fill="white"/>
<path d="M172.096 351.353C173.258 351.353 174.201 350.41 174.201 349.247C174.201 348.085 173.258 347.142 172.096 347.142C170.933 347.142 169.991 348.085 169.991 349.247C169.991 350.41 170.933 351.353 172.096 351.353Z" fill="white"/>
<path d="M52.1051 305.039C53.2677 305.039 54.2102 304.096 54.2102 302.934C54.2102 301.771 53.2677 300.829 52.1051 300.829C50.9425 300.829 50 301.771 50 302.934C50 304.096 50.9425 305.039 52.1051 305.039Z" fill="white"/>
<path d="M285.773 136.633C286.935 136.633 287.878 135.691 287.878 134.528C287.878 133.365 286.935 132.423 285.773 132.423C284.61 132.423 283.668 133.365 283.668 134.528C283.668 135.691 284.61 136.633 285.773 136.633Z" fill="white"/>
<path d="M60.5254 77.6911C61.688 77.6911 62.6305 76.7487 62.6305 75.5861C62.6305 74.4234 61.688 73.481 60.5254 73.481C59.3628 73.481 58.4203 74.4234 58.4203 75.5861C58.4203 76.7487 59.3628 77.6911 60.5254 77.6911Z" fill="white"/>
<path d="M131.046 789.927C133.572 789.927 135.614 791.969 135.614 794.495C135.614 797.021 133.572 799.063 131.046 799.063C128.52 799.063 126.478 797.021 126.478 794.495C126.478 791.969 128.52 789.927 131.046 789.927Z" fill="white"/>
<path d="M273.14 335.227C275.663 335.227 277.709 333.181 277.709 330.659C277.709 328.136 275.663 326.091 273.14 326.091C270.618 326.091 268.572 328.136 268.572 330.659C268.572 333.181 270.618 335.227 273.14 335.227Z" fill="white"/>
<path d="M234.891 542.58C237.417 542.58 239.459 544.622 239.459 547.148C239.459 549.674 237.417 551.716 234.891 551.716C232.365 551.716 230.323 549.674 230.323 547.148C230.323 544.622 232.365 542.58 234.891 542.58Z" fill="white"/>
<path d="M104.731 313.124C107.257 313.124 109.299 315.166 109.299 317.692C109.299 320.218 107.257 322.26 104.731 322.26C102.205 322.26 100.163 320.218 100.163 317.692C100.163 315.166 102.205 313.124 104.731 313.124Z" fill="white"/>
<path d="M215.946 167.871C218.472 167.871 220.514 169.913 220.514 172.439C220.514 174.966 218.472 177.007 215.946 177.007C213.42 177.007 211.378 174.966 211.378 172.439C211.378 169.913 213.42 167.871 215.946 167.871Z" fill="white"/>
<path d="M89.6398 668.883C92.1659 668.883 94.2078 670.925 94.2078 673.451C94.2078 675.977 92.1659 678.019 89.6398 678.019C87.1137 678.019 85.0717 675.977 85.0717 673.451C85.0717 670.925 87.1137 668.883 89.6398 668.883Z" fill="white"/>
<path d="M312.78 900.444C315.306 900.444 317.348 902.486 317.348 905.012C317.348 907.538 315.306 909.58 312.78 909.58C310.254 909.58 308.212 907.538 308.212 905.012C308.212 902.486 310.254 900.444 312.78 900.444Z" fill="white"/>
<path d="M197.359 763.949C198.521 763.949 199.464 763.007 199.464 761.844C199.464 760.682 198.521 759.739 197.359 759.739C196.196 759.739 195.254 760.682 195.254 761.844C195.254 763.007 196.196 763.949 197.359 763.949Z" fill="white"/>
<path d="M81.575 904.993C82.7377 904.993 83.6801 904.05 83.6801 902.888C83.6801 901.725 82.7377 900.783 81.575 900.783C80.4124 900.783 79.47 901.725 79.47 902.888C79.47 904.05 80.4124 904.993 81.575 904.993Z" fill="white"/>
<path d="M191.043 441.873C192.205 441.873 193.148 440.931 193.148 439.768C193.148 438.605 192.205 437.663 191.043 437.663C189.88 437.663 188.938 438.605 188.938 439.768C188.938 440.931 189.88 441.873 191.043 441.873Z" fill="white"/>
<path d="M71.0523 395.561C72.2149 395.561 73.1574 394.618 73.1574 393.455C73.1574 392.293 72.2149 391.35 71.0523 391.35C69.8897 391.35 68.9472 392.293 68.9472 393.455C68.9472 394.618 69.8897 395.561 71.0523 395.561Z" fill="white"/>
<path d="M304.714 227.152C305.876 227.152 306.819 226.209 306.819 225.047C306.819 223.884 305.876 222.941 304.714 222.941C303.551 222.941 302.608 223.884 302.608 225.047C302.608 226.209 303.551 227.152 304.714 227.152Z" fill="white"/>
<path d="M79.4726 168.21C80.6352 168.21 81.5777 167.267 81.5777 166.105C81.5777 164.942 80.6352 164 79.4726 164C78.31 164 77.3675 164.942 77.3675 166.105C77.3675 167.267 78.31 168.21 79.4726 168.21Z" fill="white"/>
<path d="M1276.62 699.408C1279.14 699.408 1281.18 701.45 1281.18 703.976C1281.18 706.502 1279.14 708.544 1276.62 708.544C1274.09 708.544 1272.05 706.502 1272.05 703.976C1272.05 701.45 1274.09 699.408 1276.62 699.408Z" fill="white"/>
<path d="M1418.71 244.709C1421.24 244.709 1423.28 242.664 1423.28 240.141C1423.28 237.618 1421.24 235.573 1418.71 235.573C1416.19 235.573 1414.15 237.618 1414.15 240.141C1414.15 242.664 1416.19 244.709 1418.71 244.709Z" fill="white"/>
<path d="M1380.48 452.06C1383.01 452.06 1385.05 454.102 1385.05 456.628C1385.05 459.154 1383.01 461.196 1380.48 461.196C1377.96 461.196 1375.91 459.154 1375.91 456.628C1375.91 454.102 1377.96 452.06 1380.48 452.06Z" fill="white"/>
<path d="M1250.3 222.605C1252.83 222.605 1254.87 224.647 1254.87 227.173C1254.87 229.699 1252.83 231.741 1250.3 231.741C1247.78 231.741 1245.73 229.699 1245.73 227.173C1245.73 224.647 1247.78 222.605 1250.3 222.605Z" fill="white"/>
<path d="M1361.53 77.3538C1364.06 77.3538 1366.1 79.3957 1366.1 81.9218C1366.1 84.4479 1364.06 86.4899 1361.53 86.4899C1359.01 86.4899 1356.97 84.4479 1356.97 81.9218C1356.97 79.3957 1359.01 77.3538 1361.53 77.3538Z" fill="white"/>
<path d="M1235.23 578.366C1237.76 578.366 1239.8 580.408 1239.8 582.934C1239.8 585.46 1237.76 587.502 1235.23 587.502C1232.71 587.502 1230.66 585.46 1230.66 582.934C1230.66 580.408 1232.71 578.366 1235.23 578.366Z" fill="white"/>
<path d="M1342.93 673.432C1344.09 673.432 1345.03 672.489 1345.03 671.327C1345.03 670.164 1344.09 669.222 1342.93 669.222C1341.77 669.222 1340.82 670.164 1340.82 671.327C1340.82 672.489 1341.77 673.432 1342.93 673.432Z" fill="white"/>
<path d="M1227.15 814.473C1228.31 814.473 1229.25 813.531 1229.25 812.368C1229.25 811.205 1228.31 810.263 1227.15 810.263C1225.98 810.263 1225.04 811.205 1225.04 812.368C1225.04 813.531 1225.98 814.473 1227.15 814.473Z" fill="white"/>
<path d="M1336.61 351.353C1337.77 351.353 1338.72 350.41 1338.72 349.247C1338.72 348.085 1337.77 347.142 1336.61 347.142C1335.45 347.142 1334.51 348.085 1334.51 349.247C1334.51 350.41 1335.45 351.353 1336.61 351.353Z" fill="white"/>
<path d="M1216.62 305.039C1217.78 305.039 1218.72 304.096 1218.72 302.934C1218.72 301.771 1217.78 300.829 1216.62 300.829C1215.46 300.829 1214.51 301.771 1214.51 302.934C1214.51 304.096 1215.46 305.039 1216.62 305.039Z" fill="white"/>
<path d="M1225.04 77.6911C1226.21 77.6911 1227.15 76.7487 1227.15 75.5861C1227.15 74.4234 1226.21 73.481 1225.04 73.481C1223.88 73.481 1222.94 74.4234 1222.94 75.5861C1222.94 76.7487 1223.88 77.6911 1225.04 77.6911Z" fill="white"/>
<path d="M1295.56 789.927C1298.09 789.927 1300.13 791.969 1300.13 794.495C1300.13 797.021 1298.09 799.063 1295.56 799.063C1293.04 799.063 1290.99 797.021 1290.99 794.495C1290.99 791.969 1293.04 789.927 1295.56 789.927Z" fill="white"/>
<path d="M1437.65 335.227C1440.18 335.227 1442.22 333.181 1442.22 330.659C1442.22 328.136 1440.18 326.091 1437.65 326.091C1435.13 326.091 1433.09 328.136 1433.09 330.659C1433.09 333.181 1435.13 335.227 1437.65 335.227Z" fill="white"/>
<path d="M1399.43 542.58C1401.95 542.58 1403.99 544.622 1403.99 547.148C1403.99 549.674 1401.95 551.716 1399.43 551.716C1396.9 551.716 1394.86 549.674 1394.86 547.148C1394.86 544.622 1396.9 542.58 1399.43 542.58Z" fill="white"/>
<path d="M1269.25 313.124C1271.78 313.124 1273.82 315.166 1273.82 317.692C1273.82 320.218 1271.78 322.26 1269.25 322.26C1266.72 322.26 1264.68 320.218 1264.68 317.692C1264.68 315.166 1266.72 313.124 1269.25 313.124Z" fill="white"/>
<path d="M1380.48 167.871C1383.01 167.871 1385.05 169.913 1385.05 172.439C1385.05 174.966 1383.01 177.007 1380.48 177.007C1377.96 177.007 1375.91 174.966 1375.91 172.439C1375.91 169.913 1377.96 167.871 1380.48 167.871Z" fill="white"/>
<path d="M1254.17 668.883C1256.7 668.883 1258.74 670.925 1258.74 673.451C1258.74 675.977 1256.7 678.019 1254.17 678.019C1251.65 678.019 1249.6 675.977 1249.6 673.451C1249.6 670.925 1251.65 668.883 1254.17 668.883Z" fill="white"/>
<path d="M1361.87 763.949C1363.03 763.949 1363.98 763.007 1363.98 761.844C1363.98 760.682 1363.03 759.739 1361.87 759.739C1360.71 759.739 1359.77 760.682 1359.77 761.844C1359.77 763.007 1360.71 763.949 1361.87 763.949Z" fill="white"/>
<path d="M1246.09 904.993C1247.26 904.993 1248.2 904.05 1248.2 902.888C1248.2 901.725 1247.26 900.783 1246.09 900.783C1244.93 900.783 1243.99 901.725 1243.99 902.888C1243.99 904.05 1244.93 904.993 1246.09 904.993Z" fill="white"/>
<path d="M1355.56 441.873C1356.72 441.873 1357.66 440.931 1357.66 439.768C1357.66 438.605 1356.72 437.663 1355.56 437.663C1354.39 437.663 1353.45 438.605 1353.45 439.768C1353.45 440.931 1354.39 441.873 1355.56 441.873Z" fill="white"/>
<path d="M1235.57 395.561C1236.73 395.561 1237.67 394.618 1237.67 393.455C1237.67 392.293 1236.73 391.35 1235.57 391.35C1234.41 391.35 1233.46 392.293 1233.46 393.455C1233.46 394.618 1234.41 395.561 1235.57 395.561Z" fill="white"/>
<path d="M1243.99 168.21C1245.15 168.21 1246.09 167.267 1246.09 166.105C1246.09 164.942 1245.15 164 1243.99 164C1242.83 164 1241.88 164.942 1241.88 166.105C1241.88 167.267 1242.83 168.21 1243.99 168.21Z" fill="white"/>
</g>
<path d="M295.665 477.833H234.112V619.463H295.665H296.613H358.145V449.161H295.665V477.833Z" fill="#00303F"/>
<path d="M487.357 479.306V471.054C487.357 458.255 477 447.898 464.201 447.898C451.402 447.898 441.045 458.255 441.045 471.054V495.305H365.956V637.841H449.802V631.736H486.136V637.841H525.038V479.328H495.609L494.388 525.113L487.252 524.945L487.378 479.328L487.357 479.306Z" fill="#00303F"/>
<path d="M49.3706 477.833H-12.1823V619.463H49.3706H50.3179H111.85V449.161H49.3706V477.833Z" fill="#00303F"/>
<path d="M241.06 479.306V471.054C241.06 458.255 230.703 447.898 217.904 447.898C205.105 447.898 194.748 458.255 194.748 471.054V495.305H119.659V637.841H203.505V631.736H239.839V637.841H278.741V479.328H249.312L248.091 525.113L240.955 524.945L241.081 479.328L241.06 479.306Z" fill="#00303F"/>
<path d="M600.21 477.833H538.657V619.463H600.21H601.136H662.689V449.161H600.21V477.833Z" fill="#00303F"/>
<path d="M791.874 479.306V471.054C791.874 458.255 781.517 447.898 768.718 447.898C755.919 447.898 745.562 458.255 745.562 471.054V495.305H670.473V637.841H754.319V631.736H790.653V637.841H829.555V479.328H800.126L798.905 525.113L791.769 524.945L791.895 479.328L791.874 479.306Z" fill="#00303F"/>
<path d="M904.731 477.833H843.199V619.463H904.731H905.678H967.231V449.161H904.731V477.833Z" fill="#00303F"/>
<path d="M1096.42 479.306V471.054C1096.42 458.255 1086.06 447.898 1073.26 447.898C1060.47 447.898 1050.11 458.255 1050.11 471.054V495.305H975.02V637.841H1058.87V631.736H1095.2V637.841H1134.08V479.328H1104.65L1103.43 525.113L1096.29 524.945L1096.42 479.328V479.306Z" fill="#00303F"/>
<path d="M1188.92 477.833H1127.39V619.463H1188.92H1189.86H1251.42V449.161H1188.92V477.833Z" fill="#00303F"/>
<path d="M1380.61 479.306V471.054C1380.61 458.255 1370.25 447.898 1357.45 447.898C1344.65 447.898 1334.29 458.255 1334.29 471.054V495.305H1259.2V637.841H1343.05V631.736H1379.38V637.841H1418.27V479.328H1388.84L1387.62 525.113L1380.48 524.945L1380.61 479.328V479.306Z" fill="#00303F"/>
<path d="M1378.37 477.833H1316.84V619.463H1378.37H1379.32H1440.87V449.161H1378.37V477.833Z" fill="#00303F"/>
<path d="M541.089 787.357V614.487H533.7V604.529H522.627V555.649H514.27V604.529H504.418V614.487H499.345V591.225H433.35V571.522H437.687C442.739 571.522 446.844 567.417 446.844 562.364C446.844 557.312 442.739 553.207 437.687 553.207H433.308C432.55 534.198 416.91 519 397.69 519C378.492 519 362.83 534.177 362.072 553.207H358.788C353.736 553.207 349.631 557.312 349.631 562.364C349.631 567.417 353.736 571.522 358.788 571.522H362.03V614.487H309.445V544.997H300.814V531.777H237.029V544.997H228.693V787.357H541.068H541.089Z" fill="#01232B"/>
<path d="M246.375 787.357V614.487H238.986V604.529H227.913V555.649H219.556V604.529H209.704V614.487H204.631V591.225H138.636V571.522H142.973C148.025 571.522 152.13 567.417 152.13 562.364C152.13 557.312 148.025 553.207 142.973 553.207H138.594C137.836 534.198 122.195 519 102.976 519C83.7773 519 68.1154 534.177 67.3576 553.207H64.0737C59.0214 553.207 54.9165 557.312 54.9165 562.364C54.9165 567.417 59.0214 571.522 64.0737 571.522H67.3155V614.487H14.7302V544.997H6.09936V531.777H-57.6639V544.997H-66.0001V787.357H246.375Z" fill="#01232B"/>
<path d="M845.61 787.357V614.487H838.221V604.529H827.148V555.649H818.791V604.529H808.939V614.487H803.887V591.225H737.892V571.522H742.228C747.281 571.522 751.386 567.417 751.386 562.364C751.386 557.312 747.281 553.207 742.228 553.207H737.85C737.092 534.198 721.451 519 702.232 519C683.033 519 667.371 534.177 666.613 553.207H663.329C658.277 553.207 654.172 557.312 654.172 562.364C654.172 567.417 658.277 571.522 663.329 571.522H666.571V614.487H613.986V544.997H605.355V531.777H541.571V544.997H533.235V787.357H845.61Z" fill="#01232B"/>
<path d="M1150.15 787.357V614.487H1142.76V604.529H1131.69V555.649H1123.33V604.529H1113.48V614.487H1108.43V591.225H1042.44V571.522H1046.77C1051.82 571.522 1055.93 567.417 1055.93 562.364C1055.93 557.312 1051.82 553.207 1046.77 553.207H1042.41C1041.66 534.198 1026.02 519 1006.8 519C987.598 519 971.936 534.177 971.178 553.207H967.894C962.842 553.207 958.737 557.312 958.737 562.364C958.737 567.417 962.842 571.522 967.894 571.522H971.136V614.487H918.551V544.997H909.92V531.777H846.135V544.997H837.799V787.357H1150.17H1150.15Z" fill="#01232B"/>
<path d="M1434.34 787.357V614.487H1426.95V604.529H1415.88V555.649H1407.52V604.529H1397.67V614.487H1392.62V591.225H1326.62V571.522H1330.96C1336.01 571.522 1340.12 567.417 1340.12 562.364C1340.12 557.312 1336.01 553.207 1330.96 553.207H1326.6C1325.84 534.198 1310.2 519 1290.98 519C1271.78 519 1256.12 534.177 1255.36 553.207H1252.08C1247.03 553.207 1242.92 557.312 1242.92 562.364C1242.92 567.417 1247.03 571.522 1252.08 571.522H1255.32V614.487H1202.74V544.997H1194.11V531.777H1130.32V544.997H1121.99V787.357H1434.36H1434.34Z" fill="#01232B"/>
<path d="M1739.58 787.357V614.487H1732.19V604.529H1721.12V555.649H1712.76V604.529H1702.91V614.487H1697.85V591.225H1631.86V571.522H1636.2C1641.25 571.522 1645.35 567.417 1645.35 562.364C1645.35 557.312 1641.25 553.207 1636.2 553.207H1631.84C1631.08 534.198 1615.44 519 1596.22 519C1577.02 519 1561.36 534.177 1560.6 553.207H1557.32C1552.27 553.207 1548.16 557.312 1548.16 562.364C1548.16 567.417 1552.27 571.522 1557.32 571.522H1560.56V614.487H1507.97V544.997H1499.34V531.777H1435.56V544.997H1427.22V787.357H1739.6H1739.58Z" fill="#01232B"/>
<path style="mix-blend-mode:hard-light" d="M1707.43 739.083L1707.14 570.465L1173.66 653.385L1664.45 434.203L1579.97 288.278L1159.22 626.587L1474.92 191.549L1328.85 107.324L1133.33 610.568L1189.52 76H1020.9L1103.1 611.094L880.719 120.081L735.236 205.316L1075.73 624.293L639.075 310.844L555.608 457.359L1059.86 650.248L525 596.842L525.884 765.46L1059.08 680.688L569.06 901.576L654.042 1047.21L1073.61 707.444L759.423 1143.58L905.79 1227.3L1099.56 723.379L1045.23 1258.14L1213.85 1257.55L1130 724.221L1350.05 1214.62L1495.83 1129.89L1156.8 709.738L1592.39 1024.68L1676.36 878.462L1172.78 683.825L1707.45 739.083H1707.43ZM1116.93 667.531L1116.57 667.742H1116.15L1115.77 667.531L1115.56 667.173V666.752L1115.77 666.373L1116.15 666.163H1116.57L1116.95 666.373L1117.16 666.731V667.152L1116.95 667.531H1116.93Z" fill="url(#paint1_radial_1092_7634)"/>
<path d="M567.809 510.167H550.968V520.861H567.809V510.167Z" fill="#011619"/>
<path d="M1350.62 758.756C1342.54 745.046 1332.5 722.154 1339.09 701.182C1339.83 700.935 1340.55 700.665 1341.21 700.419C1345.05 699.015 1344.76 694.363 1340.87 693.083C1286.26 675.213 1283.01 634.524 1283.01 634.524C1276.07 676.173 1240.39 689.736 1223.99 696.8C1218.31 676.763 1216.21 654.733 1222.84 633.687C1224.26 633.195 1225.62 632.703 1226.95 632.235C1234.36 629.552 1233.82 620.518 1226.28 618.057C1141.56 590.34 1120.86 534.169 1115.98 513.147V501.529H1136.54V486.071H1112.22V501.529H1112.27V515.806C1093.65 592.162 1022.7 615.029 995.394 627.484C988.697 630.536 989.46 639.152 996.576 641.318C999.702 642.278 1002.83 643.164 1005.93 644.025C1008.86 659.976 1007.36 676.222 1003.62 691.483C953.367 672.924 950.29 634.499 950.29 634.499C946.597 656.604 934.828 670.782 922.149 680.283L895.706 634.352C902.255 629.921 908.46 624.998 914.27 619.632C915.526 619.583 916.757 619.238 917.889 618.647C917.618 619.632 917.446 620.666 917.421 621.724H917.397V634.081H917.495C918.209 640.407 923.552 645.33 930.027 645.33H934.73C941.229 645.33 946.572 640.407 947.261 634.081H947.36V621.724H947.335C947.138 614.906 941.574 609.441 934.73 609.441H930.027C927.27 609.441 924.734 610.327 922.666 611.829C922.666 611.632 922.715 611.411 922.715 611.214C947.606 584.531 963.363 549.208 964.963 510.267C965.825 509.332 966.49 508.224 966.884 506.994V511.449V514.452C966.884 519.006 970.577 522.673 975.107 522.673H988.599C993.154 522.673 996.822 518.981 996.822 514.452V511.449V499.092V495.055C996.822 490.502 993.129 486.834 988.599 486.834H975.107C970.552 486.834 966.884 490.526 966.884 495.055V499.092V501.357C966.49 500.126 965.825 499.043 964.988 498.108C963.634 459.339 948.271 424.066 923.798 397.284C923.798 396.964 923.749 396.669 923.724 396.349C925.571 397.432 927.713 398.047 930.002 398.047H934.705C941.205 398.047 946.547 393.124 947.237 386.798H947.335V374.442H947.311C947.114 367.623 941.549 362.159 934.705 362.159H930.002C923.158 362.159 917.594 367.623 917.397 374.442H917.372V386.798H917.471C917.545 387.463 917.668 388.128 917.865 388.768C916.88 388.423 915.846 388.226 914.812 388.226C888.37 363.611 853.507 348.005 815.099 346.282C814.878 346.036 814.632 345.79 814.361 345.568C819.556 344.411 823.544 340.03 824.135 334.639H824.234V322.282H824.209C824.012 315.464 818.448 310 811.603 310H806.901C800.057 310 794.492 315.464 794.295 322.282H794.271V334.639H794.369C794.935 339.71 798.481 343.87 803.208 345.322C802.863 345.593 802.518 345.888 802.223 346.208C763.84 347.611 728.928 362.897 702.314 387.192C700.615 387.118 698.916 387.537 697.414 388.423C697.538 387.881 697.661 387.34 697.71 386.774H697.808V374.417H697.784C697.587 367.599 692.023 362.134 685.178 362.134H680.476C673.631 362.134 668.067 367.599 667.87 374.417H667.845V386.774H667.944C668.658 393.1 674.001 398.023 680.476 398.023H685.178C688.182 398.023 690.939 396.964 693.106 395.192C693.057 395.586 693.032 395.98 693.057 396.374C668.486 422.835 652.876 457.764 651.079 496.261C650.66 496.68 650.291 497.123 649.946 497.591V494.981C649.946 490.428 646.253 486.76 641.723 486.76H628.231C623.677 486.76 620.008 490.452 620.008 494.981V499.018V511.375V514.378C620.008 518.932 623.701 522.6 628.231 522.6H641.723C646.278 522.6 649.946 518.907 649.946 514.378V511.375V507.683C650.267 508.15 650.611 508.569 651.005 508.963C652.31 547.682 667.575 582.931 691.949 609.712C691.949 610.328 692.023 610.918 692.17 611.509C690.151 610.155 687.739 609.367 685.153 609.367H680.451C673.607 609.367 668.042 614.832 667.845 621.65H667.821V623.472C662.109 625.146 656.003 626.893 649.577 628.641L639.187 631.398C637.661 631.792 636.085 632.21 634.485 632.604L622.249 635.632C621.485 635.829 620.673 636.001 619.885 636.198C547.895 606.291 543.34 549.775 543.34 549.775C535.684 595.682 505.721 619.755 479.722 633.859L474.601 632.579C473.025 632.21 471.425 631.816 469.898 631.398L459.508 628.641C451.334 626.401 443.702 624.21 436.735 622.118L430.456 620.198L426.96 619.14C424.941 618.5 422.972 617.884 421.101 617.294L407.313 612.715V612.764C406.427 612.469 405.565 612.174 404.753 611.903L398.745 609.786L392.861 607.718C392.418 607.546 391.999 607.398 391.655 607.275C395.372 605.724 397.982 602.032 397.982 597.749C397.982 592.039 393.378 587.411 387.666 587.411C381.954 587.411 377.35 592.039 377.35 597.749C377.35 602.598 380.699 606.66 385.204 607.768V758.682H-70.0007V1257.88H1776.52V758.682H1350.59L1350.62 758.756ZM988.599 510.046H983.33V499.486H988.599V510.046ZM991.258 499.486H994.187V510.046H991.258V499.486ZM980.671 510.046H975.402V499.486H980.671V510.046ZM972.768 510.046H969.543V499.486H972.768V510.046ZM941.746 374.86H944.676V385.42H941.746V374.86ZM933.819 374.86H939.087V385.42H933.819V374.86ZM925.891 374.86H931.16V385.42H925.891V374.86ZM469.676 632.579C471.301 632.998 472.951 633.441 474.65 633.859L474.748 636.567C470.12 638.906 465.688 640.949 461.576 642.745L469.676 632.579ZM645.17 639.841L652.704 649.293V629.01C654.033 628.641 655.363 628.272 656.668 627.903L661.69 633.958L670.332 644.37L670.234 640.013C672.523 643.213 676.241 645.305 680.451 645.305H685.153C691.653 645.305 696.996 640.382 697.685 634.056H697.784V628.321L703.028 634.155L702.166 619.952C707.312 624.653 712.777 629.035 718.489 633.023V641.342L709.454 657.047C705.047 657.318 700.837 657.564 696.823 657.761H696.356L686.803 658.204C684.612 658.278 682.519 658.351 680.476 658.425L665.95 658.721V658.77C664.989 658.77 664.054 658.77 663.143 658.794H650.734C649.774 658.794 648.912 658.77 648.297 658.745C646.352 658.696 644.407 658.598 642.462 658.499L631.9 658.007C631.26 657.982 630.619 657.933 629.979 657.884C630.299 656.628 630.619 655.373 631.013 654.118C631.727 653.871 632.417 653.625 633.106 653.379L633.672 654.142V653.182C633.919 653.108 634.14 653.035 634.337 652.961C640.221 650.819 639.901 643.73 634.091 641.589L634.362 633.859C636.061 633.416 637.71 632.998 639.335 632.579L645.121 639.841H645.17ZM708.641 605.429L711.719 602.352C712.851 604.666 714.796 606.488 717.184 607.423C716.864 607.546 716.52 607.669 716.15 607.792L711.743 609.343L709.7 610.057C709.774 608.457 709.429 606.857 708.641 605.404V605.429ZM725.678 628.912C725.088 628.518 724.521 628.124 723.955 627.73V607.644C728.165 606.34 731.267 602.451 731.267 597.798C731.267 593.712 728.904 590.242 725.482 588.543L780.976 532.913L725.703 628.912H725.678ZM797.447 531.067C800.401 532.199 803.553 532.889 806.876 533.036V645.527C802.42 645.65 798.776 649.047 798.284 653.428C776.273 652.001 755.568 645.798 737.152 635.829L797.471 531.067H797.447ZM638.276 679.003L642.782 667.828L646.007 659.804C646.45 659.804 646.893 659.828 647.337 659.853C647.337 659.853 647.386 659.853 647.411 659.853C647.928 659.853 648.789 659.878 649.971 659.902L655.117 679.496L660.582 667.016L661.912 663.988L663.709 659.902C664.571 659.902 665.408 659.902 666.319 659.878L671.859 679.299L680.057 659.558C680.919 659.533 681.805 659.508 682.691 659.459L688.748 678.831L693.524 666.45L696.43 658.918C697.537 658.868 698.645 658.819 699.803 658.745L702.979 668.419L682.987 703.151H631.481C627.739 689.046 626.286 673.834 629.782 659.016C630.644 659.065 631.481 659.114 632.343 659.164L638.326 678.979L638.276 679.003ZM716.766 758.756H666.368L695.789 707.655H716.766V758.756ZM654.378 752.75C647.706 742.584 638.375 726.289 632.688 707.631H680.352L654.378 752.75ZM894.205 707.631C897.257 726.707 888.419 746.424 881.18 758.731H856.388V707.631H894.18H894.205ZM851.931 758.756H811.333V707.655H851.931V758.756ZM806.876 758.756H766.277V707.655H806.876V758.756ZM761.821 758.756H723.955V707.655H761.821V758.756ZM698.35 703.175L718.489 668.197V703.175H698.35ZM676.069 626.598L678.358 629.281L681.239 632.678H676.069V626.623V626.598ZM686.729 632.678L686.36 622.118H689.265V632.678H686.729ZM691.924 622.118H692.195L695.125 625.392V632.678H691.899V622.118H691.924ZM718.465 623.792L717.234 608.58C717.702 608.408 718.145 608.235 718.489 608.112V623.817C718.489 623.817 718.489 623.816 718.465 623.792ZM673.41 623.497V632.678H670.48V623.94C671.366 623.669 672.252 623.423 673.139 623.152L673.434 623.497H673.41ZM910.872 687.569C902.034 692.492 893.786 695.594 888.591 697.982C886.252 699.04 885.711 701.403 886.72 703.2H723.955V658.77L733.409 642.352C753.746 653.404 776.741 660.074 801.189 661.108C801.583 661.478 802.026 661.798 802.469 662.068C796.486 662.954 791.882 668 791.686 674.203H791.661V686.56H791.759C792.473 692.886 797.816 697.809 804.291 697.809H808.994C815.493 697.809 820.836 692.886 821.525 686.56H821.624V674.203H821.599C821.427 668.271 817.192 663.373 811.579 662.191C812.071 661.896 812.564 661.551 812.982 661.158C838.784 660.345 863.035 653.256 884.258 641.392L910.848 687.569H910.872ZM805.448 674.573V685.133H800.18V674.573H805.448ZM797.545 674.573V685.133H794.32V674.573H797.545ZM816.035 685.108V674.548H818.965V685.108H816.035ZM906.835 616.235C902.108 620.42 897.134 624.284 891.915 627.853L839.301 536.458L907.327 604.666C904.323 607.915 904.151 612.814 906.835 616.235ZM941.746 622.118H944.676V632.678H941.746V622.118ZM933.819 622.118H939.087V632.678H933.819V622.118ZM925.891 622.118H931.16V632.678H925.891V622.118ZM923.232 622.118V632.678H920.007V622.118H923.232ZM919.367 603.804C916.584 601.565 912.817 601.269 909.74 602.869L833.589 526.513L831.349 522.624C835.534 517.8 838.243 511.621 838.735 504.852H949.625C949.92 509.11 953.146 512.507 957.331 513.049C955.189 547.805 941.229 579.411 919.391 603.829L919.367 603.804ZM920.031 374.86H923.257V385.42H920.031V374.86ZM920.08 404.423C941.722 428.939 955.46 460.594 957.38 495.375C953.761 495.818 950.856 498.403 949.896 501.849H838.784C838.612 494.44 835.805 487.695 831.25 482.502L909.346 404.177C912.473 406.687 916.855 406.761 920.08 404.423ZM818.62 322.725H821.55V333.285H818.62V322.725ZM810.717 322.725H815.986V333.285H810.717V322.725ZM809.855 361.297C813.696 360.756 816.749 357.777 817.389 353.962C851.981 356.128 883.421 370.109 907.721 391.943C905.554 394.921 905.407 398.884 907.352 401.961L829.182 480.335C824.086 475.536 817.315 472.483 809.855 472.114V361.273V361.297ZM809.855 533.036C813.622 532.864 817.217 532.002 820.491 530.575L880.54 634.869C861.238 645.65 839.301 652.271 815.986 653.502C815.616 649.933 813.154 646.979 809.831 645.921V533.012L809.855 533.036ZM808.132 674.573H813.401V685.133H808.132V674.573ZM800.13 333.261H796.905V322.701H800.13V333.261ZM802.789 333.261V322.701H808.058V333.261H802.789ZM709.232 391.081C733.68 369.494 765.219 355.759 799.835 353.888C800.426 357.58 803.257 360.51 806.901 361.223V472.139C799.416 472.508 792.67 475.536 787.574 480.36L708.986 401.567C711.325 398.491 711.448 394.257 709.257 391.106L709.232 391.081ZM673.41 385.42H670.48V374.86H673.41V385.42ZM681.337 385.42H676.069V374.86H681.337V385.42ZM689.265 385.42H683.996V374.86H689.265V385.42ZM691.924 385.42V374.86H695.149V385.42H691.924ZM696.799 403.414C699.803 405.53 703.791 405.604 706.844 403.586L785.506 482.452C780.951 487.646 778.144 494.391 777.972 501.8H666.122C665.728 497.763 662.675 494.514 658.711 493.874C660.952 459.216 674.961 427.709 696.774 403.389L696.799 403.414ZM628.231 499.486H633.5V510.046H628.231V499.486ZM625.572 510.046H622.642V499.486H625.572V510.046ZM636.159 499.486H641.428V510.046H636.159V499.486ZM644.087 499.486H647.312V510.046H644.087V499.486ZM658.588 511.498C662.183 510.957 665.088 508.298 665.925 504.803H778.021C778.538 511.99 781.542 518.489 786.171 523.436L722.207 587.583C721.788 587.534 721.37 587.46 720.927 587.46C715.239 587.46 710.611 592.088 710.611 597.798C710.611 598.241 710.685 598.66 710.734 599.078L706.77 603.066C703.594 600.211 698.892 600.038 695.519 602.574C673.976 577.983 660.336 546.304 658.564 511.523L658.588 511.498ZM670.48 622.118H672.597L672.326 622.192C671.711 622.389 671.095 622.586 670.455 622.758V622.093L670.48 622.118ZM422.824 619.09L422.11 639.373L430.727 629.281L435.971 623.152C437.03 623.472 438.113 623.792 439.197 624.112L438.778 644.395L447.42 633.982L452.442 627.927C453.747 628.296 455.101 628.666 456.431 629.035V645.01C452.812 646.536 449.586 647.915 446.878 649.145C442.52 651.139 442.077 656.038 445.056 658.794C444.441 658.794 443.751 658.794 443.111 658.794V658.745L428.61 658.45C426.566 658.401 424.474 658.327 422.282 658.228L412.262 657.761C405.59 657.465 398.401 657.022 390.719 656.481V628.223L404.802 613.158C405.59 613.429 406.427 613.724 407.289 613.995L406.058 634.155L415.241 623.94L420.313 618.278C421.125 618.549 421.962 618.82 422.824 619.066V619.09ZM390.719 622.537V608.161C391.039 608.284 391.433 608.432 391.852 608.58L390.719 622.537ZM390.719 657.613C392.369 657.736 393.994 657.835 395.594 657.958L398.327 665.342L403.005 678.043L409.332 658.77C410.465 658.819 411.573 658.893 412.705 658.942L420.387 678.88L426.443 659.508C427.33 659.533 428.216 659.582 429.078 659.607L437.276 679.348L442.816 659.927C443.727 659.927 444.564 659.927 445.425 659.951L454.018 679.545L456.431 670.413C459.336 707.852 435.43 745.489 425.975 758.781H390.793V657.638L390.719 657.613Z" fill="#011619"/>
<defs>
<linearGradient id="paint0_linear_1092_7634" x1="788.088" y1="-49.1753" x2="788.088" y2="771.011" gradientUnits="userSpaceOnUse">
<stop stop-color="#00303F"/>
<stop offset="1" stop-color="#2E3192"/>
</linearGradient>
<radialGradient id="paint1_radial_1092_7634" cx="0" cy="0" r="1" gradientUnits="userSpaceOnUse" gradientTransform="translate(1114.76 662.963) scale(488.024 488.024)">
<stop stop-color="#FF3E86"/>
<stop offset="1" stop-color="#FF3E86" stop-opacity="0"/>
</radialGradient>
</defs>
</svg>
