<svg width="85" height="85" viewBox="0 0 85 85" fill="none" xmlns="http://www.w3.org/2000/svg">
<circle cx="42.5" cy="42.5" r="41.5" fill="#0D0C33" stroke="#467CF5" stroke-width="2"/>
<path d="M44.7602 67.4232L44.7369 67.4274L44.586 67.5018L44.5435 67.5103L44.5137 67.5018L44.3629 67.4274C44.3402 67.4203 44.3232 67.4239 44.3119 67.4381L44.3034 67.4593L44.2672 68.3688L44.2779 68.4113L44.2991 68.4389L44.5201 68.5962L44.552 68.6047L44.5775 68.5962L44.7985 68.4389L44.824 68.4049L44.8325 68.3688L44.7964 67.4614C44.7907 67.4388 44.7787 67.426 44.7602 67.4232ZM45.3234 67.1831L45.2957 67.1873L44.9026 67.3849L44.8814 67.4062L44.875 67.4296L44.9132 68.3433L44.9239 68.3688L44.9409 68.3837L45.368 68.5813C45.3949 68.5884 45.4155 68.5827 45.4296 68.5643L45.4381 68.5346L45.3659 67.2298C45.3588 67.2043 45.3446 67.1887 45.3234 67.1831ZM43.804 67.1873C43.7946 67.1816 43.7834 67.1798 43.7727 67.1822C43.7621 67.1845 43.7527 67.1909 43.7466 67.2001L43.7339 67.2298L43.6616 68.5346C43.663 68.5601 43.6751 68.5771 43.6977 68.5856L43.7296 68.5813L44.1567 68.3837L44.178 68.3667L44.1865 68.3433L44.2226 67.4296L44.2162 67.4041L44.195 67.3828L43.804 67.1873Z" fill="white"/>
<path d="M43.5 26.5C45.3169 26.5 47.1805 26.5468 48.9867 26.6233L51.1203 26.7252L53.1624 26.8464L55.0749 26.976L56.8216 27.112C58.7175 27.2563 60.5017 28.0649 61.8599 29.3955C63.2181 30.7261 64.0632 32.4933 64.2464 34.3859L64.3314 35.289L64.4907 37.2227C64.6395 39.2266 64.75 41.4111 64.75 43.5C64.75 45.5889 64.6395 47.7734 64.4907 49.7773L64.3314 51.711L64.2464 52.6141C64.0631 54.507 63.2177 56.2745 61.8591 57.6051C60.5005 58.9358 58.7158 59.7442 56.8195 59.888L55.077 60.0219L53.1645 60.1536L51.1203 60.2747L48.9867 60.3767C47.1589 60.4559 45.3296 60.497 43.5 60.5C41.6704 60.497 39.8411 60.4559 38.0133 60.3767L35.8797 60.2747L33.8376 60.1536L31.9251 60.0219L30.1784 59.888C28.2825 59.7437 26.4983 58.9351 25.1401 57.6045C23.7819 56.2739 22.9368 54.5067 22.7536 52.6141L22.6686 51.711L22.5092 49.7773C22.3474 47.6886 22.2609 45.5949 22.25 43.5C22.25 41.4111 22.3605 39.2266 22.5092 37.2227L22.6686 35.289L22.7536 34.3859C22.9367 32.4937 23.7815 30.7267 25.1393 29.3962C26.4971 28.0656 28.2807 27.2567 30.1762 27.112L31.9209 26.976L33.8334 26.8464L35.8776 26.7252L38.0111 26.6233C39.8397 26.544 41.6697 26.503 43.5 26.5ZM43.5 30.75C41.7469 30.75 39.9427 30.7968 38.1875 30.869L36.1093 30.9689L34.1139 31.0858L32.2396 31.2132L30.5226 31.3471C29.6199 31.4103 28.7688 31.7915 28.1207 32.423C27.4725 33.0544 27.0691 33.8952 26.9824 34.796C26.7338 37.3651 26.5 40.5632 26.5 43.5C26.5 46.4368 26.7338 49.6349 26.9824 52.204C27.163 54.057 28.6335 55.4977 30.5226 55.6529L32.2396 55.7846L34.1139 55.9121L36.1093 56.0311L38.1875 56.131C39.9427 56.2033 41.7469 56.25 43.5 56.25C45.2531 56.25 47.0573 56.2033 48.8125 56.131L50.8907 56.0311L52.8861 55.9142L54.7604 55.7867L56.4774 55.6529C57.3801 55.5897 58.2312 55.2085 58.8793 54.577C59.5275 53.9456 59.9309 53.1048 60.0176 52.204C60.2663 49.6349 60.5 46.4368 60.5 43.5C60.5 40.5632 60.2663 37.3651 60.0176 34.796C59.9309 33.8952 59.5275 33.0544 58.8793 32.423C58.2312 31.7915 57.3801 31.4103 56.4774 31.3471L54.7604 31.2154L52.8861 31.0879L50.8907 30.9689L48.8125 30.869C47.0427 30.793 45.2715 30.7534 43.5 30.75ZM39.25 38.3469C39.2499 38.1392 39.3005 37.9346 39.3974 37.7509C39.4943 37.5672 39.6347 37.41 39.8062 37.2929C39.9778 37.1759 40.1753 37.1025 40.3817 37.0791C40.5881 37.0558 40.797 37.0832 40.9904 37.159L41.1625 37.244L50.0875 42.395C50.2652 42.4975 50.4156 42.6415 50.5258 42.8146C50.636 42.9876 50.7028 43.1848 50.7205 43.3892C50.7383 43.5936 50.7064 43.7993 50.6276 43.9888C50.5489 44.1782 50.4255 44.3459 50.2681 44.4775L50.0875 44.605L41.1625 49.7581C40.9826 49.8623 40.7801 49.9209 40.5724 49.9288C40.3647 49.9368 40.1582 49.8939 39.9709 49.8038C39.7836 49.7137 39.6212 49.5792 39.4978 49.412C39.3743 49.2447 39.2937 49.0499 39.2627 48.8444L39.25 48.6531V38.3469Z" fill="white"/>
</svg>
