<svg width="472" height="472" viewBox="0 0 472 472" fill="none" xmlns="http://www.w3.org/2000/svg">
<path d="M58.0386 181.768L415.385 288.011" stroke="#EFEFEF" stroke-width="1.42" stroke-miterlimit="10"/>
<path d="M78.2041 136.838L395.24 332.971" stroke="#EFEFEF" stroke-width="1.42" stroke-miterlimit="10"/>
<path d="M109.441 98.7681L364.014 371.082" stroke="#EFEFEF" stroke-width="1.42" stroke-miterlimit="10"/>
<path d="M149.567 70.2005L323.887 399.68" stroke="#EFEFEF" stroke-width="1.42" stroke-miterlimit="10"/>
<path d="M195.766 53.1418L277.667 416.78" stroke="#EFEFEF" stroke-width="1.42" stroke-miterlimit="10"/>
<path d="M244.833 48.7902L228.58 421.162" stroke="#EFEFEF" stroke-width="1.42" stroke-miterlimit="10"/>
<path d="M293.327 57.4321L180.066 412.551" stroke="#EFEFEF" stroke-width="1.42" stroke-miterlimit="10"/>
<path d="M337.857 78.4739L135.495 391.52" stroke="#EFEFEF" stroke-width="1.42" stroke-miterlimit="10"/>
<path d="M375.31 110.441L98.001 359.563" stroke="#EFEFEF" stroke-width="1.42" stroke-miterlimit="10"/>
<path d="M403.095 151.111L70.1851 318.892" stroke="#EFEFEF" stroke-width="1.42" stroke-miterlimit="10"/>
<path d="M419.246 197.628L53.9932 272.355" stroke="#EFEFEF" stroke-width="1.42" stroke-miterlimit="10"/>
<path d="M422.636 246.757L50.5725 223.206" stroke="#EFEFEF" stroke-width="1.42" stroke-miterlimit="10"/>
<path d="M236.65 422.708C339.82 422.708 423.455 339.091 423.455 235.944C423.455 132.797 339.82 49.1793 236.65 49.1793C133.481 49.1793 49.8455 132.797 49.8455 235.944C49.8455 339.091 133.481 422.708 236.65 422.708Z" stroke="#EFEFEF" stroke-width="2.83" stroke-miterlimit="10"/>
<path d="M238.187 457.338C360.485 457.338 459.628 358.216 459.628 235.944C459.628 113.671 360.485 14.55 238.187 14.55C115.888 14.55 16.7449 113.671 16.7449 235.944C16.7449 358.216 115.888 457.338 238.187 457.338Z" stroke="#EFEFEF" stroke-width="2.83" stroke-miterlimit="10"/>
<path d="M286.752 416.626L281.068 451.225C280.975 451.768 280.259 451.911 279.972 451.44L261.742 421.603" stroke="#EFEFEF" stroke-width="1.42" stroke-miterlimit="10"/>
<path d="M257.942 422.166L246.922 455.443C246.748 455.966 246.021 455.996 245.806 455.484L232.472 423.159" stroke="#EFEFEF" stroke-width="1.42" stroke-miterlimit="10"/>
<path d="M228.611 423.138L212.511 454.286C212.255 454.778 211.528 454.686 211.405 454.153L203.294 420.149" stroke="#EFEFEF" stroke-width="1.42" stroke-miterlimit="10"/>
<path d="M199.494 419.514L178.724 447.754C178.397 448.194 177.69 447.999 177.649 447.447L174.956 412.592" stroke="#EFEFEF" stroke-width="1.42" stroke-miterlimit="10"/>
<path d="M171.309 411.384L146.371 436.03C145.982 436.419 145.317 436.112 145.358 435.559L148.153 400.704" stroke="#EFEFEF" stroke-width="1.42" stroke-miterlimit="10"/>
<path d="M144.733 398.943L116.251 419.391C115.801 419.708 115.196 419.309 115.33 418.766L123.543 384.782" stroke="#EFEFEF" stroke-width="1.42" stroke-miterlimit="10"/>
<path d="M120.44 382.488L89.1112 398.226C88.6196 398.472 88.087 397.981 88.2919 397.469L101.729 365.184" stroke="#EFEFEF" stroke-width="1.42" stroke-miterlimit="10"/>
<path d="M99.0148 362.45L65.607 373.099C65.0847 373.263 64.6341 372.689 64.9209 372.218L83.2429 342.432" stroke="#EFEFEF" stroke-width="1.42" stroke-miterlimit="10"/>
<path d="M80.9897 339.299L46.3222 344.583C45.7794 344.665 45.421 344.03 45.7794 343.61L68.536 317.059" stroke="#EFEFEF" stroke-width="1.42" stroke-miterlimit="10"/>
<path d="M66.8154 313.619L31.7485 313.425C31.1955 313.425 30.9497 312.738 31.3696 312.38L57.9975 289.71" stroke="#EFEFEF" stroke-width="1.42" stroke-miterlimit="10"/>
<path d="M56.8199 286.034L22.2138 280.352C21.671 280.259 21.5277 279.543 21.9988 279.256L51.8425 261.03" stroke="#EFEFEF" stroke-width="1.42" stroke-miterlimit="10"/>
<path d="M51.2792 257.231L17.9943 246.214C17.472 246.04 17.4413 245.313 17.9533 245.098L50.2857 231.766" stroke="#EFEFEF" stroke-width="1.42" stroke-miterlimit="10"/>
<path d="M50.3063 227.916L19.1517 211.82C18.6601 211.564 18.7523 210.837 19.2848 210.714L53.2969 202.605" stroke="#EFEFEF" stroke-width="1.42" stroke-miterlimit="10"/>
<path d="M53.9318 198.806L25.6858 178.041C25.2454 177.713 25.44 177.007 25.993 176.966L60.8551 174.273" stroke="#EFEFEF" stroke-width="1.42" stroke-miterlimit="10"/>
<path d="M62.0634 170.617L37.4121 145.685C37.023 145.295 37.3302 144.63 37.8832 144.671L72.7453 147.466" stroke="#EFEFEF" stroke-width="1.42" stroke-miterlimit="10"/>
<path d="M74.5069 144.057L54.0546 115.581C53.7371 115.131 54.1365 114.526 54.6793 114.66L88.6709 122.871" stroke="#EFEFEF" stroke-width="1.42" stroke-miterlimit="10"/>
<path d="M90.9649 119.759L75.2237 88.4367C74.9779 87.9452 75.4695 87.4128 75.9816 87.6176L108.273 101.052" stroke="#EFEFEF" stroke-width="1.42" stroke-miterlimit="10"/>
<path d="M111.008 98.3381L100.356 64.9376C100.193 64.4154 100.766 63.9648 101.237 64.2515L131.03 82.5696" stroke="#EFEFEF" stroke-width="1.42" stroke-miterlimit="10"/>
<path d="M134.164 80.317L128.879 45.657C128.797 45.1143 129.432 44.7559 129.852 45.1143L156.408 67.866" stroke="#EFEFEF" stroke-width="1.42" stroke-miterlimit="10"/>
<path d="M159.849 66.1458L160.044 31.0865C160.044 30.5335 160.73 30.2878 161.089 30.7076L183.763 57.3298" stroke="#EFEFEF" stroke-width="1.42" stroke-miterlimit="10"/>
<path d="M187.44 56.1625L193.124 21.564C193.216 21.0213 193.933 20.8779 194.22 21.3489L212.45 51.1862" stroke="#EFEFEF" stroke-width="1.42" stroke-miterlimit="10"/>
<path d="M216.249 50.6128L227.269 17.3351C227.443 16.8129 228.17 16.7822 228.385 17.2942L241.72 49.6196" stroke="#EFEFEF" stroke-width="1.42" stroke-miterlimit="10"/>
<path d="M245.571 49.6401L261.67 18.4921C261.926 18.0007 262.653 18.0928 262.776 18.6253L270.888 52.6299" stroke="#EFEFEF" stroke-width="1.42" stroke-miterlimit="10"/>
<path d="M274.687 53.2648L295.457 25.0248C295.785 24.5845 296.491 24.7791 296.532 25.332L299.226 60.1865" stroke="#EFEFEF" stroke-width="1.42" stroke-miterlimit="10"/>
<path d="M302.882 61.3948L327.82 36.7488C328.209 36.3597 328.875 36.6669 328.834 37.2198L326.038 72.0744" stroke="#EFEFEF" stroke-width="1.42" stroke-miterlimit="10"/>
<path d="M329.448 73.8457L357.93 53.3979C358.381 53.0805 358.985 53.4798 358.852 54.0225L350.638 88.0067" stroke="#EFEFEF" stroke-width="1.42" stroke-miterlimit="10"/>
<path d="M353.752 90.29L385.08 74.5522C385.572 74.3065 386.105 74.798 385.9 75.3099L372.463 107.594" stroke="#EFEFEF" stroke-width="1.42" stroke-miterlimit="10"/>
<path d="M375.177 110.328L408.585 99.6795C409.107 99.5156 409.557 100.089 409.271 100.56L390.949 130.346" stroke="#EFEFEF" stroke-width="1.42" stroke-miterlimit="10"/>
<path d="M393.202 133.479L427.869 128.196C428.412 128.114 428.771 128.749 428.412 129.169L405.656 155.719" stroke="#EFEFEF" stroke-width="1.42" stroke-miterlimit="10"/>
<path d="M407.376 159.159L442.443 159.354C442.996 159.354 443.242 160.04 442.822 160.398L416.194 183.068" stroke="#EFEFEF" stroke-width="1.42" stroke-miterlimit="10"/>
<path d="M417.362 186.744L451.968 192.427C452.51 192.519 452.654 193.236 452.183 193.522L422.339 211.748" stroke="#EFEFEF" stroke-width="1.42" stroke-miterlimit="10"/>
<path d="M422.913 215.547L456.197 226.565C456.72 226.739 456.751 227.466 456.238 227.681L423.906 241.012" stroke="#EFEFEF" stroke-width="1.42" stroke-miterlimit="10"/>
<path d="M423.886 244.872L455.04 260.969C455.532 261.225 455.44 261.952 454.907 262.074L420.895 270.184" stroke="#EFEFEF" stroke-width="1.42" stroke-miterlimit="10"/>
<path d="M420.26 273.983L448.506 294.748C448.946 295.076 448.752 295.782 448.199 295.823L413.337 298.516" stroke="#EFEFEF" stroke-width="1.42" stroke-miterlimit="10"/>
<path d="M412.128 302.161L436.779 327.094C437.169 327.483 436.861 328.149 436.308 328.108L401.446 325.312" stroke="#EFEFEF" stroke-width="1.42" stroke-miterlimit="10"/>
<path d="M399.674 328.732L420.127 357.208C420.444 357.658 420.045 358.262 419.502 358.129L385.51 349.917" stroke="#EFEFEF" stroke-width="1.42" stroke-miterlimit="10"/>
<path d="M383.227 353.02L398.968 384.342C399.214 384.833 398.722 385.366 398.21 385.161L365.918 371.727" stroke="#EFEFEF" stroke-width="1.42" stroke-miterlimit="10"/>
<path d="M363.184 374.44L373.835 407.841C373.999 408.363 373.425 408.814 372.954 408.527L343.162 390.209" stroke="#EFEFEF" stroke-width="1.42" stroke-miterlimit="10"/>
<path d="M340.028 392.462L345.313 427.122C345.395 427.664 344.76 428.023 344.34 427.664L317.783 404.913" stroke="#EFEFEF" stroke-width="1.42" stroke-miterlimit="10"/>
<path d="M314.342 406.633L314.148 441.692C314.148 442.245 313.462 442.491 313.103 442.071L290.428 415.449" stroke="#EFEFEF" stroke-width="1.42" stroke-miterlimit="10"/>
<path d="M197.046 468.705L184.902 466.343C182.117 465.801 180.295 463.1 180.837 460.316L182.803 450.215L205.04 454.54L203.074 464.641C202.532 467.425 199.83 469.247 197.046 468.705Z" fill="#EFEFEF"/>
<path d="M133.006 448.3L122.019 442.614C119.5 441.31 118.513 438.205 119.817 435.686L124.549 426.547L144.667 436.96L139.935 446.099C138.631 448.617 135.525 449.604 133.006 448.3Z" fill="#EFEFEF"/>
<path d="M77.3123 410.671L68.3724 402.12C66.3224 400.16 66.2502 396.902 68.2112 394.853L75.3262 387.417L91.6962 403.073L84.5813 410.509C82.6202 412.559 79.3622 412.631 77.3123 410.671Z" fill="#EFEFEF"/>
<path d="M34.5285 358.93L28.3613 348.207C26.9472 345.748 27.7961 342.602 30.2554 341.189L39.1781 336.059L50.4709 355.694L41.5482 360.823C39.0889 362.237 35.9426 361.388 34.5285 358.93Z" fill="#EFEFEF"/>
<path d="M8.02874 297.186L5.13221 285.161C4.46803 282.404 6.16884 279.625 8.92689 278.96L18.9335 276.551L24.2374 298.571L14.2308 300.98C11.4727 301.644 8.69292 299.944 8.02874 297.186Z" fill="#EFEFEF"/>
<path d="M0.0101844 230.512L0.621011 218.158C0.761076 215.325 3.17638 213.138 6.00981 213.278L16.29 213.786L15.1715 236.408L4.89131 235.9C2.05788 235.76 -0.129881 233.345 0.0101844 230.512Z" fill="#EFEFEF"/>
<path d="M11.1055 164.251L15.1721 152.569C16.1046 149.891 19.0383 148.472 21.7176 149.404L31.4383 152.787L23.9919 174.178L14.2711 170.795C11.5918 169.863 10.173 166.93 11.1055 164.251Z" fill="#EFEFEF"/>
<path d="M40.4164 103.803L47.6095 93.7399C49.2589 91.4323 52.4735 90.8974 54.7817 92.5464L63.1559 98.5294L49.9844 116.957L41.6102 110.974C39.3021 109.325 38.767 106.111 40.4164 103.803Z" fill="#EFEFEF"/>
<path d="M85.5748 54.0707L95.3132 46.442C97.5462 44.6927 100.781 45.0852 102.531 47.3178L108.879 55.418L91.0469 69.3872L84.6987 61.287C82.9491 59.0544 83.3417 55.8201 85.5748 54.0707Z" fill="#EFEFEF"/>
<path d="M142.921 19.0634L154.414 14.486C157.05 13.4364 160.043 14.7241 161.093 17.359L164.902 26.9189L143.856 35.3007L140.047 25.7408C138.997 23.1059 140.285 20.1131 142.921 19.0634Z" fill="#EFEFEF"/>
<path d="M207.814 1.62562L220.131 0.470185C222.956 0.205239 225.465 2.28379 225.73 5.10767L226.692 15.3532L204.137 17.4689L203.175 7.22342C202.91 4.39954 204.989 1.89057 207.814 1.62562Z" fill="#EFEFEF"/>
<path d="M274.984 3.19092L287.128 5.55317C289.913 6.09484 291.734 8.79626 291.193 11.5803L289.227 21.6814L266.99 17.3558L268.955 7.25477C269.497 4.47069 272.199 2.64925 274.984 3.19092Z" fill="#EFEFEF"/>
<path d="M338.994 23.5848L349.981 29.2713C352.5 30.5753 353.487 33.6803 352.183 36.1991L347.451 45.3377L327.333 34.925L332.065 25.7865C333.369 23.2677 336.475 22.2809 338.994 23.5848Z" fill="#EFEFEF"/>
<path d="M394.68 61.1816L403.62 69.7319C405.67 71.6925 405.742 74.9498 403.781 76.9993L396.666 84.4353L380.296 68.7787L387.411 61.3428C389.372 59.2932 392.63 59.221 394.68 61.1816Z" fill="#EFEFEF"/>
<path d="M437.464 112.972L443.631 123.695C445.045 126.154 444.196 129.299 441.737 130.713L432.814 135.843L421.521 116.208L430.444 111.078C432.903 109.665 436.05 110.513 437.464 112.972Z" fill="#EFEFEF"/>
<path d="M463.973 174.706L466.87 186.731C467.534 189.488 465.833 192.268 463.075 192.932L453.069 195.341L447.765 173.321L457.771 170.912C460.529 170.248 463.309 171.948 463.973 174.706Z" fill="#EFEFEF"/>
<path d="M471.955 241.378L471.344 253.732C471.204 256.565 468.788 258.752 465.955 258.612L455.675 258.104L456.793 235.482L467.074 235.99C469.907 236.13 472.095 238.545 471.955 241.378Z" fill="#EFEFEF"/>
<path d="M460.885 307.646L456.819 319.328C455.886 322.006 452.952 323.425 450.273 322.493L440.552 319.11L447.999 297.719L457.72 301.102C460.399 302.034 461.818 304.967 460.885 307.646Z" fill="#EFEFEF"/>
<path d="M431.597 368.118L424.404 378.181C422.755 380.489 419.54 381.024 417.232 379.375L408.858 373.392L422.029 354.964L430.404 360.947C432.712 362.596 433.247 365.81 431.597 368.118Z" fill="#EFEFEF"/>
<path d="M386.432 417.795L376.693 425.424C374.46 427.173 371.225 426.781 369.475 424.548L363.127 416.448L380.959 402.479L387.308 410.579C389.057 412.812 388.665 416.046 386.432 417.795Z" fill="#EFEFEF"/>
<path d="M329.075 452.835L317.582 457.412C314.946 458.462 311.953 457.174 310.903 454.539L307.094 444.979L328.14 436.597L331.949 446.157C332.999 448.792 331.711 451.785 329.075 452.835Z" fill="#EFEFEF"/>
<path d="M264.17 470.28L251.853 471.435C249.028 471.7 246.519 469.622 246.254 466.798L245.292 456.552L267.847 454.437L268.809 464.682C269.074 467.506 266.995 470.015 264.17 470.28Z" fill="#EFEFEF"/>
</svg>
